G04 ================== begin FILE IDENTIFICATION RECORD ==================*
G04 Layout Name:  G:/Work/sh-z-003/design/HW/pcb/sh-z-003_nc.brd*
G04 Film Name:    DRILL*
G04 File Format:  Gerber RS274X*
G04 File Origin:  Cadence Allegro 17.2-S007*
G04 Origin Date:  Sun Aug 05 17:11:58 2018*
G04 *
G04 Layer:  ETCH/WIRE*
G04 Layer:  MANUFACTURING/NCDRILL_LEGEND*
G04 Layer:  MANUFACTURING/NCDRILL_FIGURE*
G04 Layer:  MANUFACTURING/NCLEGEND-1-2*
G04 Layer:  BOARD GEOMETRY/OUTLINE*
G04 *
G04 Offset:    (0.0000 0.0000)*
G04 Mirror:    No*
G04 Mode:      Positive*
G04 Rotation:  0*
G04 FullContactRelief:  No*
G04 UndefLineWidth:     0.2000*
G04 ================== end FILE IDENTIFICATION RECORD ====================*
%FSLAX25Y25*MOMM*%
%IR0*IPPOS*OFA0.00000B0.00000*MIA0B0*SFA1.00000B1.00000*%
%AMMACRO14*
1,1,.2,.5,0.0*
20,1,.2,.5,0.0,.492404,-.086824,0.0*
1,1,.2,.492404,-.086824*
20,1,.2,.492404,-.086824,.469846,-.17101,0.0*
1,1,.2,.469846,-.17101*
20,1,.2,.469846,-.17101,.433013,-.25,0.0*
1,1,.2,.433013,-.25*
20,1,.2,.433013,-.25,.383022,-.321394,0.0*
1,1,.2,.383022,-.321394*
20,1,.2,.383022,-.321394,.321394,-.383022,0.0*
1,1,.2,.321394,-.383022*
20,1,.2,.321394,-.383022,.25,-.433013,0.0*
1,1,.2,.25,-.433013*
20,1,.2,.25,-.433013,.17101,-.469846,0.0*
1,1,.2,.17101,-.469846*
20,1,.2,.17101,-.469846,.086824,-.492404,0.0*
1,1,.2,.086824,-.492404*
20,1,.2,.086824,-.492404,0.0,-.5,0.0*
1,1,.2,0.0,-.5*
20,1,.2,0.0,-.5,-.086824,-.492404,0.0*
1,1,.2,-.086824,-.492404*
20,1,.2,-.086824,-.492404,-.17101,-.469846,0.0*
1,1,.2,-.17101,-.469846*
20,1,.2,-.17101,-.469846,-.25,-.433013,0.0*
1,1,.2,-.25,-.433013*
20,1,.2,-.25,-.433013,-.321394,-.383022,0.0*
1,1,.2,-.321394,-.383022*
20,1,.2,-.321394,-.383022,-.383022,-.321394,0.0*
1,1,.2,-.383022,-.321394*
20,1,.2,-.383022,-.321394,-.433013,-.25,0.0*
1,1,.2,-.433013,-.25*
20,1,.2,-.433013,-.25,-.469846,-.17101,0.0*
1,1,.2,-.469846,-.17101*
20,1,.2,-.469846,-.17101,-.492404,-.086824,0.0*
1,1,.2,-.492404,-.086824*
20,1,.2,-.492404,-.086824,-.5,0.0,0.0*
1,1,.2,-.5,0.0*
20,1,.2,-.5,0.0,-.492404,.086824,0.0*
1,1,.2,-.492404,.086824*
20,1,.2,-.492404,.086824,-.469846,.17101,0.0*
1,1,.2,-.469846,.17101*
20,1,.2,-.469846,.17101,-.433013,.25,0.0*
1,1,.2,-.433013,.25*
20,1,.2,-.433013,.25,-.383022,.321394,0.0*
1,1,.2,-.383022,.321394*
20,1,.2,-.383022,.321394,-.321394,.383022,0.0*
1,1,.2,-.321394,.383022*
20,1,.2,-.321394,.383022,-.25,.433013,0.0*
1,1,.2,-.25,.433013*
20,1,.2,-.25,.433013,-.17101,.469846,0.0*
1,1,.2,-.17101,.469846*
20,1,.2,-.17101,.469846,-.086824,.492404,0.0*
1,1,.2,-.086824,.492404*
20,1,.2,-.086824,.492404,0.0,.5,0.0*
1,1,.2,0.0,.5*
20,1,.2,0.0,.5,.086824,.492404,0.0*
1,1,.2,.086824,.492404*
20,1,.2,.086824,.492404,.17101,.469846,0.0*
1,1,.2,.17101,.469846*
20,1,.2,.17101,.469846,.25,.433013,0.0*
1,1,.2,.25,.433013*
20,1,.2,.25,.433013,.321394,.383022,0.0*
1,1,.2,.321394,.383022*
20,1,.2,.321394,.383022,.383022,.321394,0.0*
1,1,.2,.383022,.321394*
20,1,.2,.383022,.321394,.433013,.25,0.0*
1,1,.2,.433013,.25*
20,1,.2,.433013,.25,.469846,.17101,0.0*
1,1,.2,.469846,.17101*
20,1,.2,.469846,.17101,.492404,.086824,0.0*
1,1,.2,.492404,.086824*
20,1,.2,.492404,.086824,.5,0.0,0.0*
1,1,.2,.5,0.0*
1,1,.2,.1833,.2083*
20,1,.2,.1833,.2083,.1333,.2333,0.0*
1,1,.2,.1333,.2333*
20,1,.2,.1333,.2333,.075,.25,0.0*
1,1,.2,.075,.25*
20,1,.2,.075,.25,.0083,.25,0.0*
1,1,.2,.0083,.25*
20,1,.2,.0083,.25,-.0667,.225,0.0*
1,1,.2,-.0667,.225*
20,1,.2,-.0667,.225,-.125,.1833,0.0*
1,1,.2,-.125,.1833*
20,1,.2,-.125,.1833,-.1667,.1333,0.0*
1,1,.2,-.1667,.1333*
20,1,.2,-.1667,.1333,-.2,.05,0.0*
1,1,.2,-.2,.05*
20,1,.2,-.2,.05,-.2083,-.025,0.0*
1,1,.2,-.2083,-.025*
20,1,.2,-.2083,-.025,-.1917,-.1,0.0*
1,1,.2,-.1917,-.1*
20,1,.2,-.1917,-.1,-.1667,-.15,0.0*
1,1,.2,-.1667,-.15*
20,1,.2,-.1667,-.15,-.1167,-.2,0.0*
1,1,.2,-.1167,-.2*
20,1,.2,-.1167,-.2,-.0583,-.2333,0.0*
1,1,.2,-.0583,-.2333*
20,1,.2,-.0583,-.2333,0.0,-.25,0.0*
1,1,.2,0.0,-.25*
20,1,.2,0.0,-.25,.0583,-.25,0.0*
1,1,.2,.0583,-.25*
20,1,.2,.0583,-.25,.1167,-.2333,0.0*
1,1,.2,.1167,-.2333*
20,1,.2,.1167,-.2333,.1667,-.2083,0.0*
1,1,.2,.1667,-.2083*
20,1,.2,.1667,-.2083,.2083,-.175,0.0*
1,1,.2,.2083,-.175*
%
%ADD14MACRO14*%
%AMMACRO13*
1,1,.2,.5,.5*
20,1,.2,.5,.5,.5,-.5,0.0*
1,1,.2,.5,-.5*
20,1,.2,.5,-.5,-.5,-.5,0.0*
1,1,.2,-.5,-.5*
20,1,.2,-.5,-.5,-.5,.5,0.0*
1,1,.2,-.5,.5*
20,1,.2,-.5,.5,.5,.5,0.0*
1,1,.2,.5,.5*
1,1,.2,.1833,.2083*
20,1,.2,.1833,.2083,.1333,.2333,0.0*
1,1,.2,.1333,.2333*
20,1,.2,.1333,.2333,.075,.25,0.0*
1,1,.2,.075,.25*
20,1,.2,.075,.25,.0083,.25,0.0*
1,1,.2,.0083,.25*
20,1,.2,.0083,.25,-.0667,.225,0.0*
1,1,.2,-.0667,.225*
20,1,.2,-.0667,.225,-.125,.1833,0.0*
1,1,.2,-.125,.1833*
20,1,.2,-.125,.1833,-.1667,.1333,0.0*
1,1,.2,-.1667,.1333*
20,1,.2,-.1667,.1333,-.2,.05,0.0*
1,1,.2,-.2,.05*
20,1,.2,-.2,.05,-.2083,-.025,0.0*
1,1,.2,-.2083,-.025*
20,1,.2,-.2083,-.025,-.1917,-.1,0.0*
1,1,.2,-.1917,-.1*
20,1,.2,-.1917,-.1,-.1667,-.15,0.0*
1,1,.2,-.1667,-.15*
20,1,.2,-.1667,-.15,-.1167,-.2,0.0*
1,1,.2,-.1167,-.2*
20,1,.2,-.1167,-.2,-.0583,-.2333,0.0*
1,1,.2,-.0583,-.2333*
20,1,.2,-.0583,-.2333,0.0,-.25,0.0*
1,1,.2,0.0,-.25*
20,1,.2,0.0,-.25,.0583,-.25,0.0*
1,1,.2,.0583,-.25*
20,1,.2,.0583,-.25,.1167,-.2333,0.0*
1,1,.2,.1167,-.2333*
20,1,.2,.1167,-.2333,.1667,-.2083,0.0*
1,1,.2,.1667,-.2083*
20,1,.2,.1667,-.2083,.2083,-.175,0.0*
1,1,.2,.2083,-.175*
%
%ADD13MACRO13*%
%AMMACRO12*
1,1,.2,.25,0.0*
20,1,.2,.25,0.0,.246202,-.043412,0.0*
1,1,.2,.246202,-.043412*
20,1,.2,.246202,-.043412,.234923,-.085505,0.0*
1,1,.2,.234923,-.085505*
20,1,.2,.234923,-.085505,.216506,-.125,0.0*
1,1,.2,.216506,-.125*
20,1,.2,.216506,-.125,.191511,-.160697,0.0*
1,1,.2,.191511,-.160697*
20,1,.2,.191511,-.160697,.160697,-.191511,0.0*
1,1,.2,.160697,-.191511*
20,1,.2,.160697,-.191511,.125,-.216506,0.0*
1,1,.2,.125,-.216506*
20,1,.2,.125,-.216506,.085505,-.234923,0.0*
1,1,.2,.085505,-.234923*
20,1,.2,.085505,-.234923,.043412,-.246202,0.0*
1,1,.2,.043412,-.246202*
20,1,.2,.043412,-.246202,0.0,-.25,0.0*
1,1,.2,0.0,-.25*
20,1,.2,0.0,-.25,-.043412,-.246202,0.0*
1,1,.2,-.043412,-.246202*
20,1,.2,-.043412,-.246202,-.085505,-.234923,0.0*
1,1,.2,-.085505,-.234923*
20,1,.2,-.085505,-.234923,-.125,-.216506,0.0*
1,1,.2,-.125,-.216506*
20,1,.2,-.125,-.216506,-.160697,-.191511,0.0*
1,1,.2,-.160697,-.191511*
20,1,.2,-.160697,-.191511,-.191511,-.160697,0.0*
1,1,.2,-.191511,-.160697*
20,1,.2,-.191511,-.160697,-.216506,-.125,0.0*
1,1,.2,-.216506,-.125*
20,1,.2,-.216506,-.125,-.234923,-.085505,0.0*
1,1,.2,-.234923,-.085505*
20,1,.2,-.234923,-.085505,-.246202,-.043412,0.0*
1,1,.2,-.246202,-.043412*
20,1,.2,-.246202,-.043412,-.25,0.0,0.0*
1,1,.2,-.25,0.0*
20,1,.2,-.25,0.0,-.246202,.043412,0.0*
1,1,.2,-.246202,.043412*
20,1,.2,-.246202,.043412,-.234923,.085505,0.0*
1,1,.2,-.234923,.085505*
20,1,.2,-.234923,.085505,-.216506,.125,0.0*
1,1,.2,-.216506,.125*
20,1,.2,-.216506,.125,-.191511,.160697,0.0*
1,1,.2,-.191511,.160697*
20,1,.2,-.191511,.160697,-.160697,.191511,0.0*
1,1,.2,-.160697,.191511*
20,1,.2,-.160697,.191511,-.125,.216506,0.0*
1,1,.2,-.125,.216506*
20,1,.2,-.125,.216506,-.085505,.234923,0.0*
1,1,.2,-.085505,.234923*
20,1,.2,-.085505,.234923,-.043412,.246202,0.0*
1,1,.2,-.043412,.246202*
20,1,.2,-.043412,.246202,0.0,.25,0.0*
1,1,.2,0.0,.25*
20,1,.2,0.0,.25,.043412,.246202,0.0*
1,1,.2,.043412,.246202*
20,1,.2,.043412,.246202,.085505,.234923,0.0*
1,1,.2,.085505,.234923*
20,1,.2,.085505,.234923,.125,.216506,0.0*
1,1,.2,.125,.216506*
20,1,.2,.125,.216506,.160697,.191511,0.0*
1,1,.2,.160697,.191511*
20,1,.2,.160697,.191511,.191511,.160697,0.0*
1,1,.2,.191511,.160697*
20,1,.2,.191511,.160697,.216506,.125,0.0*
1,1,.2,.216506,.125*
20,1,.2,.216506,.125,.234923,.085505,0.0*
1,1,.2,.234923,.085505*
20,1,.2,.234923,.085505,.246202,.043412,0.0*
1,1,.2,.246202,.043412*
20,1,.2,.246202,.043412,.25,0.0,0.0*
1,1,.2,.25,0.0*
1,1,.2,-.0875,-.125*
20,1,.2,-.0875,-.125,-.0875,.125,0.0*
1,1,.2,-.0875,.125*
1,1,.2,.0875,.125*
20,1,.2,.0875,.125,.0875,-.125,0.0*
1,1,.2,.0875,-.125*
1,1,.2,.0875,0.0*
20,1,.2,.0875,0.0,-.0875,0.0,0.0*
1,1,.2,-.0875,0.0*
%
%ADD12MACRO12*%
%AMMACRO10*
1,1,.2,.5,0.0*
20,1,.2,.5,0.0,-.5,0.0,0.0*
1,1,.2,-.5,0.0*
1,1,.2,0.0,.5*
20,1,.2,0.0,.5,0.0,-.5,0.0*
1,1,.2,0.0,-.5*
1,1,.2,.0417,.5*
20,1,.2,.0417,.5,.25,0.0,0.0*
1,1,.2,.25,0.0*
20,1,.2,.25,0.0,.4583,.5,0.0*
1,1,.2,.4583,.5*
%
%ADD10MACRO10*%
%AMMACRO11*
1,1,.2,.5,0.0*
20,1,.2,.5,0.0,.25,.433013,0.0*
1,1,.2,.25,.433013*
20,1,.2,.25,.433013,-.25,.433013,0.0*
1,1,.2,-.25,.433013*
20,1,.2,-.25,.433013,-.5,0.0,0.0*
1,1,.2,-.5,0.0*
20,1,.2,-.5,0.0,-.25,-.433013,0.0*
1,1,.2,-.25,-.433013*
20,1,.2,-.25,-.433013,.25,-.433013,0.0*
1,1,.2,.25,-.433013*
20,1,.2,.25,-.433013,.5,0.0,0.0*
1,1,.2,.5,0.0*
1,1,.2,-.1833,-.25*
20,1,.2,-.1833,-.25,-.1833,.25,0.0*
1,1,.2,-.1833,.25*
20,1,.2,-.1833,.25,-.0167,.25,0.0*
1,1,.2,-.0167,.25*
20,1,.2,-.0167,.25,.05,.225,0.0*
1,1,.2,.05,.225*
20,1,.2,.05,.225,.1,.1917,0.0*
1,1,.2,.1,.1917*
20,1,.2,.1,.1917,.1417,.1417,0.0*
1,1,.2,.1417,.1417*
20,1,.2,.1417,.1417,.175,.0833,0.0*
1,1,.2,.175,.0833*
20,1,.2,.175,.0833,.1833,0.0,0.0*
1,1,.2,.1833,0.0*
20,1,.2,.1833,0.0,.175,-.0833,0.0*
1,1,.2,.175,-.0833*
20,1,.2,.175,-.0833,.1417,-.1417,0.0*
1,1,.2,.1417,-.1417*
20,1,.2,.1417,-.1417,.1,-.1917,0.0*
1,1,.2,.1,-.1917*
20,1,.2,.1,-.1917,.05,-.225,0.0*
1,1,.2,.05,-.225*
20,1,.2,.05,-.225,-.0167,-.25,0.0*
1,1,.2,-.0167,-.25*
20,1,.2,-.0167,-.25,-.1833,-.25,0.0*
1,1,.2,-.1833,-.25*
%
%ADD11MACRO11*%
%ADD15C,.2*%
G75*
%LPD*%
G75*
G54D10*
X240000Y1080000D03*
X410000Y1250000D03*
X370000Y1800000D03*
X270000Y2730000D03*
X340000Y3330000D03*
X400000Y3570000D03*
X180000Y5850000D03*
X330000Y6600000D03*
X300000Y7390000D03*
X690000Y320000D03*
X550000Y1700000D03*
X510000Y1540000D03*
X690000Y2120000D03*
X450000Y2280000D03*
X690000Y2730000D03*
X650000Y2930000D03*
X490000Y3900000D03*
X480000Y4510000D03*
X520000Y4780000D03*
X480000Y5300000D03*
X830000Y870000D03*
X870000Y2330000D03*
X900000Y5690000D03*
X1090000Y1090000D03*
X1160000Y3470000D03*
Y3660000D03*
X1170000Y4350000D03*
X980000Y4120000D03*
X1011730Y12497500D03*
Y13132500D03*
X1410000Y1380000D03*
X1340000Y4126000D03*
X1490000Y5060000D03*
X1270000Y6560000D03*
X1430000Y7330000D03*
X1740000Y280000D03*
Y1590000D03*
X1570000Y1990000D03*
Y2330000D03*
X1610000Y2640000D03*
X1590000Y3060000D03*
X1790000Y840000D03*
X1940000Y1320000D03*
X1950000Y5450000D03*
X1960000Y6840000D03*
X2050000Y1970000D03*
X2170000Y2980000D03*
X2070000Y3620000D03*
X2270000Y3990000D03*
X2090000Y4276000D03*
Y4149000D03*
X2550000Y1970000D03*
X2510000Y2670000D03*
X2376000Y4194000D03*
X2400000Y4480000D03*
X2432500Y4377500D03*
X2390000Y4680000D03*
Y4780000D03*
X2472430Y4940000D03*
X2530000Y5220000D03*
X2670000Y800000D03*
X2820000Y1560000D03*
X2610000Y2320000D03*
X2740000Y2980000D03*
X2735000Y3430000D03*
X2610000Y5620000D03*
X2710000Y6510000D03*
X2570000Y7350000D03*
X3010000Y860000D03*
X2870000Y3660000D03*
X3060000Y4240000D03*
X3050000Y4650000D03*
X3330000Y300000D03*
X3170000Y1930000D03*
X3300000Y2190000D03*
X3170000Y2680000D03*
X3350000Y2580000D03*
X3340000Y5720000D03*
X3610000Y1070000D03*
X3520000Y1980000D03*
X3440000Y2820000D03*
X3620000Y2850000D03*
X3510000Y6390000D03*
X3810000Y1060000D03*
Y1430000D03*
Y2180000D03*
X3710000Y3670000D03*
X3890000Y5710000D03*
X3727430Y7582570D03*
X4010000Y970000D03*
Y1520000D03*
X3900000Y4710000D03*
X4150000Y5160000D03*
X3910000Y7320000D03*
X4210000Y940000D03*
X4410000Y950000D03*
X4210000Y1550000D03*
X4410000D03*
X4380000Y3030000D03*
X4260000Y4260000D03*
X4350000Y6610000D03*
X4610000Y950000D03*
Y1550000D03*
X4530000Y4840000D03*
X4490000Y5380000D03*
X4500000Y5650000D03*
X4800000Y3190000D03*
X4790000Y6220000D03*
X5100000Y3320000D03*
X5060000Y3800000D03*
X5120000Y3610000D03*
X5190000Y3930000D03*
X5030000Y7110000D03*
X5240000Y700000D03*
X5360000Y1250000D03*
X5230000Y1780000D03*
X5330000Y4210000D03*
X5500000Y300000D03*
X5600000Y3150000D03*
X5500000Y3740000D03*
X5690000Y4130000D03*
X5660000Y4560000D03*
X5610000Y4860000D03*
X5730000Y5050000D03*
X5620000Y5260000D03*
Y5660000D03*
X5630000Y6070000D03*
X5570000Y6760000D03*
X5850000Y1260000D03*
X5990000Y2250000D03*
X5840000Y2510000D03*
Y2880000D03*
X5990000Y2920000D03*
X6070000Y790000D03*
X6270000Y5800000D03*
X6280000Y7350000D03*
X6530000Y1120000D03*
X6520000Y1930000D03*
X6540000Y2680000D03*
X6460000Y3390000D03*
X6490000Y4140000D03*
Y4800000D03*
X6350000Y6720000D03*
G54D11*
X260000Y1356000D03*
Y1610000D03*
X280000Y2286000D03*
Y2540000D03*
X270000Y4670000D03*
Y4924000D03*
X1011730Y11862500D03*
X1934000Y276000D03*
Y530000D03*
X2188000Y276000D03*
Y530000D03*
X2442000Y276000D03*
Y530000D03*
X2696000Y276000D03*
Y530000D03*
X2950000Y276000D03*
Y530000D03*
X3584000Y276000D03*
Y530000D03*
X3838000Y276000D03*
Y530000D03*
X3850000Y2832000D03*
Y3086000D03*
Y3340000D03*
X4092000Y276000D03*
Y530000D03*
X4104000Y2832000D03*
Y3086000D03*
Y3340000D03*
X4346000Y276000D03*
Y530000D03*
X4600000Y276000D03*
Y530000D03*
G54D12*
X500000Y5680000D03*
Y6080000D03*
X1011730Y8687500D03*
G54D13*
X750000Y6790000D03*
X1011730Y9322500D03*
Y10592500D03*
X6300000Y380000D03*
G54D14*
X750000Y7290000D03*
X1011730Y9957500D03*
Y11227500D03*
X5919000Y380000D03*
G54D15*
G01X0Y0D02*
X6700000D01*
Y7700000D01*
X0D01*
Y0D01*
G01X-130000Y8370000D02*
Y15370000D01*
X12468400D01*
Y8370000D01*
X-130000D01*
G01Y9005000D02*
X12468400D01*
G01X-130000Y9640000D02*
X12468400D01*
G01X-130000Y10275000D02*
X12468400D01*
G01X-130000Y10910000D02*
X12468400D01*
G01X-130000Y11545000D02*
X12468400D01*
G01X-130000Y12180000D02*
X12468400D01*
G01X-130000Y12815000D02*
X12468400D01*
G01X149520Y13608750D02*
Y13926250D01*
X299140D01*
G01X244010Y13772800D02*
X149520D01*
G01X492050Y13926250D02*
X586530D01*
G01X539290D02*
Y13608750D01*
G01X492050D02*
X586530D01*
G01X877870Y13767500D02*
X956620D01*
Y13672250D01*
X932990Y13640490D01*
X905430Y13619330D01*
X866060Y13608750D01*
X826690Y13619330D01*
X799130Y13640490D01*
X775510Y13672250D01*
X759760Y13709290D01*
X751880Y13751620D01*
Y13788670D01*
X759760Y13820410D01*
X775510Y13857460D01*
X799130Y13889210D01*
X822750Y13910370D01*
X854250Y13926250D01*
X881810D01*
X913300Y13915670D01*
X936930Y13894500D01*
G01X1082600Y13926250D02*
Y13698710D01*
X1098340Y13651070D01*
X1129840Y13619330D01*
X1169210Y13608750D01*
X1208580Y13619330D01*
X1240080Y13651070D01*
X1255820Y13698710D01*
Y13926250D01*
G01X1405430Y13608750D02*
Y13926250D01*
X1503850D01*
X1535350Y13910370D01*
X1555040Y13889210D01*
X1562910Y13846870D01*
X1555040Y13804540D01*
X1531410Y13778090D01*
X1503850Y13762200D01*
X1405430D01*
G01X1503850D02*
X1562910Y13608750D01*
G01X1877870D02*
X1720390D01*
Y13926250D01*
X1877870D01*
G01X1814880Y13772800D02*
X1720390D01*
G01X-130000Y13450000D02*
X12468400D01*
G01X-130000Y14085000D02*
X12468400D01*
G01X-130000Y14720000D02*
X12468400D01*
G01X1818810Y14243750D02*
X1917240Y14561250D01*
X2015670Y14243750D01*
G01X1980230Y14354870D02*
X1854240D01*
G01X2153460Y14561250D02*
Y14243750D01*
X2310940D01*
G01X2468420Y14561250D02*
Y14243750D01*
X2625900D01*
G01X3090470Y14561250D02*
Y14333710D01*
X3106210Y14286070D01*
X3137710Y14254330D01*
X3177080Y14243750D01*
X3216450Y14254330D01*
X3247950Y14286070D01*
X3263690Y14333710D01*
Y14561250D01*
G01X3401490Y14243750D02*
Y14561250D01*
X3582590Y14243750D01*
Y14561250D01*
G01X3759760D02*
X3854240D01*
G01X3807000D02*
Y14243750D01*
G01X3759760D02*
X3854240D01*
G01X4121960Y14561250D02*
Y14243750D01*
G01X4031410Y14561250D02*
X4212510D01*
G01X4354240Y14286070D02*
X4385740Y14259620D01*
X4421170Y14243750D01*
X4452670D01*
X4484160Y14259620D01*
X4507790Y14286070D01*
X4519600Y14323130D01*
X4511730Y14360160D01*
X4492040Y14391910D01*
X4456600Y14413090D01*
X4409360Y14423670D01*
X4381800Y14444830D01*
X4369990Y14481870D01*
X4377870Y14518920D01*
X4397550Y14545370D01*
X4425110Y14561250D01*
X4452670D01*
X4480230Y14550670D01*
X4503850Y14524210D01*
G01X4968410Y14243750D02*
X5066840Y14561250D01*
X5165270Y14243750D01*
G01X5129830Y14354870D02*
X5003840D01*
G01X5303060Y14243750D02*
Y14561250D01*
X5401480D01*
X5432980Y14545370D01*
X5452670Y14524210D01*
X5460540Y14481870D01*
X5452670Y14439540D01*
X5429040Y14413090D01*
X5401480Y14397200D01*
X5303060D01*
G01X5401480D02*
X5460540Y14243750D01*
G01X5775500D02*
X5618020D01*
Y14561250D01*
X5775500D01*
G01X5712510Y14407800D02*
X5618020D01*
G01X6279440Y14561250D02*
X6373920D01*
G01X6326680D02*
Y14243750D01*
G01X6279440D02*
X6373920D01*
G01X6551090D02*
Y14561250D01*
X6732190Y14243750D01*
Y14561250D01*
G01X7169190Y14243750D02*
Y14561250D01*
X7271560Y14296670D01*
X7373930Y14561250D01*
Y14243750D01*
G01X7539280Y14561250D02*
X7633760D01*
G01X7586520D02*
Y14243750D01*
G01X7539280D02*
X7633760D01*
G01X7822740Y14561250D02*
Y14243750D01*
X7980220D01*
G01X8137700Y14561250D02*
Y14243750D01*
X8295180D01*
G01X8484160Y14561250D02*
X8578640D01*
G01X8531400D02*
Y14243750D01*
G01X8484160D02*
X8578640D01*
G01X8743990D02*
Y14561250D01*
X8846360Y14296670D01*
X8948730Y14561250D01*
Y14243750D01*
G01X9240060D02*
X9082580D01*
Y14561250D01*
X9240060D01*
G01X9177070Y14407800D02*
X9082580D01*
G01X9476280Y14561250D02*
Y14243750D01*
G01X9385730Y14561250D02*
X9566830D01*
G01X9869980Y14243750D02*
X9712500D01*
Y14561250D01*
X9869980D01*
G01X9806990Y14407800D02*
X9712500D01*
G01X10027460Y14243750D02*
Y14561250D01*
X10125880D01*
X10157380Y14545370D01*
X10177070Y14524210D01*
X10184940Y14481870D01*
X10177070Y14439540D01*
X10153440Y14413090D01*
X10125880Y14397200D01*
X10027460D01*
G01X10125880D02*
X10184940Y14243750D01*
G01X10338480Y14286070D02*
X10369980Y14259620D01*
X10405410Y14243750D01*
X10436910D01*
X10468400Y14259620D01*
X10492030Y14286070D01*
X10503840Y14323130D01*
X10495970Y14360160D01*
X10476280Y14391910D01*
X10440840Y14413090D01*
X10393600Y14423670D01*
X10366040Y14444830D01*
X10354230Y14481870D01*
X10362110Y14518920D01*
X10381790Y14545370D01*
X10409350Y14561250D01*
X10436910D01*
X10464470Y14550670D01*
X10488090Y14524210D01*
G01X2153460Y14085000D02*
Y8370000D01*
G01X2145590Y14893750D02*
Y15211250D01*
X2224320D01*
X2255820Y15195370D01*
X2279440Y15174210D01*
X2299130Y15142460D01*
X2314880Y15105410D01*
X2318810Y15052500D01*
X2314880Y14999580D01*
X2299130Y14962540D01*
X2279440Y14930780D01*
X2255820Y14909620D01*
X2224320Y14893750D01*
X2145590D01*
G01X2468420D02*
Y15211250D01*
X2566840D01*
X2598340Y15195370D01*
X2618030Y15174210D01*
X2625900Y15131870D01*
X2618030Y15089540D01*
X2594400Y15063090D01*
X2566840Y15047200D01*
X2468420D01*
G01X2566840D02*
X2625900Y14893750D01*
G01X2814880Y15211250D02*
X2909360D01*
G01X2862120D02*
Y14893750D01*
G01X2814880D02*
X2909360D01*
G01X3098340Y15211250D02*
Y14893750D01*
X3255820D01*
G01X3413300Y15211250D02*
Y14893750D01*
X3570780D01*
G01X4208570Y15184790D02*
X4184950Y15200670D01*
X4157400Y15211250D01*
X4125900D01*
X4090460Y15195370D01*
X4062910Y15168920D01*
X4043220Y15137160D01*
X4027470Y15084250D01*
X4023530Y15036620D01*
X4031410Y14989000D01*
X4043220Y14957250D01*
X4066840Y14925490D01*
X4094400Y14904330D01*
X4121960Y14893750D01*
X4149520D01*
X4177080Y14904330D01*
X4200700Y14920200D01*
X4220390Y14941360D01*
G01X4354240Y14893750D02*
Y15211250D01*
G01X4519600D02*
Y14893750D01*
G01Y15052500D02*
X4354240D01*
G01X4653450Y14893750D02*
X4751880Y15211250D01*
X4850310Y14893750D01*
G01X4814870Y15004870D02*
X4688880D01*
G01X4988100Y14893750D02*
Y15211250D01*
X5086520D01*
X5118020Y15195370D01*
X5137710Y15174210D01*
X5145580Y15131870D01*
X5137710Y15089540D01*
X5114080Y15063090D01*
X5086520Y15047200D01*
X4988100D01*
G01X5086520D02*
X5145580Y14893750D01*
G01X5381800Y15211250D02*
Y14893750D01*
G01X5291250Y15211250D02*
X5472350D01*
G01X5696760Y14883170D02*
X5688880Y14888460D01*
Y14899040D01*
X5696760Y14904330D01*
X5704640Y14899040D01*
Y14888460D01*
X5696760Y14883170D01*
G01Y15026030D02*
X5688880Y15031330D01*
Y15041910D01*
X5696760Y15047200D01*
X5704640Y15041910D01*
Y15031330D01*
X5696760Y15026030D01*
G01X6326680Y15211250D02*
Y14893750D01*
G01X6236130Y15211250D02*
X6417230D01*
G01X6641640Y14893750D02*
X6610140Y14899040D01*
X6582590Y14920200D01*
X6558960Y14951960D01*
X6543210Y14989000D01*
X6535340Y15031330D01*
Y15073670D01*
X6543210Y15116000D01*
X6558960Y15153040D01*
X6582590Y15184790D01*
X6610140Y15205960D01*
X6641640Y15211250D01*
X6673130Y15205960D01*
X6700690Y15184790D01*
X6724320Y15153040D01*
X6740070Y15116000D01*
X6747940Y15073670D01*
Y15031330D01*
X6740070Y14989000D01*
X6724320Y14951960D01*
X6700690Y14920200D01*
X6673130Y14899040D01*
X6641640Y14893750D01*
G01X6877860D02*
Y15211250D01*
X6972350D01*
X7003840Y15195370D01*
X7027470Y15158330D01*
X7035340Y15116000D01*
X7027470Y15073670D01*
X7007780Y15041910D01*
X6972350Y15026030D01*
X6877860D01*
G01X7586520Y15211250D02*
Y14893750D01*
G01X7531400Y15105410D02*
X7641640D01*
G01X7901480Y14893750D02*
X7877860Y14899040D01*
X7854240Y14920200D01*
X7838480Y14957250D01*
X7830610Y14999580D01*
X7838480Y15041910D01*
X7854240Y15078960D01*
X7877860Y15100120D01*
X7901480Y15105410D01*
X7925100Y15100120D01*
X7948720Y15078960D01*
X7964470Y15041910D01*
X7968410Y14999580D01*
X7964470Y14957250D01*
X7948720Y14920200D01*
X7925100Y14899040D01*
X7901480Y14893750D01*
G01X8562890Y15063090D02*
X8578640Y15078960D01*
X8590450Y15105410D01*
X8598330Y15142460D01*
X8590450Y15174210D01*
X8574710Y15195370D01*
X8547150Y15211250D01*
X8440850D01*
Y14893750D01*
X8570770D01*
X8598330Y14914910D01*
X8614080Y14946670D01*
X8621950Y14983710D01*
X8614080Y15020740D01*
X8590450Y15052500D01*
X8562890Y15063090D01*
X8440850D01*
G01X8846360Y14893750D02*
X8814860Y14899040D01*
X8787310Y14920200D01*
X8763680Y14951960D01*
X8747930Y14989000D01*
X8740060Y15031330D01*
Y15073670D01*
X8747930Y15116000D01*
X8763680Y15153040D01*
X8787310Y15184790D01*
X8814860Y15205960D01*
X8846360Y15211250D01*
X8877850Y15205960D01*
X8905410Y15184790D01*
X8929040Y15153040D01*
X8944790Y15116000D01*
X8952660Y15073670D01*
Y15031330D01*
X8944790Y14989000D01*
X8929040Y14951960D01*
X8905410Y14920200D01*
X8877850Y14899040D01*
X8846360Y14893750D01*
G01X9161320Y15211250D02*
Y14893750D01*
G01X9070770Y15211250D02*
X9251870D01*
G01X9476280D02*
Y14893750D01*
G01X9385730Y15211250D02*
X9566830D01*
G01X9791240Y14893750D02*
X9759740Y14899040D01*
X9732190Y14920200D01*
X9708560Y14951960D01*
X9692810Y14989000D01*
X9684940Y15031330D01*
Y15073670D01*
X9692810Y15116000D01*
X9708560Y15153040D01*
X9732190Y15184790D01*
X9759740Y15205960D01*
X9791240Y15211250D01*
X9822730Y15205960D01*
X9850290Y15184790D01*
X9873920Y15153040D01*
X9889670Y15116000D01*
X9897540Y15073670D01*
Y15031330D01*
X9889670Y14989000D01*
X9873920Y14951960D01*
X9850290Y14920200D01*
X9822730Y14899040D01*
X9791240Y14893750D01*
G01X10003830D02*
Y15211250D01*
X10106200Y14946670D01*
X10208570Y15211250D01*
Y14893750D01*
G01X2747940Y13608750D02*
Y13926250D01*
X2897560D01*
G01X2842430Y13772800D02*
X2747940D01*
G01X3090470Y13926250D02*
X3184950D01*
G01X3137710D02*
Y13608750D01*
G01X3090470D02*
X3184950D01*
G01X3362120D02*
Y13926250D01*
X3543220Y13608750D01*
Y13926250D01*
G01X3720390D02*
X3814870D01*
G01X3767630D02*
Y13608750D01*
G01X3720390D02*
X3814870D01*
G01X3999910Y13651070D02*
X4031410Y13624620D01*
X4066840Y13608750D01*
X4098340D01*
X4129830Y13624620D01*
X4153460Y13651070D01*
X4165270Y13688130D01*
X4157400Y13725160D01*
X4137710Y13756910D01*
X4102270Y13778090D01*
X4055030Y13788670D01*
X4027470Y13809830D01*
X4015660Y13846870D01*
X4023540Y13883920D01*
X4043220Y13910370D01*
X4070780Y13926250D01*
X4098340D01*
X4125900Y13915670D01*
X4149520Y13889210D01*
G01X4314870Y13608750D02*
Y13926250D01*
G01X4480230D02*
Y13608750D01*
G01Y13767500D02*
X4314870D01*
G01X4791250Y13608750D02*
X4633770D01*
Y13926250D01*
X4791250D01*
G01X4728260Y13772800D02*
X4633770D01*
G01X4940860Y13608750D02*
Y13926250D01*
X5019590D01*
X5051090Y13910370D01*
X5074710Y13889210D01*
X5094400Y13857460D01*
X5110150Y13820410D01*
X5114080Y13767500D01*
X5110150Y13714580D01*
X5094400Y13677540D01*
X5074710Y13645780D01*
X5051090Y13624620D01*
X5019590Y13608750D01*
X4940860D01*
G01X5224320Y13502920D02*
X5460540D01*
G01X5574710Y13651070D02*
X5606210Y13624620D01*
X5641640Y13608750D01*
X5673140D01*
X5704630Y13624620D01*
X5728260Y13651070D01*
X5740070Y13688130D01*
X5732200Y13725160D01*
X5712510Y13756910D01*
X5677070Y13778090D01*
X5629830Y13788670D01*
X5602270Y13809830D01*
X5590460Y13846870D01*
X5598340Y13883920D01*
X5618020Y13910370D01*
X5645580Y13926250D01*
X5673140D01*
X5700700Y13915670D01*
X5724320Y13889210D01*
G01X5925110Y13926250D02*
X6019590D01*
G01X5972350D02*
Y13608750D01*
G01X5925110D02*
X6019590D01*
G01X6212500Y13926250D02*
X6362120D01*
X6212500Y13608750D01*
X6362120D01*
G01X6681010D02*
X6523530D01*
Y13926250D01*
X6681010D01*
G01X6618020Y13772800D02*
X6523530D01*
G01X4397550Y8846250D02*
X4366050Y8835670D01*
X4342430Y8809210D01*
X4326680Y8777460D01*
X4314870Y8735120D01*
X4310940Y8687500D01*
X4314870Y8639870D01*
X4326680Y8597540D01*
X4342430Y8565780D01*
X4366050Y8539330D01*
X4397550Y8528750D01*
X4429040Y8539330D01*
X4452670Y8565780D01*
X4468420Y8597540D01*
X4480230Y8639870D01*
X4484160Y8687500D01*
X4480230Y8735120D01*
X4468420Y8777460D01*
X4452670Y8809210D01*
X4429040Y8835670D01*
X4397550Y8846250D01*
G01X4712510Y8518170D02*
X4704630Y8523460D01*
Y8534040D01*
X4712510Y8539330D01*
X4720390Y8534040D01*
Y8523460D01*
X4712510Y8518170D01*
G01X4952660Y8661030D02*
X4980230Y8698090D01*
X5003850Y8719250D01*
X5035350Y8729830D01*
X5062910Y8719250D01*
X5082590Y8698090D01*
X5098340Y8666330D01*
X5102280Y8629290D01*
X5098340Y8597540D01*
X5082590Y8565780D01*
X5058960Y8539330D01*
X5031410Y8528750D01*
X4999910Y8539330D01*
X4972350Y8571070D01*
X4956600Y8618710D01*
X4952660Y8671620D01*
X4960540Y8740410D01*
X4972350Y8777460D01*
X4992030Y8814500D01*
X5019590Y8840960D01*
X5047150Y8846250D01*
X5074710Y8835670D01*
X5094400Y8809210D01*
G01X4397550Y9163750D02*
Y9481250D01*
X4350310Y9417750D01*
G01Y9163750D02*
X4444790D01*
G01X4712510Y9153170D02*
X4704630Y9158460D01*
Y9169040D01*
X4712510Y9174330D01*
X4720390Y9169040D01*
Y9158460D01*
X4712510Y9153170D01*
G01X4952660Y9296030D02*
X4980230Y9333090D01*
X5003850Y9354250D01*
X5035350Y9364830D01*
X5062910Y9354250D01*
X5082590Y9333090D01*
X5098340Y9301330D01*
X5102280Y9264290D01*
X5098340Y9232540D01*
X5082590Y9200780D01*
X5058960Y9174330D01*
X5031410Y9163750D01*
X4999910Y9174330D01*
X4972350Y9206070D01*
X4956600Y9253710D01*
X4952660Y9306620D01*
X4960540Y9375410D01*
X4972350Y9412460D01*
X4992030Y9449500D01*
X5019590Y9475960D01*
X5047150Y9481250D01*
X5074710Y9470670D01*
X5094400Y9444210D01*
G01X4397550Y9798750D02*
Y10116250D01*
X4350310Y10052750D01*
G01Y9798750D02*
X4444790D01*
G01X4712510Y9788170D02*
X4704630Y9793460D01*
Y9804040D01*
X4712510Y9809330D01*
X4720390Y9804040D01*
Y9793460D01*
X4712510Y9788170D01*
G01X4952660Y9931030D02*
X4980230Y9968090D01*
X5003850Y9989250D01*
X5035350Y9999830D01*
X5062910Y9989250D01*
X5082590Y9968090D01*
X5098340Y9936330D01*
X5102280Y9899290D01*
X5098340Y9867540D01*
X5082590Y9835780D01*
X5058960Y9809330D01*
X5031410Y9798750D01*
X4999910Y9809330D01*
X4972350Y9841070D01*
X4956600Y9888710D01*
X4952660Y9941620D01*
X4960540Y10010410D01*
X4972350Y10047460D01*
X4992030Y10084500D01*
X5019590Y10110960D01*
X5047150Y10116250D01*
X5074710Y10105670D01*
X5094400Y10079210D01*
G01X4397550Y10433750D02*
Y10751250D01*
X4350310Y10687750D01*
G01Y10433750D02*
X4444790D01*
G01X4712510Y10423170D02*
X4704630Y10428460D01*
Y10439040D01*
X4712510Y10444330D01*
X4720390Y10439040D01*
Y10428460D01*
X4712510Y10423170D01*
G01X4952660Y10698330D02*
X4976290Y10730080D01*
X5003850Y10745960D01*
X5035350Y10751250D01*
X5074710Y10740670D01*
X5102280Y10714210D01*
X5110150Y10682460D01*
X5106210Y10650700D01*
X5090460Y10624250D01*
X5011720Y10571330D01*
X4976290Y10534290D01*
X4952660Y10481360D01*
X4944790Y10433750D01*
X5110150D01*
G01X4397550Y11068750D02*
Y11386250D01*
X4350310Y11322750D01*
G01Y11068750D02*
X4444790D01*
G01X4712510Y11058170D02*
X4704630Y11063460D01*
Y11074040D01*
X4712510Y11079330D01*
X4720390Y11074040D01*
Y11063460D01*
X4712510Y11058170D01*
G01X4952660Y11333330D02*
X4976290Y11365080D01*
X5003850Y11380960D01*
X5035350Y11386250D01*
X5074710Y11375670D01*
X5102280Y11349210D01*
X5110150Y11317460D01*
X5106210Y11285700D01*
X5090460Y11259250D01*
X5011720Y11206330D01*
X4976290Y11169290D01*
X4952660Y11116360D01*
X4944790Y11068750D01*
X5110150D01*
G01X4397550Y11703750D02*
Y12021250D01*
X4350310Y11957750D01*
G01Y11703750D02*
X4444790D01*
G01X4712510Y11693170D02*
X4704630Y11698460D01*
Y11709040D01*
X4712510Y11714330D01*
X4720390Y11709040D01*
Y11698460D01*
X4712510Y11693170D01*
G01X5027470Y12021250D02*
X4995970Y12010670D01*
X4972350Y11984210D01*
X4956600Y11952460D01*
X4944790Y11910120D01*
X4940860Y11862500D01*
X4944790Y11814870D01*
X4956600Y11772540D01*
X4972350Y11740780D01*
X4995970Y11714330D01*
X5027470Y11703750D01*
X5058960Y11714330D01*
X5082590Y11740780D01*
X5098340Y11772540D01*
X5110150Y11814870D01*
X5114080Y11862500D01*
X5110150Y11910120D01*
X5098340Y11952460D01*
X5082590Y11984210D01*
X5058960Y12010670D01*
X5027470Y12021250D01*
G01X4397550Y12656250D02*
X4366050Y12645670D01*
X4342430Y12619210D01*
X4326680Y12587460D01*
X4314870Y12545120D01*
X4310940Y12497500D01*
X4314870Y12449870D01*
X4326680Y12407540D01*
X4342430Y12375780D01*
X4366050Y12349330D01*
X4397550Y12338750D01*
X4429040Y12349330D01*
X4452670Y12375780D01*
X4468420Y12407540D01*
X4480230Y12449870D01*
X4484160Y12497500D01*
X4480230Y12545120D01*
X4468420Y12587460D01*
X4452670Y12619210D01*
X4429040Y12645670D01*
X4397550Y12656250D01*
G01X4712510Y12328170D02*
X4704630Y12333460D01*
Y12344040D01*
X4712510Y12349330D01*
X4720390Y12344040D01*
Y12333460D01*
X4712510Y12328170D01*
G01X4940860Y12386360D02*
X4964470Y12359910D01*
X4992030Y12344040D01*
X5027470Y12338750D01*
X5062910Y12349330D01*
X5090460Y12370490D01*
X5110150Y12407540D01*
X5114080Y12449870D01*
X5106210Y12492200D01*
X5086520Y12518670D01*
X5058960Y12539830D01*
X5031410Y12545120D01*
X5003850Y12539830D01*
X4968420Y12518670D01*
X4980230Y12656250D01*
X5086520D01*
G01X4397550Y13291250D02*
X4366050Y13280670D01*
X4342430Y13254210D01*
X4326680Y13222460D01*
X4314870Y13180120D01*
X4310940Y13132500D01*
X4314870Y13084870D01*
X4326680Y13042540D01*
X4342430Y13010780D01*
X4366050Y12984330D01*
X4397550Y12973750D01*
X4429040Y12984330D01*
X4452670Y13010780D01*
X4468420Y13042540D01*
X4480230Y13084870D01*
X4484160Y13132500D01*
X4480230Y13180120D01*
X4468420Y13222460D01*
X4452670Y13254210D01*
X4429040Y13280670D01*
X4397550Y13291250D01*
G01X4712510Y12963170D02*
X4704630Y12968460D01*
Y12979040D01*
X4712510Y12984330D01*
X4720390Y12979040D01*
Y12968460D01*
X4712510Y12963170D01*
G01X4940860Y13037250D02*
X4964470Y13000200D01*
X4995970Y12979040D01*
X5031410Y12973750D01*
X5062910Y12979040D01*
X5094400Y13005490D01*
X5114080Y13037250D01*
X5118020Y13069000D01*
X5110150Y13106030D01*
X5082590Y13132500D01*
X5055030Y13143090D01*
X5019590D01*
G01X5055030D02*
X5078650Y13158960D01*
X5098340Y13185410D01*
X5106210Y13217160D01*
X5098340Y13248920D01*
X5078650Y13275370D01*
X5043220Y13291250D01*
X5007790Y13285960D01*
X4972350Y13264790D01*
G01X7271560Y14085000D02*
Y8370000D01*
G01X7377860Y8528750D02*
Y8846250D01*
X7558960Y8528750D01*
Y8846250D01*
G01X7783370Y8528750D02*
X7751870Y8534040D01*
X7724320Y8555200D01*
X7700690Y8586960D01*
X7684940Y8624000D01*
X7677070Y8666330D01*
Y8708670D01*
X7684940Y8751000D01*
X7700690Y8788040D01*
X7724320Y8819790D01*
X7751870Y8840960D01*
X7783370Y8846250D01*
X7814860Y8840960D01*
X7842420Y8819790D01*
X7866050Y8788040D01*
X7881800Y8751000D01*
X7889670Y8708670D01*
Y8666330D01*
X7881800Y8624000D01*
X7866050Y8586960D01*
X7842420Y8555200D01*
X7814860Y8534040D01*
X7783370Y8528750D01*
G01X8007780D02*
Y8846250D01*
X8188880Y8528750D01*
Y8846250D01*
G01X8362110Y8634580D02*
X8464470D01*
G01X8649510Y8528750D02*
Y8846250D01*
X8744000D01*
X8775490Y8830370D01*
X8799120Y8793330D01*
X8806990Y8751000D01*
X8799120Y8708670D01*
X8779430Y8676910D01*
X8744000Y8661030D01*
X8649510D01*
G01X8964470Y8846250D02*
Y8528750D01*
X9121950D01*
G01X9259740D02*
X9358170Y8846250D01*
X9456600Y8528750D01*
G01X9421160Y8639870D02*
X9295170D01*
G01X9673130Y8846250D02*
Y8528750D01*
G01X9582580Y8846250D02*
X9763680D01*
G01X10066830Y8528750D02*
X9909350D01*
Y8846250D01*
X10066830D01*
G01X10003840Y8692800D02*
X9909350D01*
G01X10216440Y8528750D02*
Y8846250D01*
X10295170D01*
X10326670Y8830370D01*
X10350290Y8809210D01*
X10369980Y8777460D01*
X10385730Y8740410D01*
X10389660Y8687500D01*
X10385730Y8634580D01*
X10369980Y8597540D01*
X10350290Y8565780D01*
X10326670Y8544620D01*
X10295170Y8528750D01*
X10216440D01*
G01X8019590Y9163750D02*
Y9481250D01*
X8114080D01*
X8145570Y9465370D01*
X8169200Y9428330D01*
X8177070Y9386000D01*
X8169200Y9343670D01*
X8149510Y9311910D01*
X8114080Y9296030D01*
X8019590D01*
G01X8334550Y9481250D02*
Y9163750D01*
X8492030D01*
G01X8629820D02*
X8728250Y9481250D01*
X8826680Y9163750D01*
G01X8791240Y9274870D02*
X8665250D01*
G01X9043210Y9481250D02*
Y9163750D01*
G01X8952660Y9481250D02*
X9133760D01*
G01X9436910Y9163750D02*
X9279430D01*
Y9481250D01*
X9436910D01*
G01X9373920Y9327800D02*
X9279430D01*
G01X9586520Y9163750D02*
Y9481250D01*
X9665250D01*
X9696750Y9465370D01*
X9720370Y9444210D01*
X9740060Y9412460D01*
X9755810Y9375410D01*
X9759740Y9322500D01*
X9755810Y9269580D01*
X9740060Y9232540D01*
X9720370Y9200780D01*
X9696750Y9179620D01*
X9665250Y9163750D01*
X9586520D01*
G01X8019590Y9798750D02*
Y10116250D01*
X8114080D01*
X8145570Y10100370D01*
X8169200Y10063330D01*
X8177070Y10021000D01*
X8169200Y9978670D01*
X8149510Y9946910D01*
X8114080Y9931030D01*
X8019590D01*
G01X8334550Y10116250D02*
Y9798750D01*
X8492030D01*
G01X8629820D02*
X8728250Y10116250D01*
X8826680Y9798750D01*
G01X8791240Y9909870D02*
X8665250D01*
G01X9043210Y10116250D02*
Y9798750D01*
G01X8952660Y10116250D02*
X9133760D01*
G01X9436910Y9798750D02*
X9279430D01*
Y10116250D01*
X9436910D01*
G01X9373920Y9962800D02*
X9279430D01*
G01X9586520Y9798750D02*
Y10116250D01*
X9665250D01*
X9696750Y10100370D01*
X9720370Y10079210D01*
X9740060Y10047460D01*
X9755810Y10010410D01*
X9759740Y9957500D01*
X9755810Y9904580D01*
X9740060Y9867540D01*
X9720370Y9835780D01*
X9696750Y9814620D01*
X9665250Y9798750D01*
X9586520D01*
G01X8019590Y10433750D02*
Y10751250D01*
X8114080D01*
X8145570Y10735370D01*
X8169200Y10698330D01*
X8177070Y10656000D01*
X8169200Y10613670D01*
X8149510Y10581910D01*
X8114080Y10566030D01*
X8019590D01*
G01X8334550Y10751250D02*
Y10433750D01*
X8492030D01*
G01X8629820D02*
X8728250Y10751250D01*
X8826680Y10433750D01*
G01X8791240Y10544870D02*
X8665250D01*
G01X9043210Y10751250D02*
Y10433750D01*
G01X8952660Y10751250D02*
X9133760D01*
G01X9436910Y10433750D02*
X9279430D01*
Y10751250D01*
X9436910D01*
G01X9373920Y10597800D02*
X9279430D01*
G01X9586520Y10433750D02*
Y10751250D01*
X9665250D01*
X9696750Y10735370D01*
X9720370Y10714210D01*
X9740060Y10682460D01*
X9755810Y10645410D01*
X9759740Y10592500D01*
X9755810Y10539580D01*
X9740060Y10502540D01*
X9720370Y10470780D01*
X9696750Y10449620D01*
X9665250Y10433750D01*
X9586520D01*
G01X8019590Y11068750D02*
Y11386250D01*
X8114080D01*
X8145570Y11370370D01*
X8169200Y11333330D01*
X8177070Y11291000D01*
X8169200Y11248670D01*
X8149510Y11216910D01*
X8114080Y11201030D01*
X8019590D01*
G01X8334550Y11386250D02*
Y11068750D01*
X8492030D01*
G01X8629820D02*
X8728250Y11386250D01*
X8826680Y11068750D01*
G01X8791240Y11179870D02*
X8665250D01*
G01X9043210Y11386250D02*
Y11068750D01*
G01X8952660Y11386250D02*
X9133760D01*
G01X9436910Y11068750D02*
X9279430D01*
Y11386250D01*
X9436910D01*
G01X9373920Y11232800D02*
X9279430D01*
G01X9586520Y11068750D02*
Y11386250D01*
X9665250D01*
X9696750Y11370370D01*
X9720370Y11349210D01*
X9740060Y11317460D01*
X9755810Y11280410D01*
X9759740Y11227500D01*
X9755810Y11174580D01*
X9740060Y11137540D01*
X9720370Y11105780D01*
X9696750Y11084620D01*
X9665250Y11068750D01*
X9586520D01*
G01X8019590Y11703750D02*
Y12021250D01*
X8114080D01*
X8145570Y12005370D01*
X8169200Y11968330D01*
X8177070Y11926000D01*
X8169200Y11883670D01*
X8149510Y11851910D01*
X8114080Y11836030D01*
X8019590D01*
G01X8334550Y12021250D02*
Y11703750D01*
X8492030D01*
G01X8629820D02*
X8728250Y12021250D01*
X8826680Y11703750D01*
G01X8791240Y11814870D02*
X8665250D01*
G01X9043210Y12021250D02*
Y11703750D01*
G01X8952660Y12021250D02*
X9133760D01*
G01X9436910Y11703750D02*
X9279430D01*
Y12021250D01*
X9436910D01*
G01X9373920Y11867800D02*
X9279430D01*
G01X9586520Y11703750D02*
Y12021250D01*
X9665250D01*
X9696750Y12005370D01*
X9720370Y11984210D01*
X9740060Y11952460D01*
X9755810Y11915410D01*
X9759740Y11862500D01*
X9755810Y11809580D01*
X9740060Y11772540D01*
X9720370Y11740780D01*
X9696750Y11719620D01*
X9665250Y11703750D01*
X9586520D01*
G01X8019590Y12338750D02*
Y12656250D01*
X8114080D01*
X8145570Y12640370D01*
X8169200Y12603330D01*
X8177070Y12561000D01*
X8169200Y12518670D01*
X8149510Y12486910D01*
X8114080Y12471030D01*
X8019590D01*
G01X8334550Y12656250D02*
Y12338750D01*
X8492030D01*
G01X8629820D02*
X8728250Y12656250D01*
X8826680Y12338750D01*
G01X8791240Y12449870D02*
X8665250D01*
G01X9043210Y12656250D02*
Y12338750D01*
G01X8952660Y12656250D02*
X9133760D01*
G01X9436910Y12338750D02*
X9279430D01*
Y12656250D01*
X9436910D01*
G01X9373920Y12502800D02*
X9279430D01*
G01X9586520Y12338750D02*
Y12656250D01*
X9665250D01*
X9696750Y12640370D01*
X9720370Y12619210D01*
X9740060Y12587460D01*
X9755810Y12550410D01*
X9759740Y12497500D01*
X9755810Y12444580D01*
X9740060Y12407540D01*
X9720370Y12375780D01*
X9696750Y12354620D01*
X9665250Y12338750D01*
X9586520D01*
G01X8019590Y12973750D02*
Y13291250D01*
X8114080D01*
X8145570Y13275370D01*
X8169200Y13238330D01*
X8177070Y13196000D01*
X8169200Y13153670D01*
X8149510Y13121910D01*
X8114080Y13106030D01*
X8019590D01*
G01X8334550Y13291250D02*
Y12973750D01*
X8492030D01*
G01X8629820D02*
X8728250Y13291250D01*
X8826680Y12973750D01*
G01X8791240Y13084870D02*
X8665250D01*
G01X9043210Y13291250D02*
Y12973750D01*
G01X8952660Y13291250D02*
X9133760D01*
G01X9436910Y12973750D02*
X9279430D01*
Y13291250D01*
X9436910D01*
G01X9373920Y13137800D02*
X9279430D01*
G01X9586520Y12973750D02*
Y13291250D01*
X9665250D01*
X9696750Y13275370D01*
X9720370Y13254210D01*
X9740060Y13222460D01*
X9755810Y13185410D01*
X9759740Y13132500D01*
X9755810Y13079580D01*
X9740060Y13042540D01*
X9720370Y13010780D01*
X9696750Y12989620D01*
X9665250Y12973750D01*
X9586520D01*
G01X8019590Y13608750D02*
Y13926250D01*
X8114080D01*
X8145570Y13910370D01*
X8169200Y13873330D01*
X8177070Y13831000D01*
X8169200Y13788670D01*
X8149510Y13756910D01*
X8114080Y13741030D01*
X8019590D01*
G01X8334550Y13926250D02*
Y13608750D01*
X8492030D01*
G01X8629820D02*
X8728250Y13926250D01*
X8826680Y13608750D01*
G01X8791240Y13719870D02*
X8665250D01*
G01X9043210Y13926250D02*
Y13608750D01*
G01X8952660Y13926250D02*
X9133760D01*
G01X9436910Y13608750D02*
X9279430D01*
Y13926250D01*
X9436910D01*
G01X9373920Y13772800D02*
X9279430D01*
G01X9586520Y13608750D02*
Y13926250D01*
X9665250D01*
X9696750Y13910370D01*
X9720370Y13889210D01*
X9740060Y13857460D01*
X9755810Y13820410D01*
X9759740Y13767500D01*
X9755810Y13714580D01*
X9740060Y13677540D01*
X9720370Y13645780D01*
X9696750Y13624620D01*
X9665250Y13608750D01*
X9586520D01*
G01X10499900Y14085000D02*
Y8370000D01*
G01X11169190Y12973750D02*
Y13291250D01*
X11121950Y13227750D01*
G01Y12973750D02*
X11216430D01*
G01X11397540Y13037250D02*
X11421150Y13000200D01*
X11452650Y12979040D01*
X11488090Y12973750D01*
X11519590Y12979040D01*
X11551080Y13005490D01*
X11570760Y13037250D01*
X11574700Y13069000D01*
X11566830Y13106030D01*
X11539270Y13132500D01*
X11511710Y13143090D01*
X11476270D01*
G01X11511710D02*
X11535330Y13158960D01*
X11555020Y13185410D01*
X11562890Y13217160D01*
X11555020Y13248920D01*
X11535330Y13275370D01*
X11499900Y13291250D01*
X11464470Y13285960D01*
X11429030Y13264790D01*
G01X11791230Y12973750D02*
X11799110Y13042540D01*
X11810920Y13100740D01*
X11826670Y13153670D01*
X11846350Y13211870D01*
X11877850Y13291250D01*
X11720370D01*
G01X11169190Y13608750D02*
X11137690Y13614040D01*
X11110140Y13635200D01*
X11086510Y13666960D01*
X11070760Y13704000D01*
X11062890Y13746330D01*
Y13788670D01*
X11070760Y13831000D01*
X11086510Y13868040D01*
X11110140Y13899790D01*
X11137690Y13920960D01*
X11169190Y13926250D01*
X11200680Y13920960D01*
X11228240Y13899790D01*
X11251870Y13868040D01*
X11267620Y13831000D01*
X11275490Y13788670D01*
Y13746330D01*
X11267620Y13704000D01*
X11251870Y13666960D01*
X11228240Y13635200D01*
X11200680Y13614040D01*
X11169190Y13608750D01*
G01X11200680Y13693420D02*
X11247930Y13608750D01*
G01X11484150Y13926250D02*
Y13608750D01*
G01X11393600Y13926250D02*
X11574700D01*
G01X11799110Y13608750D02*
Y13751620D01*
X11720370Y13926250D01*
G01X11877850D02*
X11799110Y13751620D01*
G01X11240060Y11767250D02*
X11263670Y11730200D01*
X11295170Y11709040D01*
X11330610Y11703750D01*
X11362110Y11709040D01*
X11393600Y11735490D01*
X11413280Y11767250D01*
X11417220Y11799000D01*
X11409350Y11836030D01*
X11381790Y11862500D01*
X11354230Y11873090D01*
X11318790D01*
G01X11354230D02*
X11377850Y11888960D01*
X11397540Y11915410D01*
X11405410Y11947160D01*
X11397540Y11978920D01*
X11377850Y12005370D01*
X11342420Y12021250D01*
X11306990Y12015960D01*
X11271550Y11994790D01*
G01X11566820Y11968330D02*
X11590450Y12000080D01*
X11618010Y12015960D01*
X11649510Y12021250D01*
X11688870Y12010670D01*
X11716440Y11984210D01*
X11724310Y11952460D01*
X11720370Y11920700D01*
X11704620Y11894250D01*
X11625880Y11841330D01*
X11590450Y11804290D01*
X11566820Y11751360D01*
X11558950Y11703750D01*
X11724310D01*
G01X11409340Y8793330D02*
X11432970Y8825080D01*
X11460530Y8840960D01*
X11492030Y8846250D01*
X11531390Y8835670D01*
X11558960Y8809210D01*
X11566830Y8777460D01*
X11562890Y8745700D01*
X11547140Y8719250D01*
X11468400Y8666330D01*
X11432970Y8629290D01*
X11409340Y8576360D01*
X11401470Y8528750D01*
X11566830D01*
G01X11484150Y9163750D02*
Y9481250D01*
X11436910Y9417750D01*
G01Y9163750D02*
X11531390D01*
G01X11484150Y9798750D02*
Y10116250D01*
X11436910Y10052750D01*
G01Y9798750D02*
X11531390D01*
G01X11484150Y10433750D02*
Y10751250D01*
X11436910Y10687750D01*
G01Y10433750D02*
X11531390D01*
G01X11484150Y11068750D02*
Y11386250D01*
X11436910Y11322750D01*
G01Y11068750D02*
X11531390D01*
G01Y12338750D02*
Y12656250D01*
X11385720Y12428710D01*
X11582580D01*
M02*
