G04 ================== begin FILE IDENTIFICATION RECORD ==================*
G04 Layout Name:  G:/Work/sh-z-003/design/HW/pcb/sh-z-003_nc.brd*
G04 Film Name:    SILKSCREEN_BOTTOM*
G04 File Format:  Gerber RS274X*
G04 File Origin:  Cadence Allegro 17.2-S007*
G04 Origin Date:  Sun Aug 05 17:11:59 2018*
G04 *
G04 Layer:  ETCH/WIRE*
G04 Layer:  MANUFACTURING/AUTOSILK_BOTTOM*
G04 Layer:  BOARD GEOMETRY/OUTLINE*
G04 Layer:  BOARD GEOMETRY/SILKSCREEN_BOTTOM*
G04 *
G04 Offset:    (0.0000 0.0000)*
G04 Mirror:    No*
G04 Mode:      Positive*
G04 Rotation:  0*
G04 FullContactRelief:  No*
G04 UndefLineWidth:     0.2000*
G04 ================== end FILE IDENTIFICATION RECORD ====================*
%FSLAX25Y25*MOMM*%
%IR0*IPPOS*OFA0.00000B0.00000*MIA0B0*SFA1.00000B1.00000*%
%ADD10C,.1*%
%ADD11C,.2*%
%ADD12C,.15*%
%ADD13C,.25*%
G75*
%LPD*%
G75*
G36*
G01X1018310Y3870000D02*
G03I-58310J0D01*
G37*
G36*
G01X2612800Y4720000D02*
G03I-72800J0D01*
G37*
G54D10*
G01X2890000Y1100000D02*
Y1440000D01*
X3090000D01*
Y1100000D01*
X2890000D01*
G01X2900000Y1080000D02*
X3080000D01*
G54D11*
G01X180000Y2060000D02*
Y1900000D01*
G01X210000Y2080000D02*
Y1880000D01*
X540000D01*
Y2080000D01*
X210000D01*
G01X200000Y2800000D02*
X360000D01*
G01X180000Y2830000D02*
X380000D01*
Y3160000D01*
X180000D01*
Y2830000D01*
G01X190000Y5130000D02*
X350000D01*
G01X170000Y5160000D02*
X370000D01*
Y5490000D01*
X170000D01*
Y5160000D01*
G01X480000Y2660000D02*
Y2400000D01*
X1090000D01*
Y2660000D01*
X480000D01*
G01X450000Y2650000D02*
Y2410000D01*
G01X880000Y5620000D02*
X610000D01*
Y5540000D01*
X550000D01*
Y5070000D01*
X610000D01*
Y4990000D01*
X890000D01*
Y5070000D01*
X950000D01*
Y5540000D01*
X890000D01*
Y5610000D01*
X880000Y5620000D01*
G01X660000Y5260000D02*
X840000D01*
X750000Y5350000D01*
X660000Y5260000D01*
G01X840000Y5360000D02*
X660000D01*
G01X870000Y5660000D02*
X630000D01*
G01X670000Y5840000D02*
X830000D01*
G01X650000Y5870000D02*
X850000D01*
Y6200000D01*
X650000D01*
Y5870000D01*
G01X830000Y2440000D02*
Y2620000D01*
X740000Y2530000D01*
X830000Y2440000D01*
G01X730000Y2620000D02*
Y2440000D01*
G01X1090000Y3900000D02*
X1020000Y3970000D01*
Y4820000D01*
X1280000D01*
Y3900000D01*
X1090000D01*
G01X1110000Y5590000D02*
X1350000D01*
G01X1100000Y5630000D02*
X1370000D01*
Y5710000D01*
X1430000D01*
Y6180000D01*
X1370000D01*
Y6260000D01*
X1090000D01*
Y6180000D01*
X1030000D01*
Y5710000D01*
X1090000D01*
Y5640000D01*
X1100000Y5630000D01*
G01X1320000Y5990000D02*
X1140000D01*
X1230000Y5900000D01*
X1320000Y5990000D01*
G01X1140000Y5890000D02*
X1320000D01*
G01X1610000Y5590000D02*
X1850000D01*
G01X1600000Y5630000D02*
X1870000D01*
Y5710000D01*
X1930000D01*
Y6180000D01*
X1870000D01*
Y6260000D01*
X1590000D01*
Y6180000D01*
X1530000D01*
Y5710000D01*
X1590000D01*
Y5640000D01*
X1600000Y5630000D01*
G01X1820000Y5990000D02*
X1640000D01*
X1730000Y5900000D01*
X1820000Y5990000D01*
G01X1640000Y5890000D02*
X1820000D01*
G01X1860000Y4980000D02*
Y4820000D01*
G01X1890000Y5000000D02*
Y4800000D01*
X2220000D01*
Y5000000D01*
X1890000D01*
G01X2530000Y4560000D02*
X2460000Y4630000D01*
X2070000D01*
Y4050000D01*
X2530000D01*
Y4560000D01*
G01X2840000Y2800000D02*
X2640000D01*
Y2470000D01*
X2840000D01*
Y2800000D01*
G01X2820000Y2830000D02*
X2660000D01*
G01X2920000Y1300000D02*
X3060000D01*
X2990000Y1230000D01*
X2920000Y1300000D01*
G01X3090000Y1860000D02*
X2890000D01*
Y1530000D01*
X3090000D01*
Y1860000D01*
G01X3070000Y1890000D02*
X2910000D01*
G01X2860000Y2440000D02*
X3020000D01*
G01X2840000Y2470000D02*
X3040000D01*
Y2800000D01*
X2840000D01*
Y2470000D01*
G01X3000000Y5100000D02*
Y4940000D01*
G01X3030000Y5120000D02*
Y4920000D01*
X3360000D01*
Y5120000D01*
X3030000D01*
G01X3000000Y5300000D02*
Y5140000D01*
G01X3030000Y5320000D02*
Y5120000D01*
X3360000D01*
Y5320000D01*
X3030000D01*
G01X3000000Y5500000D02*
Y5340000D01*
G01X3030000Y5520000D02*
Y5320000D01*
X3360000D01*
Y5520000D01*
X3030000D01*
G01X3380000Y1060000D02*
X3180000D01*
Y730000D01*
X3380000D01*
Y1060000D01*
G01X3360000Y1090000D02*
X3200000D01*
G01X3390000Y1860000D02*
X3250000D01*
Y1760000D01*
X3210000D01*
Y1480000D01*
X3250000D01*
Y1380000D01*
X3390000D01*
Y1480000D01*
X3430000D01*
Y1760000D01*
X3390000D01*
Y1860000D01*
G01X3240000Y1580000D02*
X3400000D01*
X3320000Y1660000D01*
X3240000Y1580000D01*
G01X3400000Y1670000D02*
X3240000D01*
G01X4690000Y7430000D02*
Y5850000D01*
X3110000D01*
Y7540000D01*
X4690000D01*
Y7430000D01*
G01X3770000Y1860000D02*
X3570000D01*
Y1530000D01*
X3770000D01*
Y1860000D01*
G01X3750000Y1890000D02*
X3590000D01*
G01X3800000Y5620000D02*
X3860000Y5560000D01*
Y5330000D01*
X3550000D01*
Y5620000D01*
X3800000D01*
G01X4450000Y1610000D02*
X3950000D01*
G01X4450000Y1960000D02*
X3950000D01*
G01X4360000Y3560000D02*
Y3760000D01*
X4030000D01*
Y3560000D01*
X4360000D01*
G01X4330000Y5460000D02*
Y5660000D01*
X4000000D01*
Y5460000D01*
X4330000D01*
G01X4390000Y3580000D02*
Y3740000D01*
G01X4360000Y5480000D02*
Y5640000D01*
G01X4670000Y750000D02*
X4830000D01*
G01X4650000Y780000D02*
X4850000D01*
Y1110000D01*
X4650000D01*
Y780000D01*
G01X5730000Y3050000D02*
X4580000D01*
Y1870000D01*
X4730000Y1720000D01*
Y1350000D01*
X5590000D01*
Y1740000D01*
X5750000Y1900000D01*
Y3050000D01*
X5730000D01*
G01X4880000Y5280000D02*
Y5480000D01*
X4550000D01*
Y5280000D01*
X4880000D01*
G01X5090000Y1110000D02*
X4890000D01*
Y780000D01*
X5090000D01*
Y1110000D01*
G01X5070000Y1140000D02*
X4910000D01*
G01Y5300000D02*
Y5460000D01*
G01X4990000Y240000D02*
X5150000D01*
G01X4970000Y270000D02*
X5170000D01*
Y600000D01*
X4970000D01*
Y270000D01*
G01X5330000Y1110000D02*
X5130000D01*
Y780000D01*
X5330000D01*
Y1110000D01*
G01X5310000Y1140000D02*
X5150000D01*
G01X5780000Y1460000D02*
X5980000D01*
Y1790000D01*
X5780000D01*
Y1460000D01*
G01X6410000Y1150000D02*
X6190000D01*
Y740000D01*
X6410000D01*
Y1150000D01*
G01X6050000Y1360000D02*
X6550000D01*
G01X6400000Y1190000D02*
X6200000D01*
G01X6050000Y1710000D02*
X6550000D01*
G01X6440000Y1270000D02*
X6600000D01*
G01X0Y0D02*
X6700000D01*
Y7700000D01*
X0D01*
Y0D01*
G01X376350Y5696420D02*
X386000Y5702770D01*
X397260Y5707000D01*
X410130D01*
X424610Y5700650D01*
X435870Y5690070D01*
X443910Y5677370D01*
X450350Y5656200D01*
X451960Y5637150D01*
X448740Y5618100D01*
X443910Y5605400D01*
X434260Y5592700D01*
X423000Y5584230D01*
X411740Y5580000D01*
X400480D01*
X389220Y5584230D01*
X379570Y5590580D01*
X371520Y5599050D01*
G01X312770Y5685830D02*
X303110Y5698530D01*
X291850Y5704880D01*
X278980Y5707000D01*
X262900Y5702770D01*
X251630Y5692180D01*
X248420Y5679490D01*
X250030Y5666780D01*
X256460Y5656200D01*
X288630Y5635030D01*
X303110Y5620220D01*
X312770Y5599050D01*
X315980Y5580000D01*
X248420D01*
G01X183230Y5632910D02*
X171960Y5647730D01*
X162310Y5656200D01*
X149440Y5660430D01*
X138180Y5656200D01*
X130140Y5647730D01*
X123700Y5635030D01*
X122090Y5620220D01*
X123700Y5607510D01*
X130140Y5594810D01*
X139790Y5584230D01*
X151050Y5580000D01*
X163920Y5584230D01*
X175180Y5596930D01*
X181620Y5615980D01*
X183230Y5637150D01*
X180010Y5664660D01*
X175180Y5679490D01*
X167140Y5694300D01*
X155880Y5704880D01*
X144620Y5707000D01*
X133360Y5702770D01*
X125310Y5692180D01*
G01X843910Y1900000D02*
Y2027000D01*
X803700D01*
X790830Y2020650D01*
X782780Y2012180D01*
X779570Y1995250D01*
X782780Y1978320D01*
X792440Y1967730D01*
X803700Y1961380D01*
X843910D01*
G01X803700D02*
X779570Y1900000D01*
G01X717590Y1919050D02*
X707940Y1908460D01*
X696680Y1902120D01*
X682200Y1900000D01*
X667720Y1904230D01*
X656460Y1912700D01*
X648420Y1927510D01*
X646810Y1944450D01*
X650030Y1961380D01*
X658070Y1971970D01*
X669330Y1980430D01*
X680590Y1982550D01*
X691850Y1980430D01*
X706330Y1971970D01*
X701500Y2027000D01*
X658070D01*
G01X653910Y3100000D02*
Y3227000D01*
X613700D01*
X600830Y3220650D01*
X592780Y3212180D01*
X589570Y3195250D01*
X592780Y3178320D01*
X602440Y3167730D01*
X613700Y3161380D01*
X653910D01*
G01X613700D02*
X589570Y3100000D01*
G01X495420D02*
X492200Y3127510D01*
X487370Y3150800D01*
X480940Y3171970D01*
X472900Y3195250D01*
X460030Y3227000D01*
X524370D01*
G01X833910Y6300000D02*
Y6427000D01*
X793700D01*
X780830Y6420650D01*
X772780Y6412180D01*
X769570Y6395250D01*
X772780Y6378320D01*
X782440Y6367730D01*
X793700Y6361380D01*
X833910D01*
G01X793700D02*
X769570Y6300000D01*
G01X702770Y6405830D02*
X693110Y6418530D01*
X681850Y6424880D01*
X668980Y6427000D01*
X652900Y6422770D01*
X641630Y6412180D01*
X638420Y6399490D01*
X640030Y6386780D01*
X646460Y6376200D01*
X678630Y6355030D01*
X693110Y6340220D01*
X702770Y6319050D01*
X705980Y6300000D01*
X638420D01*
G01X542660D02*
X531400Y6302120D01*
X518530Y6308460D01*
X510490Y6319050D01*
X507270Y6333870D01*
X510490Y6348680D01*
X520140Y6361380D01*
X534620Y6367730D01*
X550700D01*
X560360Y6371970D01*
X568400Y6382550D01*
X571620Y6397370D01*
X566790Y6412180D01*
X555530Y6422770D01*
X542660Y6427000D01*
X529790Y6422770D01*
X518530Y6412180D01*
X513700Y6397370D01*
X516920Y6382550D01*
X524960Y6371970D01*
X534620Y6367730D01*
X550700D01*
X565180Y6361380D01*
X574830Y6348680D01*
X578050Y6333870D01*
X574830Y6319050D01*
X566790Y6308460D01*
X553920Y6302120D01*
X542660Y6300000D01*
G01X937130Y3767000D02*
Y3675980D01*
X930700Y3656930D01*
X917830Y3644230D01*
X901740Y3640000D01*
X885650Y3644230D01*
X872780Y3656930D01*
X866350Y3675980D01*
Y3767000D01*
G01X752900Y3640000D02*
Y3767000D01*
X812420Y3675980D01*
X731980D01*
G01X1347130Y2450000D02*
Y2577000D01*
X1314960D01*
X1302090Y2570650D01*
X1292440Y2562180D01*
X1284390Y2549490D01*
X1277960Y2534660D01*
X1276350Y2513500D01*
X1277960Y2492330D01*
X1284390Y2477510D01*
X1292440Y2464810D01*
X1302090Y2456350D01*
X1314960Y2450000D01*
X1347130D01*
G01X1182200D02*
Y2577000D01*
X1201500Y2551600D01*
G01Y2450000D02*
X1162900D01*
G01X1237130Y5230000D02*
Y5357000D01*
X1204960D01*
X1192090Y5350650D01*
X1182440Y5342180D01*
X1174390Y5329490D01*
X1167960Y5314660D01*
X1166350Y5293500D01*
X1167960Y5272330D01*
X1174390Y5257510D01*
X1182440Y5244810D01*
X1192090Y5236350D01*
X1204960Y5230000D01*
X1237130D01*
G01X1072200D02*
X1060940Y5232120D01*
X1048070Y5238460D01*
X1040030Y5249050D01*
X1036810Y5263870D01*
X1040030Y5278680D01*
X1049680Y5291380D01*
X1064160Y5297730D01*
X1080240D01*
X1089900Y5301970D01*
X1097940Y5312550D01*
X1101160Y5327370D01*
X1096330Y5342180D01*
X1085070Y5352770D01*
X1072200Y5357000D01*
X1059330Y5352770D01*
X1048070Y5342180D01*
X1043240Y5327370D01*
X1046460Y5312550D01*
X1054500Y5301970D01*
X1064160Y5297730D01*
X1080240D01*
X1094720Y5291380D01*
X1104370Y5278680D01*
X1107590Y5263870D01*
X1104370Y5249050D01*
X1096330Y5238460D01*
X1083460Y5232120D01*
X1072200Y5230000D01*
G01X1317130Y6330000D02*
Y6457000D01*
X1284960D01*
X1272090Y6450650D01*
X1262440Y6442180D01*
X1254390Y6429490D01*
X1247960Y6414660D01*
X1246350Y6393500D01*
X1247960Y6372330D01*
X1254390Y6357510D01*
X1262440Y6344810D01*
X1272090Y6336350D01*
X1284960Y6330000D01*
X1317130D01*
G01X1155420D02*
X1152200Y6357510D01*
X1147370Y6380800D01*
X1140940Y6401970D01*
X1132900Y6425250D01*
X1120030Y6457000D01*
X1184370D01*
G01X1817130Y6350000D02*
Y6477000D01*
X1784960D01*
X1772090Y6470650D01*
X1762440Y6462180D01*
X1754390Y6449490D01*
X1747960Y6434660D01*
X1746350Y6413500D01*
X1747960Y6392330D01*
X1754390Y6377510D01*
X1762440Y6364810D01*
X1772090Y6356350D01*
X1784960Y6350000D01*
X1817130D01*
G01X1687590Y6369050D02*
X1677940Y6358460D01*
X1666680Y6352120D01*
X1652200Y6350000D01*
X1637720Y6354230D01*
X1626460Y6362700D01*
X1618420Y6377510D01*
X1616810Y6394450D01*
X1620030Y6411380D01*
X1628070Y6421970D01*
X1639330Y6430430D01*
X1650590Y6432550D01*
X1661850Y6430430D01*
X1676330Y6421970D01*
X1671500Y6477000D01*
X1628070D01*
G01X2147130Y3927000D02*
Y3835980D01*
X2140700Y3816930D01*
X2127830Y3804230D01*
X2111740Y3800000D01*
X2095650Y3804230D01*
X2082780Y3816930D01*
X2076350Y3835980D01*
Y3927000D01*
G01X1982200Y3800000D02*
Y3927000D01*
X2001500Y3901600D01*
G01Y3800000D02*
X1962900D01*
G01X2066350Y5206420D02*
X2076000Y5212770D01*
X2087260Y5217000D01*
X2100130D01*
X2114610Y5210650D01*
X2125870Y5200070D01*
X2133910Y5187370D01*
X2140350Y5166200D01*
X2141960Y5147150D01*
X2138740Y5128100D01*
X2133910Y5115400D01*
X2124260Y5102700D01*
X2113000Y5094230D01*
X2101740Y5090000D01*
X2090480D01*
X2079220Y5094230D01*
X2069570Y5100580D01*
X2061520Y5109050D01*
G01X1972200Y5090000D02*
Y5217000D01*
X1991500Y5191600D01*
G01Y5090000D02*
X1952900D01*
G01X2523910Y2750000D02*
Y2877000D01*
X2483700D01*
X2470830Y2870650D01*
X2462780Y2862180D01*
X2459570Y2845250D01*
X2462780Y2828320D01*
X2472440Y2817730D01*
X2483700Y2811380D01*
X2523910D01*
G01X2483700D02*
X2459570Y2750000D01*
G01X2392770Y2855830D02*
X2383110Y2868530D01*
X2371850Y2874880D01*
X2358980Y2877000D01*
X2342900Y2872770D01*
X2331630Y2862180D01*
X2328420Y2849490D01*
X2330030Y2836780D01*
X2336460Y2826200D01*
X2368630Y2805030D01*
X2383110Y2790220D01*
X2392770Y2769050D01*
X2395980Y2750000D01*
X2328420D01*
G01X2263230Y2855830D02*
X2253570Y2868530D01*
X2242310Y2874880D01*
X2229440Y2877000D01*
X2213360Y2872770D01*
X2202090Y2862180D01*
X2198880Y2849490D01*
X2200490Y2836780D01*
X2206920Y2826200D01*
X2239090Y2805030D01*
X2253570Y2790220D01*
X2263230Y2769050D01*
X2266440Y2750000D01*
X2198880D01*
G01X2777130Y1200000D02*
Y1327000D01*
X2744960D01*
X2732090Y1320650D01*
X2722440Y1312180D01*
X2714390Y1299490D01*
X2707960Y1284660D01*
X2706350Y1263500D01*
X2707960Y1242330D01*
X2714390Y1227510D01*
X2722440Y1214810D01*
X2732090Y1206350D01*
X2744960Y1200000D01*
X2777130D01*
G01X2612200D02*
Y1327000D01*
X2631500Y1301600D01*
G01Y1200000D02*
X2592900D01*
G01X2513230Y1305830D02*
X2503570Y1318530D01*
X2492310Y1324880D01*
X2479440Y1327000D01*
X2463360Y1322770D01*
X2452090Y1312180D01*
X2448880Y1299490D01*
X2450490Y1286780D01*
X2456920Y1276200D01*
X2489090Y1255030D01*
X2503570Y1240220D01*
X2513230Y1219050D01*
X2516440Y1200000D01*
X2448880D01*
G01X3013910Y1930000D02*
Y2057000D01*
X2973700D01*
X2960830Y2050650D01*
X2952780Y2042180D01*
X2949570Y2025250D01*
X2952780Y2008320D01*
X2962440Y1997730D01*
X2973700Y1991380D01*
X3013910D01*
G01X2973700D02*
X2949570Y1930000D01*
G01X2887590Y1955400D02*
X2877940Y1940580D01*
X2865070Y1932120D01*
X2850590Y1930000D01*
X2837720Y1932120D01*
X2824850Y1942700D01*
X2816810Y1955400D01*
X2815200Y1968100D01*
X2818420Y1982910D01*
X2829680Y1993500D01*
X2840940Y1997730D01*
X2855420D01*
G01X2840940D02*
X2831290Y2004080D01*
X2823240Y2014660D01*
X2820030Y2027370D01*
X2823240Y2040070D01*
X2831290Y2050650D01*
X2845770Y2057000D01*
X2860240Y2054880D01*
X2874720Y2046420D01*
G01X2753230Y2035830D02*
X2743570Y2048530D01*
X2732310Y2054880D01*
X2719440Y2057000D01*
X2703360Y2052770D01*
X2692090Y2042180D01*
X2688880Y2029490D01*
X2690490Y2016780D01*
X2696920Y2006200D01*
X2729090Y1985030D01*
X2743570Y1970220D01*
X2753230Y1949050D01*
X2756440Y1930000D01*
X2688880D01*
G01X2943910Y4940000D02*
Y5067000D01*
X2903700D01*
X2890830Y5060650D01*
X2882780Y5052180D01*
X2879570Y5035250D01*
X2882780Y5018320D01*
X2892440Y5007730D01*
X2903700Y5001380D01*
X2943910D01*
G01X2903700D02*
X2879570Y4940000D01*
G01X2782200D02*
Y5067000D01*
X2801500Y5041600D01*
G01Y4940000D02*
X2762900D01*
G01X2652660Y5067000D02*
X2665530Y5062770D01*
X2675180Y5052180D01*
X2681620Y5039490D01*
X2686440Y5022550D01*
X2688050Y5003500D01*
X2686440Y4984450D01*
X2681620Y4967510D01*
X2675180Y4954810D01*
X2665530Y4944230D01*
X2652660Y4940000D01*
X2639790Y4944230D01*
X2630140Y4954810D01*
X2623700Y4967510D01*
X2618880Y4984450D01*
X2617270Y5003500D01*
X2618880Y5022550D01*
X2623700Y5039490D01*
X2630140Y5052180D01*
X2639790Y5062770D01*
X2652660Y5067000D01*
G01X2933910Y5160000D02*
Y5287000D01*
X2893700D01*
X2880830Y5280650D01*
X2872780Y5272180D01*
X2869570Y5255250D01*
X2872780Y5238320D01*
X2882440Y5227730D01*
X2893700Y5221380D01*
X2933910D01*
G01X2893700D02*
X2869570Y5160000D01*
G01X2772200D02*
Y5287000D01*
X2791500Y5261600D01*
G01Y5160000D02*
X2752900D01*
G01X2673230Y5265830D02*
X2663570Y5278530D01*
X2652310Y5284880D01*
X2639440Y5287000D01*
X2623360Y5282770D01*
X2612090Y5272180D01*
X2608880Y5259490D01*
X2610490Y5246780D01*
X2616920Y5236200D01*
X2649090Y5215030D01*
X2663570Y5200220D01*
X2673230Y5179050D01*
X2676440Y5160000D01*
X2608880D01*
G01X2933910Y5350000D02*
Y5477000D01*
X2893700D01*
X2880830Y5470650D01*
X2872780Y5462180D01*
X2869570Y5445250D01*
X2872780Y5428320D01*
X2882440Y5417730D01*
X2893700Y5411380D01*
X2933910D01*
G01X2893700D02*
X2869570Y5350000D01*
G01X2772200D02*
Y5477000D01*
X2791500Y5451600D01*
G01Y5350000D02*
X2752900D01*
G01X2678050Y5375400D02*
X2668400Y5360580D01*
X2655530Y5352120D01*
X2641050Y5350000D01*
X2628180Y5352120D01*
X2615310Y5362700D01*
X2607270Y5375400D01*
X2605660Y5388100D01*
X2608880Y5402910D01*
X2620140Y5413500D01*
X2631400Y5417730D01*
X2645880D01*
G01X2631400D02*
X2621750Y5424080D01*
X2613700Y5434660D01*
X2610490Y5447370D01*
X2613700Y5460070D01*
X2621750Y5470650D01*
X2636230Y5477000D01*
X2650700Y5474880D01*
X2665180Y5466420D01*
G01X2943910Y7055400D02*
X2935870Y7042700D01*
X2926220Y7034230D01*
X2914960Y7030000D01*
X2902090Y7034230D01*
X2892440Y7042700D01*
X2882780Y7055400D01*
X2879570Y7072330D01*
Y7157000D01*
G01X2812770Y7082910D02*
X2801500Y7097730D01*
X2791850Y7106200D01*
X2778980Y7110430D01*
X2767720Y7106200D01*
X2759680Y7097730D01*
X2753240Y7085030D01*
X2751630Y7070220D01*
X2753240Y7057510D01*
X2759680Y7044810D01*
X2769330Y7034230D01*
X2780590Y7030000D01*
X2793460Y7034230D01*
X2804720Y7046930D01*
X2811160Y7065980D01*
X2812770Y7087150D01*
X2809550Y7114660D01*
X2804720Y7129490D01*
X2796680Y7144300D01*
X2785420Y7154880D01*
X2774160Y7157000D01*
X2762900Y7152770D01*
X2754850Y7142180D01*
G01X3233910Y2870000D02*
Y2997000D01*
X3193700D01*
X3180830Y2990650D01*
X3172780Y2982180D01*
X3169570Y2965250D01*
X3172780Y2948320D01*
X3182440Y2937730D01*
X3193700Y2931380D01*
X3233910D01*
G01X3193700D02*
X3169570Y2870000D01*
G01X3072200D02*
Y2997000D01*
X3091500Y2971600D01*
G01Y2870000D02*
X3052900D01*
G01X2945880D02*
X2942660Y2897510D01*
X2937830Y2920800D01*
X2931400Y2941970D01*
X2923360Y2965250D01*
X2910490Y2997000D01*
X2974830D01*
G01X3467130Y2010000D02*
Y2137000D01*
X3434960D01*
X3422090Y2130650D01*
X3412440Y2122180D01*
X3404390Y2109490D01*
X3397960Y2094660D01*
X3396350Y2073500D01*
X3397960Y2052330D01*
X3404390Y2037510D01*
X3412440Y2024810D01*
X3422090Y2016350D01*
X3434960Y2010000D01*
X3467130D01*
G01X3302200D02*
Y2137000D01*
X3321500Y2111600D01*
G01Y2010000D02*
X3282900D01*
G01X3172660D02*
Y2137000D01*
X3191960Y2111600D01*
G01Y2010000D02*
X3153360D01*
G01X3716350Y886420D02*
X3726000Y892770D01*
X3737260Y897000D01*
X3750130D01*
X3764610Y890650D01*
X3775870Y880070D01*
X3783910Y867370D01*
X3790350Y846200D01*
X3791960Y827150D01*
X3788740Y808100D01*
X3783910Y795400D01*
X3774260Y782700D01*
X3763000Y774230D01*
X3751740Y770000D01*
X3740480D01*
X3729220Y774230D01*
X3719570Y780580D01*
X3711520Y789050D01*
G01X3652770Y875830D02*
X3643110Y888530D01*
X3631850Y894880D01*
X3618980Y897000D01*
X3602900Y892770D01*
X3591630Y882180D01*
X3588420Y869490D01*
X3590030Y856780D01*
X3596460Y846200D01*
X3628630Y825030D01*
X3643110Y810220D01*
X3652770Y789050D01*
X3655980Y770000D01*
X3588420D01*
G01X3523230Y875830D02*
X3513570Y888530D01*
X3502310Y894880D01*
X3489440Y897000D01*
X3473360Y892770D01*
X3462090Y882180D01*
X3458880Y869490D01*
X3460490Y856780D01*
X3466920Y846200D01*
X3499090Y825030D01*
X3513570Y810220D01*
X3523230Y789050D01*
X3526440Y770000D01*
X3458880D01*
G01X3696420Y2013650D02*
X3702770Y2004000D01*
X3707000Y1992740D01*
Y1979870D01*
X3700650Y1965390D01*
X3690070Y1954130D01*
X3677370Y1946090D01*
X3656200Y1939650D01*
X3637150Y1938040D01*
X3618100Y1941260D01*
X3605400Y1946090D01*
X3592700Y1955740D01*
X3584230Y1967000D01*
X3580000Y1978260D01*
Y1989520D01*
X3584230Y2000780D01*
X3590580Y2010430D01*
X3599050Y2018480D01*
G01X3580000Y2127100D02*
X3707000D01*
X3615980Y2067580D01*
Y2148020D01*
G01X3580000Y2256640D02*
X3707000D01*
X3615980Y2197120D01*
Y2277560D01*
G01X3787130Y5120000D02*
Y5247000D01*
X3754960D01*
X3742090Y5240650D01*
X3732440Y5232180D01*
X3724390Y5219490D01*
X3717960Y5204660D01*
X3716350Y5183500D01*
X3717960Y5162330D01*
X3724390Y5147510D01*
X3732440Y5134810D01*
X3742090Y5126350D01*
X3754960Y5120000D01*
X3787130D01*
G01X3657590Y5145400D02*
X3647940Y5130580D01*
X3635070Y5122120D01*
X3620590Y5120000D01*
X3607720Y5122120D01*
X3594850Y5132700D01*
X3586810Y5145400D01*
X3585200Y5158100D01*
X3588420Y5172910D01*
X3599680Y5183500D01*
X3610940Y5187730D01*
X3625420D01*
G01X3610940D02*
X3601290Y5194080D01*
X3593240Y5204660D01*
X3590030Y5217370D01*
X3593240Y5230070D01*
X3601290Y5240650D01*
X3615770Y5247000D01*
X3630240Y5244880D01*
X3644720Y5236420D01*
G01X4246350Y2146420D02*
X4256000Y2152770D01*
X4267260Y2157000D01*
X4280130D01*
X4294610Y2150650D01*
X4305870Y2140070D01*
X4313910Y2127370D01*
X4320350Y2106200D01*
X4321960Y2087150D01*
X4318740Y2068100D01*
X4313910Y2055400D01*
X4304260Y2042700D01*
X4293000Y2034230D01*
X4281740Y2030000D01*
X4270480D01*
X4259220Y2034230D01*
X4249570Y2040580D01*
X4241520Y2049050D01*
G01X4187590Y2055400D02*
X4177940Y2040580D01*
X4165070Y2032120D01*
X4150590Y2030000D01*
X4137720Y2032120D01*
X4124850Y2042700D01*
X4116810Y2055400D01*
X4115200Y2068100D01*
X4118420Y2082910D01*
X4129680Y2093500D01*
X4140940Y2097730D01*
X4155420D01*
G01X4140940D02*
X4131290Y2104080D01*
X4123240Y2114660D01*
X4120030Y2127370D01*
X4123240Y2140070D01*
X4131290Y2150650D01*
X4145770Y2157000D01*
X4160240Y2154880D01*
X4174720Y2146420D01*
G01X4025880Y2030000D02*
X4022660Y2057510D01*
X4017830Y2080800D01*
X4011400Y2101970D01*
X4003360Y2125250D01*
X3990490Y2157000D01*
X4054830D01*
G01X4253910Y3830000D02*
Y3957000D01*
X4213700D01*
X4200830Y3950650D01*
X4192780Y3942180D01*
X4189570Y3925250D01*
X4192780Y3908320D01*
X4202440Y3897730D01*
X4213700Y3891380D01*
X4253910D01*
G01X4213700D02*
X4189570Y3830000D01*
G01X4122770Y3935830D02*
X4113110Y3948530D01*
X4101850Y3954880D01*
X4088980Y3957000D01*
X4072900Y3952770D01*
X4061630Y3942180D01*
X4058420Y3929490D01*
X4060030Y3916780D01*
X4066460Y3906200D01*
X4098630Y3885030D01*
X4113110Y3870220D01*
X4122770Y3849050D01*
X4125980Y3830000D01*
X4058420D01*
G01X4276350Y5376420D02*
X4286000Y5382770D01*
X4297260Y5387000D01*
X4310130D01*
X4324610Y5380650D01*
X4335870Y5370070D01*
X4343910Y5357370D01*
X4350350Y5336200D01*
X4351960Y5317150D01*
X4348740Y5298100D01*
X4343910Y5285400D01*
X4334260Y5272700D01*
X4323000Y5264230D01*
X4311740Y5260000D01*
X4300480D01*
X4289220Y5264230D01*
X4279570Y5270580D01*
X4271520Y5279050D01*
G01X4217590Y5285400D02*
X4207940Y5270580D01*
X4195070Y5262120D01*
X4180590Y5260000D01*
X4167720Y5262120D01*
X4154850Y5272700D01*
X4146810Y5285400D01*
X4145200Y5298100D01*
X4148420Y5312910D01*
X4159680Y5323500D01*
X4170940Y5327730D01*
X4185420D01*
G01X4170940D02*
X4161290Y5334080D01*
X4153240Y5344660D01*
X4150030Y5357370D01*
X4153240Y5370070D01*
X4161290Y5380650D01*
X4175770Y5387000D01*
X4190240Y5384880D01*
X4204720Y5376420D01*
G01X4052660Y5387000D02*
X4065530Y5382770D01*
X4075180Y5372180D01*
X4081620Y5359490D01*
X4086440Y5342550D01*
X4088050Y5323500D01*
X4086440Y5304450D01*
X4081620Y5287510D01*
X4075180Y5274810D01*
X4065530Y5264230D01*
X4052660Y5260000D01*
X4039790Y5264230D01*
X4030140Y5274810D01*
X4023700Y5287510D01*
X4018880Y5304450D01*
X4017270Y5323500D01*
X4018880Y5342550D01*
X4023700Y5359490D01*
X4030140Y5372180D01*
X4039790Y5382770D01*
X4052660Y5387000D01*
G01X4573910Y690000D02*
Y817000D01*
X4533700D01*
X4520830Y810650D01*
X4512780Y802180D01*
X4509570Y785250D01*
X4512780Y768320D01*
X4522440Y757730D01*
X4533700Y751380D01*
X4573910D01*
G01X4533700D02*
X4509570Y690000D01*
G01X4447590Y715400D02*
X4437940Y700580D01*
X4425070Y692120D01*
X4410590Y690000D01*
X4397720Y692120D01*
X4384850Y702700D01*
X4376810Y715400D01*
X4375200Y728100D01*
X4378420Y742910D01*
X4389680Y753500D01*
X4400940Y757730D01*
X4415420D01*
G01X4400940D02*
X4391290Y764080D01*
X4383240Y774660D01*
X4380030Y787370D01*
X4383240Y800070D01*
X4391290Y810650D01*
X4405770Y817000D01*
X4420240Y814880D01*
X4434720Y806420D01*
G01X4282660Y817000D02*
X4295530Y812770D01*
X4305180Y802180D01*
X4311620Y789490D01*
X4316440Y772550D01*
X4318050Y753500D01*
X4316440Y734450D01*
X4311620Y717510D01*
X4305180Y704810D01*
X4295530Y694230D01*
X4282660Y690000D01*
X4269790Y694230D01*
X4260140Y704810D01*
X4253700Y717510D01*
X4248880Y734450D01*
X4247270Y753500D01*
X4248880Y772550D01*
X4253700Y789490D01*
X4260140Y802180D01*
X4269790Y812770D01*
X4282660Y817000D01*
G01X4883910Y5090000D02*
Y5217000D01*
X4843700D01*
X4830830Y5210650D01*
X4822780Y5202180D01*
X4819570Y5185250D01*
X4822780Y5168320D01*
X4832440Y5157730D01*
X4843700Y5151380D01*
X4883910D01*
G01X4843700D02*
X4819570Y5090000D01*
G01X4722200D02*
Y5217000D01*
X4741500Y5191600D01*
G01Y5090000D02*
X4702900D01*
G01X4573360D02*
Y5217000D01*
X4632880Y5125980D01*
X4552440D01*
G01X5133910Y1190000D02*
Y1317000D01*
X5093700D01*
X5080830Y1310650D01*
X5072780Y1302180D01*
X5069570Y1285250D01*
X5072780Y1268320D01*
X5082440Y1257730D01*
X5093700Y1251380D01*
X5133910D01*
G01X5093700D02*
X5069570Y1190000D01*
G01X5002770Y1295830D02*
X4993110Y1308530D01*
X4981850Y1314880D01*
X4968980Y1317000D01*
X4952900Y1312770D01*
X4941630Y1302180D01*
X4938420Y1289490D01*
X4940030Y1276780D01*
X4946460Y1266200D01*
X4978630Y1245030D01*
X4993110Y1230220D01*
X5002770Y1209050D01*
X5005980Y1190000D01*
X4938420D01*
G01X4870010Y1204810D02*
X4858750Y1194230D01*
X4845880Y1190000D01*
X4833010Y1194230D01*
X4821750Y1206930D01*
X4813700Y1225980D01*
X4810490Y1245030D01*
Y1268320D01*
X4813700Y1287370D01*
X4821750Y1304300D01*
X4831400Y1312770D01*
X4842660Y1317000D01*
X4855530Y1312770D01*
X4865180Y1304300D01*
X4871620Y1291600D01*
X4874830Y1274660D01*
X4871620Y1259850D01*
X4863570Y1245030D01*
X4853920Y1236560D01*
X4842660Y1234450D01*
X4829790Y1238680D01*
X4820140Y1249270D01*
X4810490Y1268320D01*
G01X5360700Y6534660D02*
X5331740Y6450000D01*
X5302780Y6534660D01*
G01X5202200Y6450000D02*
Y6577000D01*
X5221500Y6551600D01*
G01Y6450000D02*
X5182900D01*
G01X5072660Y6445770D02*
X5075880Y6447880D01*
Y6452120D01*
X5072660Y6454230D01*
X5069440Y6452120D01*
Y6447880D01*
X5072660Y6445770D01*
G01X4943120Y6577000D02*
X4955990Y6572770D01*
X4965640Y6562180D01*
X4972080Y6549490D01*
X4976900Y6532550D01*
X4978510Y6513500D01*
X4976900Y6494450D01*
X4972080Y6477510D01*
X4965640Y6464810D01*
X4955990Y6454230D01*
X4943120Y6450000D01*
X4930250Y6454230D01*
X4920600Y6464810D01*
X4914160Y6477510D01*
X4909340Y6494450D01*
X4907730Y6513500D01*
X4909340Y6532550D01*
X4914160Y6549490D01*
X4920600Y6562180D01*
X4930250Y6572770D01*
X4943120Y6577000D01*
G01X5506350Y546420D02*
X5516000Y552770D01*
X5527260Y557000D01*
X5540130D01*
X5554610Y550650D01*
X5565870Y540070D01*
X5573910Y527370D01*
X5580350Y506200D01*
X5581960Y487150D01*
X5578740Y468100D01*
X5573910Y455400D01*
X5564260Y442700D01*
X5553000Y434230D01*
X5541740Y430000D01*
X5530480D01*
X5519220Y434230D01*
X5509570Y440580D01*
X5501520Y449050D01*
G01X5412200Y430000D02*
Y557000D01*
X5431500Y531600D01*
G01Y430000D02*
X5392900D01*
G01X5310010Y444810D02*
X5298750Y434230D01*
X5285880Y430000D01*
X5273010Y434230D01*
X5261750Y446930D01*
X5253700Y465980D01*
X5250490Y485030D01*
Y508320D01*
X5253700Y527370D01*
X5261750Y544300D01*
X5271400Y552770D01*
X5282660Y557000D01*
X5295530Y552770D01*
X5305180Y544300D01*
X5311620Y531600D01*
X5314830Y514660D01*
X5311620Y499850D01*
X5303570Y485030D01*
X5293920Y476560D01*
X5282660Y474450D01*
X5269790Y478680D01*
X5260140Y489270D01*
X5250490Y508320D01*
G01X5713910Y920000D02*
Y1047000D01*
X5673700D01*
X5660830Y1040650D01*
X5652780Y1032180D01*
X5649570Y1015250D01*
X5652780Y998320D01*
X5662440Y987730D01*
X5673700Y981380D01*
X5713910D01*
G01X5673700D02*
X5649570Y920000D01*
G01X5587590Y945400D02*
X5577940Y930580D01*
X5565070Y922120D01*
X5550590Y920000D01*
X5537720Y922120D01*
X5524850Y932700D01*
X5516810Y945400D01*
X5515200Y958100D01*
X5518420Y972910D01*
X5529680Y983500D01*
X5540940Y987730D01*
X5555420D01*
G01X5540940D02*
X5531290Y994080D01*
X5523240Y1004660D01*
X5520030Y1017370D01*
X5523240Y1030070D01*
X5531290Y1040650D01*
X5545770Y1047000D01*
X5560240Y1044880D01*
X5574720Y1036420D01*
G01X5422660Y920000D02*
Y1047000D01*
X5441960Y1021600D01*
G01Y920000D02*
X5403360D01*
G01X5417130Y3257000D02*
Y3165980D01*
X5410700Y3146930D01*
X5397830Y3134230D01*
X5381740Y3130000D01*
X5365650Y3134230D01*
X5352780Y3146930D01*
X5346350Y3165980D01*
Y3257000D01*
G01X5287590Y3149050D02*
X5277940Y3138460D01*
X5266680Y3132120D01*
X5252200Y3130000D01*
X5237720Y3134230D01*
X5226460Y3142700D01*
X5218420Y3157510D01*
X5216810Y3174450D01*
X5220030Y3191380D01*
X5228070Y3201970D01*
X5239330Y3210430D01*
X5250590Y3212550D01*
X5261850Y3210430D01*
X5276330Y3201970D01*
X5271500Y3257000D01*
X5228070D01*
G01X5906350Y1406420D02*
X5916000Y1412770D01*
X5927260Y1417000D01*
X5940130D01*
X5954610Y1410650D01*
X5965870Y1400070D01*
X5973910Y1387370D01*
X5980350Y1366200D01*
X5981960Y1347150D01*
X5978740Y1328100D01*
X5973910Y1315400D01*
X5964260Y1302700D01*
X5953000Y1294230D01*
X5941740Y1290000D01*
X5930480D01*
X5919220Y1294230D01*
X5909570Y1300580D01*
X5901520Y1309050D01*
G01X5792900Y1290000D02*
Y1417000D01*
X5852420Y1325980D01*
X5771980D01*
G01X5718050Y1315400D02*
X5708400Y1300580D01*
X5695530Y1292120D01*
X5681050Y1290000D01*
X5668180Y1292120D01*
X5655310Y1302700D01*
X5647270Y1315400D01*
X5645660Y1328100D01*
X5648880Y1342910D01*
X5660140Y1353500D01*
X5671400Y1357730D01*
X5685880D01*
G01X5671400D02*
X5661750Y1364080D01*
X5653700Y1374660D01*
X5650490Y1387370D01*
X5653700Y1400070D01*
X5661750Y1410650D01*
X5676230Y1417000D01*
X5690700Y1414880D01*
X5705180Y1406420D01*
G01X6482310Y6325830D02*
X6472650Y6338530D01*
X6461390Y6344880D01*
X6448520Y6347000D01*
X6432440Y6342770D01*
X6421170Y6332180D01*
X6417960Y6319490D01*
X6419570Y6306780D01*
X6426000Y6296200D01*
X6458170Y6275030D01*
X6472650Y6260220D01*
X6482310Y6239050D01*
X6485520Y6220000D01*
X6417960D01*
G01X6322200Y6347000D02*
X6335070Y6342770D01*
X6344720Y6332180D01*
X6351160Y6319490D01*
X6355980Y6302550D01*
X6357590Y6283500D01*
X6355980Y6264450D01*
X6351160Y6247510D01*
X6344720Y6234810D01*
X6335070Y6224230D01*
X6322200Y6220000D01*
X6309330Y6224230D01*
X6299680Y6234810D01*
X6293240Y6247510D01*
X6288420Y6264450D01*
X6286810Y6283500D01*
X6288420Y6302550D01*
X6293240Y6319490D01*
X6299680Y6332180D01*
X6309330Y6342770D01*
X6322200Y6347000D01*
G01X6192660Y6220000D02*
Y6347000D01*
X6211960Y6321600D01*
G01Y6220000D02*
X6173360D01*
G01X6063120D02*
X6051860Y6222120D01*
X6038990Y6228460D01*
X6030950Y6239050D01*
X6027730Y6253870D01*
X6030950Y6268680D01*
X6040600Y6281380D01*
X6055080Y6287730D01*
X6071160D01*
X6080820Y6291970D01*
X6088860Y6302550D01*
X6092080Y6317370D01*
X6087250Y6332180D01*
X6075990Y6342770D01*
X6063120Y6347000D01*
X6050250Y6342770D01*
X6038990Y6332180D01*
X6034160Y6317370D01*
X6037380Y6302550D01*
X6045420Y6291970D01*
X6055080Y6287730D01*
X6071160D01*
X6085640Y6281380D01*
X6095290Y6268680D01*
X6098510Y6253870D01*
X6095290Y6239050D01*
X6087250Y6228460D01*
X6074380Y6222120D01*
X6063120Y6220000D01*
G01X5933580Y6347000D02*
X5946450Y6342770D01*
X5956100Y6332180D01*
X5962540Y6319490D01*
X5967360Y6302550D01*
X5968970Y6283500D01*
X5967360Y6264450D01*
X5962540Y6247510D01*
X5956100Y6234810D01*
X5946450Y6224230D01*
X5933580Y6220000D01*
X5920710Y6224230D01*
X5911060Y6234810D01*
X5904620Y6247510D01*
X5899800Y6264450D01*
X5898190Y6283500D01*
X5899800Y6302550D01*
X5904620Y6319490D01*
X5911060Y6332180D01*
X5920710Y6342770D01*
X5933580Y6347000D01*
G01X5804040Y6220000D02*
X5792780Y6222120D01*
X5779910Y6228460D01*
X5771870Y6239050D01*
X5768650Y6253870D01*
X5771870Y6268680D01*
X5781520Y6281380D01*
X5796000Y6287730D01*
X5812080D01*
X5821740Y6291970D01*
X5829780Y6302550D01*
X5833000Y6317370D01*
X5828170Y6332180D01*
X5816910Y6342770D01*
X5804040Y6347000D01*
X5791170Y6342770D01*
X5779910Y6332180D01*
X5775080Y6317370D01*
X5778300Y6302550D01*
X5786340Y6291970D01*
X5796000Y6287730D01*
X5812080D01*
X5826560Y6281380D01*
X5836210Y6268680D01*
X5839430Y6253870D01*
X5836210Y6239050D01*
X5828170Y6228460D01*
X5815300Y6222120D01*
X5804040Y6220000D01*
G01X5674500Y6347000D02*
X5687370Y6342770D01*
X5697020Y6332180D01*
X5703460Y6319490D01*
X5708280Y6302550D01*
X5709890Y6283500D01*
X5708280Y6264450D01*
X5703460Y6247510D01*
X5697020Y6234810D01*
X5687370Y6224230D01*
X5674500Y6220000D01*
X5661630Y6224230D01*
X5651980Y6234810D01*
X5645540Y6247510D01*
X5640720Y6264450D01*
X5639110Y6283500D01*
X5640720Y6302550D01*
X5645540Y6319490D01*
X5651980Y6332180D01*
X5661630Y6342770D01*
X5674500Y6347000D01*
G01X5580350Y6239050D02*
X5570700Y6228460D01*
X5559440Y6222120D01*
X5544960Y6220000D01*
X5530480Y6224230D01*
X5519220Y6232700D01*
X5511180Y6247510D01*
X5509570Y6264450D01*
X5512790Y6281380D01*
X5520830Y6291970D01*
X5532090Y6300430D01*
X5543350Y6302550D01*
X5554610Y6300430D01*
X5569090Y6291970D01*
X5564260Y6347000D01*
X5520830D01*
G01X6485520Y6466930D02*
X6472650Y6456350D01*
X6458170Y6450000D01*
X6445310D01*
X6432440Y6456350D01*
X6422780Y6466930D01*
X6417960Y6481750D01*
X6421170Y6496560D01*
X6429220Y6509270D01*
X6443700Y6517730D01*
X6463000Y6521970D01*
X6474260Y6530430D01*
X6479090Y6545250D01*
X6475870Y6560070D01*
X6467830Y6570650D01*
X6456570Y6577000D01*
X6445310D01*
X6434040Y6572770D01*
X6424390Y6562180D01*
G01X6355980Y6450000D02*
Y6577000D01*
G01X6288420D02*
Y6450000D01*
G01Y6513500D02*
X6355980D01*
G01X6213570Y6492330D02*
X6171750D01*
G01X6093690Y6577000D02*
X6032550D01*
X6093690Y6450000D01*
X6032550D01*
G01X5954490Y6492330D02*
X5912670D01*
G01X5804040Y6577000D02*
X5816910Y6572770D01*
X5826560Y6562180D01*
X5833000Y6549490D01*
X5837820Y6532550D01*
X5839430Y6513500D01*
X5837820Y6494450D01*
X5833000Y6477510D01*
X5826560Y6464810D01*
X5816910Y6454230D01*
X5804040Y6450000D01*
X5791170Y6454230D01*
X5781520Y6464810D01*
X5775080Y6477510D01*
X5770260Y6494450D01*
X5768650Y6513500D01*
X5770260Y6532550D01*
X5775080Y6549490D01*
X5781520Y6562180D01*
X5791170Y6572770D01*
X5804040Y6577000D01*
G01X5674500D02*
X5687370Y6572770D01*
X5697020Y6562180D01*
X5703460Y6549490D01*
X5708280Y6532550D01*
X5709890Y6513500D01*
X5708280Y6494450D01*
X5703460Y6477510D01*
X5697020Y6464810D01*
X5687370Y6454230D01*
X5674500Y6450000D01*
X5661630Y6454230D01*
X5651980Y6464810D01*
X5645540Y6477510D01*
X5640720Y6494450D01*
X5639110Y6513500D01*
X5640720Y6532550D01*
X5645540Y6549490D01*
X5651980Y6562180D01*
X5661630Y6572770D01*
X5674500Y6577000D01*
G01X5580350Y6475400D02*
X5570700Y6460580D01*
X5557830Y6452120D01*
X5543350Y6450000D01*
X5530480Y6452120D01*
X5517610Y6462700D01*
X5509570Y6475400D01*
X5507960Y6488100D01*
X5511180Y6502910D01*
X5522440Y6513500D01*
X5533700Y6517730D01*
X5548180D01*
G01X5533700D02*
X5524050Y6524080D01*
X5516000Y6534660D01*
X5512790Y6547370D01*
X5516000Y6560070D01*
X5524050Y6570650D01*
X5538530Y6577000D01*
X5553000Y6574880D01*
X5567480Y6566420D01*
G01X6082310Y890000D02*
Y1017000D01*
X6021170D01*
G01X6043700Y955620D02*
X6082310D01*
G01X5922200Y890000D02*
Y1017000D01*
X5941500Y991600D01*
G01Y890000D02*
X5902900D01*
G01X6376350Y2626420D02*
X6386000Y2632770D01*
X6397260Y2637000D01*
X6410130D01*
X6424610Y2630650D01*
X6435870Y2620070D01*
X6443910Y2607370D01*
X6450350Y2586200D01*
X6451960Y2567150D01*
X6448740Y2548100D01*
X6443910Y2535400D01*
X6434260Y2522700D01*
X6423000Y2514230D01*
X6411740Y2510000D01*
X6400480D01*
X6389220Y2514230D01*
X6379570Y2520580D01*
X6371520Y2529050D01*
G01X6262900Y2510000D02*
Y2637000D01*
X6322420Y2545980D01*
X6241980D01*
G01X6152660Y2637000D02*
X6165530Y2632770D01*
X6175180Y2622180D01*
X6181620Y2609490D01*
X6186440Y2592550D01*
X6188050Y2573500D01*
X6186440Y2554450D01*
X6181620Y2537510D01*
X6175180Y2524810D01*
X6165530Y2514230D01*
X6152660Y2510000D01*
X6139790Y2514230D01*
X6130140Y2524810D01*
X6123700Y2537510D01*
X6118880Y2554450D01*
X6117270Y2573500D01*
X6118880Y2592550D01*
X6123700Y2609490D01*
X6130140Y2622180D01*
X6139790Y2632770D01*
X6152660Y2637000D01*
G54D12*
G01X4480000Y1925000D02*
Y1010000D01*
X3930000D01*
Y1925000D01*
X4480000D01*
G01X6020000Y1395000D02*
Y2310000D01*
X6570000D01*
Y1395000D01*
X6020000D01*
G54D13*
G01X3640000Y1150000D02*
X3840000D01*
G01X3950000Y2020000D02*
X3750000D01*
G01X3850000Y2090000D02*
Y1950000D01*
G01X5800000Y1460000D02*
X6000000D01*
G01X6380000Y2430000D02*
X6180000D01*
G01X6520000Y1210000D02*
Y1322500D01*
M02*
