G04 ================== begin FILE IDENTIFICATION RECORD ==================*
G04 Layout Name:  G:/Work/sh-z-003/design/HW/pcb/sh-z-003_nc.brd*
G04 Film Name:    SILKSCREEN_TOP*
G04 File Format:  Gerber RS274X*
G04 File Origin:  Cadence Allegro 17.2-S007*
G04 Origin Date:  Sun Aug 05 17:11:59 2018*
G04 *
G04 Layer:  ETCH/WIRE*
G04 Layer:  MANUFACTURING/AUTOSILK_TOP*
G04 Layer:  BOARD GEOMETRY/OUTLINE*
G04 Layer:  BOARD GEOMETRY/SILKSCREEN_TOP*
G04 *
G04 Offset:    (0.0000 0.0000)*
G04 Mirror:    No*
G04 Mode:      Positive*
G04 Rotation:  0*
G04 FullContactRelief:  No*
G04 UndefLineWidth:     0.2000*
G04 ================== end FILE IDENTIFICATION RECORD ====================*
%FSLAX25Y25*MOMM*%
%IR0*IPPOS*OFA0.00000B0.00000*MIA0B0*SFA1.00000B1.00000*%
%ADD10C,.1*%
%ADD11C,.2*%
%ADD12C,.15*%
%ADD13C,.25*%
G75*
%LPD*%
G75*
G36*
G01X1168310Y4260000D02*
G03I-58310J0D01*
G37*
G36*
G01X1378310Y160000D02*
G03I-58310J0D01*
G37*
G36*
G01X1422110Y3270000D02*
G03I-72110J0D01*
G37*
G36*
G01X2474640Y6780000D02*
G03I-174640J0D01*
G37*
G54D10*
G01X6540000Y5150000D02*
X6200000D01*
Y4950000D01*
X6540000D01*
Y5150000D01*
G01X6560000Y5140000D02*
Y4960000D01*
G54D11*
G01X100000Y2640000D02*
Y2460000D01*
G01X110000Y6790000D02*
X245000D01*
G01X250000Y7250000D02*
X115000D01*
G01X600000Y330000D02*
Y130000D01*
X270000D01*
Y330000D01*
X600000D01*
G01Y750000D02*
Y550000D01*
X270000D01*
Y750000D01*
X600000D01*
G01Y550000D02*
Y350000D01*
X270000D01*
Y550000D01*
X600000D01*
G01X740000Y1030000D02*
X650000D01*
Y1150000D01*
X440000D01*
Y1120000D01*
X360000D01*
Y830000D01*
X440000D01*
Y800000D01*
X650000D01*
Y920000D01*
X740000D01*
Y1030000D01*
G01X180000Y1720000D02*
X150000Y1690000D01*
Y1250000D01*
X370000D01*
Y1720000D01*
X180000D01*
G01X200000Y2650000D02*
X170000Y2620000D01*
Y2180000D01*
X390000D01*
Y2650000D01*
X200000D01*
G01X220000Y4350000D02*
X420000D01*
Y4020000D01*
X220000D01*
Y4350000D01*
G01X240000Y4380000D02*
X400000D01*
G01X350000Y4560000D02*
X380000Y4590000D01*
Y5030000D01*
X160000D01*
Y4560000D01*
X350000D01*
G01X260000Y6400000D02*
X640000D01*
Y6060000D01*
X710000D01*
Y5700000D01*
X640000D01*
Y5360000D01*
X260000D01*
G01X175000Y6725000D02*
Y6855000D01*
G01X315000Y7025000D02*
G03X745000Y6595000I430000J0D01*
G01Y7455000D02*
G03X315000Y7025000I0J-430000D01*
G01X750000Y100000D02*
Y260000D01*
X630000Y380000D01*
G01Y310000D02*
Y150000D01*
G01Y730000D02*
Y570000D01*
G01Y530000D02*
Y370000D01*
G01X620000Y1610000D02*
Y1790000D01*
X920000D01*
Y1610000D01*
X620000D01*
G01X580000Y1620000D02*
Y1780000D01*
G01X570000Y1830000D02*
Y1990000D01*
G01X600000Y1810000D02*
Y2010000D01*
X930000D01*
Y1810000D01*
X600000D01*
G01X840000Y2220000D02*
Y2020000D01*
X510000D01*
Y2220000D01*
X840000D01*
G01Y2430000D02*
Y2230000D01*
X510000D01*
Y2430000D01*
X840000D01*
G01Y2630000D02*
Y2430000D01*
X510000D01*
Y2630000D01*
X840000D01*
G01Y2830000D02*
Y2630000D01*
X510000D01*
Y2830000D01*
X840000D01*
G01X800000Y3030000D02*
Y2830000D01*
X470000D01*
Y3030000D01*
X800000D01*
G01Y3230000D02*
Y3030000D01*
X470000D01*
Y3230000D01*
X800000D01*
G01X440000Y3250000D02*
Y3410000D01*
G01X470000Y3230000D02*
Y3430000D01*
X800000D01*
Y3230000D01*
X470000D01*
G01X950000Y4260000D02*
X1100000Y4110000D01*
Y3860000D01*
X570000D01*
Y4260000D01*
X950000D01*
G01X500000Y5030000D02*
Y4840000D01*
G01X640000Y4800000D02*
Y5040000D01*
G01X680000Y4790000D02*
Y5060000D01*
X760000D01*
Y5120000D01*
X1230000D01*
Y5060000D01*
X1310000D01*
Y4780000D01*
X1230000D01*
Y4720000D01*
X760000D01*
Y4780000D01*
X690000D01*
X680000Y4790000D01*
G01X410000Y4930000D02*
X590000D01*
G01X575000Y6950000D02*
X905000D01*
X740000Y7115000D01*
X575000Y6950000D01*
G01Y7125000D02*
X905000D01*
G01X740000Y1390000D02*
Y1590000D01*
X1070000D01*
Y1390000D01*
X740000D01*
G01X760000Y1190000D02*
Y1370000D01*
X1060000D01*
Y1190000D01*
X760000D01*
G01X720000Y1200000D02*
Y1360000D01*
G01X710000Y1410000D02*
Y1570000D01*
G01X870000Y2200000D02*
Y2040000D01*
G01Y2410000D02*
Y2250000D01*
G01Y2610000D02*
Y2450000D01*
G01Y2810000D02*
Y2650000D01*
G01X830000Y3010000D02*
Y2850000D01*
G01Y3210000D02*
Y3050000D01*
G01X1230000Y3400000D02*
Y3200000D01*
X900000D01*
Y3400000D01*
X1230000D01*
G01X940000Y4830000D02*
Y5010000D01*
G01X930000Y5230000D02*
Y5370000D01*
X1030000D01*
Y5410000D01*
X1310000D01*
Y5370000D01*
X1410000D01*
Y5230000D01*
X1310000D01*
Y5190000D01*
X1030000D01*
Y5230000D01*
X930000D01*
G01X745000Y6595000D02*
G03X1175000Y7025000I0J430000D01*
G01D02*
G03X745000Y7455000I-430000J0D01*
G01X1240000Y230000D02*
X1280000Y270000D01*
Y760000D01*
X1000000D01*
Y230000D01*
X1240000D01*
G01X1040000Y5010000D02*
Y4830000D01*
X950000Y4920000D01*
X1040000Y5010000D01*
G01X1210000Y5380000D02*
Y5220000D01*
X1130000Y5300000D01*
X1210000Y5380000D01*
G01X1120000Y5220000D02*
Y5380000D01*
G01X1320000Y5740000D02*
Y5540000D01*
X990000D01*
Y5740000D01*
X1320000D01*
G01Y5940000D02*
Y5740000D01*
X990000D01*
Y5940000D01*
X1320000D01*
G01X990000Y6080000D02*
Y6220000D01*
X1090000D01*
Y6260000D01*
X1370000D01*
Y6220000D01*
X1470000D01*
Y6080000D01*
X1370000D01*
Y6040000D01*
X1090000D01*
Y6080000D01*
X990000D01*
G01X1270000Y6230000D02*
Y6070000D01*
X1190000Y6150000D01*
X1270000Y6230000D01*
G01X1180000Y6070000D02*
Y6230000D01*
G01X1520000Y3210000D02*
X1420000Y3110000D01*
Y1850000D01*
X2780000D01*
Y3210000D01*
X1520000D01*
G01X1260000Y3380000D02*
Y3220000D01*
G01X1350000Y5720000D02*
Y5560000D01*
G01Y5920000D02*
Y5760000D01*
G01X1500000Y1240000D02*
Y1400000D01*
G01X1530000Y1220000D02*
Y1420000D01*
X1860000D01*
Y1220000D01*
X1530000D01*
G01X1570000Y3980000D02*
X1770000D01*
Y3650000D01*
X1570000D01*
Y3980000D01*
G01X1590000Y4010000D02*
X1750000D01*
G01X1670000Y5050000D02*
X1870000D01*
Y4720000D01*
X1670000D01*
Y5050000D01*
G01X1690000Y5080000D02*
X1850000D01*
G01X1650000Y6440000D02*
X1850000D01*
Y6110000D01*
X1650000D01*
Y6440000D01*
G01X1670000Y6470000D02*
X1830000D01*
G01X2320000Y7250000D02*
X2270000Y7200000D01*
X1790000D01*
X1740000Y7250000D01*
Y7520000D01*
X1850000Y7630000D01*
X2210000D01*
X2320000Y7520000D01*
Y7250000D01*
G01X3140000Y610000D02*
X3020000Y730000D01*
X1750000D01*
Y70000D01*
X3140000D01*
Y610000D01*
G01X2120000Y1180000D02*
Y980000D01*
X1790000D01*
Y1180000D01*
X2120000D01*
G01X2150000Y1160000D02*
Y1000000D01*
G01X2300000Y3830000D02*
X2150000D01*
Y3980000D01*
G01X2910000Y1090000D02*
Y890000D01*
X2580000D01*
Y1090000D01*
X2910000D01*
G01X2740000Y1480000D02*
X2940000D01*
Y1150000D01*
X2740000D01*
Y1480000D01*
G01X2760000Y1510000D02*
X2920000D01*
G01X3000000Y7310000D02*
X2800000D01*
Y7640000D01*
X3000000D01*
Y7310000D01*
G01X2940000Y1070000D02*
Y910000D01*
G01X2980000Y7280000D02*
X2820000D01*
G01X3210000Y1640000D02*
X3410000D01*
Y1310000D01*
X3210000D01*
Y1640000D01*
G01X3230000Y1670000D02*
X3390000D01*
G01X3520000Y3130000D02*
Y2930000D01*
X3190000D01*
Y3130000D01*
X3520000D01*
G01X3160000Y3150000D02*
Y3310000D01*
G01X3190000Y3130000D02*
Y3330000D01*
X3520000D01*
Y3130000D01*
X3190000D01*
G01X3160000Y7630000D02*
X3340000D01*
Y7330000D01*
X3160000D01*
Y7630000D01*
G01X3170000Y7670000D02*
X3330000D01*
G01X4790000Y610000D02*
X4670000Y730000D01*
X3400000D01*
Y70000D01*
X4790000D01*
Y610000D01*
G01X3410000Y1640000D02*
X3610000D01*
Y1310000D01*
X3410000D01*
Y1640000D01*
G01X3430000Y1670000D02*
X3590000D01*
G01X3550000Y3110000D02*
Y2950000D01*
G01X3420000Y7650000D02*
X3620000D01*
Y7320000D01*
X3420000D01*
Y7650000D01*
G01X3440000Y7680000D02*
X3600000D01*
G01X3610000Y1950000D02*
X3810000D01*
Y1620000D01*
X3610000D01*
Y1950000D01*
G01X3810000D02*
X4010000D01*
Y1620000D01*
X3810000D01*
Y1950000D01*
G01X3630000Y1980000D02*
X3790000D01*
G01X3830000D02*
X3990000D01*
G01X3780000Y3460000D02*
X3730000Y3410000D01*
Y2720000D01*
X4220000D01*
Y3460000D01*
X3780000D01*
G01X4010000Y2260000D02*
X4210000D01*
Y1930000D01*
X4010000D01*
Y2260000D01*
G01X4030000Y2290000D02*
X4190000D01*
G01X4210000Y2260000D02*
X4410000D01*
Y1930000D01*
X4210000D01*
Y2260000D01*
G01X4230000Y2290000D02*
X4390000D01*
G01Y2780000D02*
Y3280000D01*
G01X4620000Y7470000D02*
Y7270000D01*
X4290000D01*
Y7470000D01*
X4620000D01*
G01X4410000Y2570000D02*
X4610000D01*
Y2240000D01*
X4410000D01*
Y2570000D01*
G01X4610000D02*
X4810000D01*
Y2240000D01*
X4610000D01*
Y2570000D01*
G01X4430000Y2600000D02*
X4590000D01*
G01X4630000D02*
X4790000D01*
G01X4460000Y3390000D02*
Y3550000D01*
G01X4490000Y3370000D02*
Y3570000D01*
X4820000D01*
Y3370000D01*
X4490000D01*
G01X4650000Y7450000D02*
Y7290000D01*
G01X4790000Y670000D02*
Y1170000D01*
G01X5220000Y1500000D02*
Y1300000D01*
X4890000D01*
Y1500000D01*
X5220000D01*
G01X5700000Y2140000D02*
X5460000D01*
Y2280000D01*
X5070000D01*
Y2250000D01*
X4850000D01*
Y1610000D01*
X5070000D01*
Y1580000D01*
X5460000D01*
Y1720000D01*
X5700000D01*
Y2140000D01*
G01X4740000Y2780000D02*
Y3280000D01*
G01X4860000Y7120000D02*
Y7620000D01*
G01X5140000Y670000D02*
Y1170000D01*
G01X5180000Y3410000D02*
X5270000D01*
Y3290000D01*
X5480000D01*
Y3320000D01*
X5560000D01*
Y3610000D01*
X5480000D01*
Y3640000D01*
X5270000D01*
Y3520000D01*
X5180000D01*
Y3410000D01*
G01X5350000Y3980000D02*
Y3830000D01*
X5200000D01*
G01Y7030000D02*
X5350000D01*
Y6880000D01*
G01X5250000Y1480000D02*
Y1320000D01*
G01X5430000Y2800000D02*
Y2960000D01*
G01X5460000Y2780000D02*
Y2980000D01*
X5790000D01*
Y2780000D01*
X5460000D01*
G01X5210000Y7120000D02*
Y7620000D01*
G01X6000000Y3210000D02*
Y3010000D01*
X5670000D01*
Y3210000D01*
X6000000D01*
G01X5670000Y3270000D02*
Y3470000D01*
X6000000D01*
Y3270000D01*
X5670000D01*
G01X5640000Y3290000D02*
Y3450000D01*
G01X5670000Y3640000D02*
X5760000D01*
Y3520000D01*
X5970000D01*
Y3550000D01*
X6050000D01*
Y3840000D01*
X5970000D01*
Y3870000D01*
X5760000D01*
Y3750000D01*
X5670000D01*
Y3640000D01*
G01X5710000Y5400000D02*
Y5560000D01*
G01X5740000Y5380000D02*
Y5580000D01*
X6070000D01*
Y5380000D01*
X5740000D01*
G01X6440000Y520000D02*
Y240000D01*
X5780000D01*
Y520000D01*
X6440000D01*
G01X5930000Y2400000D02*
X6430000D01*
G01X5930000Y2750000D02*
X6430000D01*
G01X6310000Y4670000D02*
X6360000Y4620000D01*
Y4140000D01*
X6310000Y4090000D01*
X6040000D01*
X5930000Y4200000D01*
Y4560000D01*
X6040000Y4670000D01*
X6310000D01*
G01X5770000Y4970000D02*
Y5130000D01*
G01X5800000Y4950000D02*
Y5150000D01*
X6130000D01*
Y4950000D01*
X5800000D01*
G01X6180000Y6570000D02*
X6230000Y6520000D01*
Y6040000D01*
X6180000Y5990000D01*
X5910000D01*
X5800000Y6100000D01*
Y6460000D01*
X5910000Y6570000D01*
X6180000D01*
G01Y710000D02*
X6440000D01*
G01X6080000Y1190000D02*
Y1350000D01*
G01X6110000Y1170000D02*
Y1370000D01*
X6440000D01*
Y1170000D01*
X6110000D01*
G01X6160000Y3240000D02*
X6360000D01*
Y2910000D01*
X6160000D01*
Y3240000D01*
G01X6030000Y3190000D02*
Y3030000D01*
G01X6180000Y3270000D02*
X6340000D01*
G01X6150000Y3670000D02*
X6350000D01*
Y3340000D01*
X6150000D01*
Y3670000D01*
G01X6170000Y3700000D02*
X6330000D01*
G01X6550000Y5440000D02*
X6460000D01*
Y5560000D01*
X6250000D01*
Y5530000D01*
X6170000D01*
Y5240000D01*
X6250000D01*
Y5210000D01*
X6460000D01*
Y5330000D01*
X6550000D01*
Y5440000D01*
G01X6310000Y840000D02*
Y580000D01*
G01X6540000Y2880000D02*
X6380000D01*
G01X6560000Y2910000D02*
X6360000D01*
Y3240000D01*
X6560000D01*
Y2910000D01*
G01X6370000Y3860000D02*
X6570000D01*
Y3530000D01*
X6370000D01*
Y3860000D01*
G01X6390000Y3890000D02*
X6550000D01*
G01X6340000Y5120000D02*
Y4980000D01*
X6410000Y5050000D01*
X6340000Y5120000D01*
G01X0Y0D02*
X6700000D01*
Y7700000D01*
X0D01*
Y0D01*
G01X73580Y123650D02*
X67230Y114000D01*
X63000Y102740D01*
Y89870D01*
X69350Y75390D01*
X79930Y64130D01*
X92630Y56090D01*
X113800Y49650D01*
X132850Y48040D01*
X151900Y51260D01*
X164600Y56090D01*
X177300Y65740D01*
X185770Y77000D01*
X190000Y88260D01*
Y99520D01*
X185770Y110780D01*
X179420Y120430D01*
X170950Y128480D01*
G01X164600Y182410D02*
X179420Y192060D01*
X187880Y204930D01*
X190000Y219410D01*
X187880Y232280D01*
X177300Y245150D01*
X164600Y253190D01*
X151900Y254800D01*
X137090Y251580D01*
X126500Y240320D01*
X122270Y229060D01*
Y214580D01*
G01Y229060D02*
X115920Y238710D01*
X105340Y246760D01*
X92630Y249970D01*
X79930Y246760D01*
X69350Y238710D01*
X63000Y224230D01*
X65120Y209760D01*
X73580Y195280D01*
G01X170950Y311950D02*
X181540Y321600D01*
X187880Y332860D01*
X190000Y347340D01*
X185770Y361820D01*
X177300Y373080D01*
X162490Y381120D01*
X145550Y382730D01*
X128620Y379510D01*
X118030Y371470D01*
X109570Y360210D01*
X107450Y348950D01*
X109570Y337690D01*
X118030Y323210D01*
X63000Y328040D01*
Y371470D01*
G01X190000Y476090D02*
X63000D01*
Y516300D01*
X69350Y529170D01*
X77820Y537220D01*
X94750Y540430D01*
X111680Y537220D01*
X122270Y527560D01*
X128620Y516300D01*
Y476090D01*
G01Y516300D02*
X190000Y540430D01*
G01X84170Y607230D02*
X71470Y616890D01*
X65120Y628150D01*
X63000Y641020D01*
X67230Y657100D01*
X77820Y668370D01*
X90510Y671580D01*
X103220Y669970D01*
X113800Y663540D01*
X134970Y631370D01*
X149780Y616890D01*
X170950Y607230D01*
X190000Y604020D01*
Y671580D01*
G01X170950Y731950D02*
X181540Y741600D01*
X187880Y752860D01*
X190000Y767340D01*
X185770Y781820D01*
X177300Y793080D01*
X162490Y801120D01*
X145550Y802730D01*
X128620Y799510D01*
X118030Y791470D01*
X109570Y780210D01*
X107450Y768950D01*
X109570Y757690D01*
X118030Y743210D01*
X63000Y748040D01*
Y791470D01*
G01X92870Y890000D02*
Y1017000D01*
X125040D01*
X137910Y1010650D01*
X147560Y1002180D01*
X155610Y989490D01*
X162040Y974660D01*
X163650Y953500D01*
X162040Y932330D01*
X155610Y917510D01*
X147560Y904810D01*
X137910Y896350D01*
X125040Y890000D01*
X92870D01*
G01X277100D02*
Y1017000D01*
X217580Y925980D01*
X298020D01*
G01X126090Y2035400D02*
X134130Y2022700D01*
X143780Y2014230D01*
X155040Y2010000D01*
X167910Y2014230D01*
X177560Y2022700D01*
X187220Y2035400D01*
X190430Y2052330D01*
Y2137000D01*
G01X307100Y2010000D02*
Y2137000D01*
X247580Y2045980D01*
X328020D01*
G01X86090Y3280000D02*
Y3407000D01*
X126300D01*
X139170Y3400650D01*
X147220Y3392180D01*
X150430Y3375250D01*
X147220Y3358320D01*
X137560Y3347730D01*
X126300Y3341380D01*
X86090D01*
G01X126300D02*
X150430Y3280000D01*
G01X267100D02*
Y3407000D01*
X207580Y3315980D01*
X288020D01*
G01X146090Y5145400D02*
X154130Y5132700D01*
X163780Y5124230D01*
X175040Y5120000D01*
X187910Y5124230D01*
X197560Y5132700D01*
X207220Y5145400D01*
X210430Y5162330D01*
Y5247000D01*
G01X272410Y5139050D02*
X282060Y5128460D01*
X293320Y5122120D01*
X307800Y5120000D01*
X322280Y5124230D01*
X333540Y5132700D01*
X341580Y5147510D01*
X343190Y5164450D01*
X339970Y5181380D01*
X331930Y5191970D01*
X320670Y5200430D01*
X309410Y5202550D01*
X298150Y5200430D01*
X283670Y5191970D01*
X288500Y5247000D01*
X331930D01*
G01X106090Y6505400D02*
X114130Y6492700D01*
X123780Y6484230D01*
X135040Y6480000D01*
X147910Y6484230D01*
X157560Y6492700D01*
X167220Y6505400D01*
X170430Y6522330D01*
Y6607000D01*
G01X267800Y6480000D02*
Y6607000D01*
X248500Y6581600D01*
G01Y6480000D02*
X287100D01*
G01X397340D02*
Y6607000D01*
X378040Y6581600D01*
G01Y6480000D02*
X416640D01*
G01X233650Y1966420D02*
X224000Y1972770D01*
X212740Y1977000D01*
X199870D01*
X185390Y1970650D01*
X174130Y1960070D01*
X166090Y1947370D01*
X159650Y1926200D01*
X158040Y1907150D01*
X161260Y1888100D01*
X166090Y1875400D01*
X175740Y1862700D01*
X187000Y1854230D01*
X198260Y1850000D01*
X209520D01*
X220780Y1854230D01*
X230430Y1860580D01*
X238480Y1869050D01*
G01X297230Y1955830D02*
X306890Y1968530D01*
X318150Y1974880D01*
X331020Y1977000D01*
X347100Y1972770D01*
X358370Y1962180D01*
X361580Y1949490D01*
X359970Y1936780D01*
X353540Y1926200D01*
X321370Y1905030D01*
X306890Y1890220D01*
X297230Y1869050D01*
X294020Y1850000D01*
X361580D01*
G01X476640D02*
Y1977000D01*
X417120Y1885980D01*
X497560D01*
G01X273650Y2966420D02*
X264000Y2972770D01*
X252740Y2977000D01*
X239870D01*
X225390Y2970650D01*
X214130Y2960070D01*
X206090Y2947370D01*
X199650Y2926200D01*
X198040Y2907150D01*
X201260Y2888100D01*
X206090Y2875400D01*
X215740Y2862700D01*
X227000Y2854230D01*
X238260Y2850000D01*
X249520D01*
X260780Y2854230D01*
X270430Y2860580D01*
X278480Y2869050D01*
G01X337230Y2955830D02*
X346890Y2968530D01*
X358150Y2974880D01*
X371020Y2977000D01*
X387100Y2972770D01*
X398370Y2962180D01*
X401580Y2949490D01*
X399970Y2936780D01*
X393540Y2926200D01*
X361370Y2905030D01*
X346890Y2890220D01*
X337230Y2869050D01*
X334020Y2850000D01*
X401580D01*
G01X263650Y3176420D02*
X254000Y3182770D01*
X242740Y3187000D01*
X229870D01*
X215390Y3180650D01*
X204130Y3170070D01*
X196090Y3157370D01*
X189650Y3136200D01*
X188040Y3117150D01*
X191260Y3098100D01*
X196090Y3085400D01*
X205740Y3072700D01*
X217000Y3064230D01*
X228260Y3060000D01*
X239520D01*
X250780Y3064230D01*
X260430Y3070580D01*
X268480Y3079050D01*
G01X330450Y3074810D02*
X341710Y3064230D01*
X354580Y3060000D01*
X367450Y3064230D01*
X378710Y3076930D01*
X386760Y3095980D01*
X389970Y3115030D01*
Y3138320D01*
X386760Y3157370D01*
X378710Y3174300D01*
X369060Y3182770D01*
X357800Y3187000D01*
X344930Y3182770D01*
X335280Y3174300D01*
X328840Y3161600D01*
X325630Y3144660D01*
X328840Y3129850D01*
X336890Y3115030D01*
X346540Y3106560D01*
X357800Y3104450D01*
X370670Y3108680D01*
X380320Y3119270D01*
X389970Y3138320D01*
G01X156090Y3820000D02*
Y3947000D01*
X196300D01*
X209170Y3940650D01*
X217220Y3932180D01*
X220430Y3915250D01*
X217220Y3898320D01*
X207560Y3887730D01*
X196300Y3881380D01*
X156090D01*
G01X196300D02*
X220430Y3820000D01*
G01X287230Y3872910D02*
X298500Y3887730D01*
X308150Y3896200D01*
X321020Y3900430D01*
X332280Y3896200D01*
X340320Y3887730D01*
X346760Y3875030D01*
X348370Y3860220D01*
X346760Y3847510D01*
X340320Y3834810D01*
X330670Y3824230D01*
X319410Y3820000D01*
X306540Y3824230D01*
X295280Y3836930D01*
X288840Y3855980D01*
X287230Y3877150D01*
X290450Y3904660D01*
X295280Y3919490D01*
X303320Y3934300D01*
X314580Y3944880D01*
X325840Y3947000D01*
X337100Y3942770D01*
X345150Y3932180D01*
G01X475400Y1573910D02*
X462700Y1565870D01*
X454230Y1556220D01*
X450000Y1544960D01*
X454230Y1532090D01*
X462700Y1522440D01*
X475400Y1512780D01*
X492330Y1509570D01*
X577000D01*
G01X450000Y1412200D02*
X577000D01*
X551600Y1431500D01*
G01X450000D02*
Y1392900D01*
G01X577000Y1282660D02*
X572770Y1295530D01*
X562180Y1305180D01*
X549490Y1311620D01*
X532550Y1316440D01*
X513500Y1318050D01*
X494450Y1316440D01*
X477510Y1311620D01*
X464810Y1305180D01*
X454230Y1295530D01*
X450000Y1282660D01*
X454230Y1269790D01*
X464810Y1260140D01*
X477510Y1253700D01*
X494450Y1248880D01*
X513500Y1247270D01*
X532550Y1248880D01*
X549490Y1253700D01*
X562180Y1260140D01*
X572770Y1269790D01*
X577000Y1282660D01*
G01X816090Y40000D02*
Y167000D01*
X856300D01*
X869170Y160650D01*
X877220Y152180D01*
X880430Y135250D01*
X877220Y118320D01*
X867560Y107730D01*
X856300Y101380D01*
X816090D01*
G01X856300D02*
X880430Y40000D01*
G01X947230Y145830D02*
X956890Y158530D01*
X968150Y164880D01*
X981020Y167000D01*
X997100Y162770D01*
X1008370Y152180D01*
X1011580Y139490D01*
X1009970Y126780D01*
X1003540Y116200D01*
X971370Y95030D01*
X956890Y80220D01*
X947230Y59050D01*
X944020Y40000D01*
X1011580D01*
G01X1126640D02*
Y167000D01*
X1067120Y75980D01*
X1147560D01*
G01X1003650Y2176420D02*
X994000Y2182770D01*
X982740Y2187000D01*
X969870D01*
X955390Y2180650D01*
X944130Y2170070D01*
X936090Y2157370D01*
X929650Y2136200D01*
X928040Y2117150D01*
X931260Y2098100D01*
X936090Y2085400D01*
X945740Y2072700D01*
X957000Y2064230D01*
X968260Y2060000D01*
X979520D01*
X990780Y2064230D01*
X1000430Y2070580D01*
X1008480Y2079050D01*
G01X1117100Y2060000D02*
Y2187000D01*
X1057580Y2095980D01*
X1138020D01*
G01X973650Y2376420D02*
X964000Y2382770D01*
X952740Y2387000D01*
X939870D01*
X925390Y2380650D01*
X914130Y2370070D01*
X906090Y2357370D01*
X899650Y2336200D01*
X898040Y2317150D01*
X901260Y2298100D01*
X906090Y2285400D01*
X915740Y2272700D01*
X927000Y2264230D01*
X938260Y2260000D01*
X949520D01*
X960780Y2264230D01*
X970430Y2270580D01*
X978480Y2279050D01*
G01X1037230Y2365830D02*
X1046890Y2378530D01*
X1058150Y2384880D01*
X1071020Y2387000D01*
X1087100Y2382770D01*
X1098370Y2372180D01*
X1101580Y2359490D01*
X1099970Y2346780D01*
X1093540Y2336200D01*
X1061370Y2315030D01*
X1046890Y2300220D01*
X1037230Y2279050D01*
X1034020Y2260000D01*
X1101580D01*
G01X1197340D02*
Y2387000D01*
X1178040Y2361600D01*
G01Y2260000D02*
X1216640D01*
G01X963650Y2576420D02*
X954000Y2582770D01*
X942740Y2587000D01*
X929870D01*
X915390Y2580650D01*
X904130Y2570070D01*
X896090Y2557370D01*
X889650Y2536200D01*
X888040Y2517150D01*
X891260Y2498100D01*
X896090Y2485400D01*
X905740Y2472700D01*
X917000Y2464230D01*
X928260Y2460000D01*
X939520D01*
X950780Y2464230D01*
X960430Y2470580D01*
X968480Y2479050D01*
G01X1027230Y2565830D02*
X1036890Y2578530D01*
X1048150Y2584880D01*
X1061020Y2587000D01*
X1077100Y2582770D01*
X1088370Y2572180D01*
X1091580Y2559490D01*
X1089970Y2546780D01*
X1083540Y2536200D01*
X1051370Y2515030D01*
X1036890Y2500220D01*
X1027230Y2479050D01*
X1024020Y2460000D01*
X1091580D01*
G01X1187340Y2587000D02*
X1174470Y2582770D01*
X1164820Y2572180D01*
X1158380Y2559490D01*
X1153560Y2542550D01*
X1151950Y2523500D01*
X1153560Y2504450D01*
X1158380Y2487510D01*
X1164820Y2474810D01*
X1174470Y2464230D01*
X1187340Y2460000D01*
X1200210Y2464230D01*
X1209860Y2474810D01*
X1216300Y2487510D01*
X1221120Y2504450D01*
X1222730Y2523500D01*
X1221120Y2542550D01*
X1216300Y2559490D01*
X1209860Y2572180D01*
X1200210Y2582770D01*
X1187340Y2587000D01*
G01X983650Y2786420D02*
X974000Y2792770D01*
X962740Y2797000D01*
X949870D01*
X935390Y2790650D01*
X924130Y2780070D01*
X916090Y2767370D01*
X909650Y2746200D01*
X908040Y2727150D01*
X911260Y2708100D01*
X916090Y2695400D01*
X925740Y2682700D01*
X937000Y2674230D01*
X948260Y2670000D01*
X959520D01*
X970780Y2674230D01*
X980430Y2680580D01*
X988480Y2689050D01*
G01X1042410Y2695400D02*
X1052060Y2680580D01*
X1064930Y2672120D01*
X1079410Y2670000D01*
X1092280Y2672120D01*
X1105150Y2682700D01*
X1113190Y2695400D01*
X1114800Y2708100D01*
X1111580Y2722910D01*
X1100320Y2733500D01*
X1089060Y2737730D01*
X1074580D01*
G01X1089060D02*
X1098710Y2744080D01*
X1106760Y2754660D01*
X1109970Y2767370D01*
X1106760Y2780070D01*
X1098710Y2790650D01*
X1084230Y2797000D01*
X1069760Y2794880D01*
X1055280Y2786420D01*
G01X953650Y3566420D02*
X944000Y3572770D01*
X932740Y3577000D01*
X919870D01*
X905390Y3570650D01*
X894130Y3560070D01*
X886090Y3547370D01*
X879650Y3526200D01*
X878040Y3507150D01*
X881260Y3488100D01*
X886090Y3475400D01*
X895740Y3462700D01*
X907000Y3454230D01*
X918260Y3450000D01*
X929520D01*
X940780Y3454230D01*
X950430Y3460580D01*
X958480Y3469050D01*
G01X1044580Y3450000D02*
X1047800Y3477510D01*
X1052630Y3500800D01*
X1059060Y3521970D01*
X1067100Y3545250D01*
X1079970Y3577000D01*
X1015630D01*
G01X912870Y4530000D02*
Y4657000D01*
X945040D01*
X957910Y4650650D01*
X967560Y4642180D01*
X975610Y4629490D01*
X982040Y4614660D01*
X983650Y4593500D01*
X982040Y4572330D01*
X975610Y4557510D01*
X967560Y4544810D01*
X957910Y4536350D01*
X945040Y4530000D01*
X912870D01*
G01X1047230Y4582910D02*
X1058500Y4597730D01*
X1068150Y4606200D01*
X1081020Y4610430D01*
X1092280Y4606200D01*
X1100320Y4597730D01*
X1106760Y4585030D01*
X1108370Y4570220D01*
X1106760Y4557510D01*
X1100320Y4544810D01*
X1090670Y4534230D01*
X1079410Y4530000D01*
X1066540Y4534230D01*
X1055280Y4546930D01*
X1048840Y4565980D01*
X1047230Y4587150D01*
X1050450Y4614660D01*
X1055280Y4629490D01*
X1063320Y4644300D01*
X1074580Y4654880D01*
X1085840Y4657000D01*
X1097100Y4652770D01*
X1105150Y4642180D01*
G01X882870Y6340000D02*
Y6467000D01*
X915040D01*
X927910Y6460650D01*
X937560Y6452180D01*
X945610Y6439490D01*
X952040Y6424660D01*
X953650Y6403500D01*
X952040Y6382330D01*
X945610Y6367510D01*
X937560Y6354810D01*
X927910Y6346350D01*
X915040Y6340000D01*
X882870D01*
G01X1047800D02*
Y6467000D01*
X1028500Y6441600D01*
G01Y6340000D02*
X1067100D01*
G01X1177340Y6467000D02*
X1164470Y6462770D01*
X1154820Y6452180D01*
X1148380Y6439490D01*
X1143560Y6422550D01*
X1141950Y6403500D01*
X1143560Y6384450D01*
X1148380Y6367510D01*
X1154820Y6354810D01*
X1164470Y6344230D01*
X1177340Y6340000D01*
X1190210Y6344230D01*
X1199860Y6354810D01*
X1206300Y6367510D01*
X1211120Y6384450D01*
X1212730Y6403500D01*
X1211120Y6422550D01*
X1206300Y6439490D01*
X1199860Y6452180D01*
X1190210Y6462770D01*
X1177340Y6467000D01*
G01X1152870Y947000D02*
Y855980D01*
X1159300Y836930D01*
X1172170Y824230D01*
X1188260Y820000D01*
X1204350Y824230D01*
X1217220Y836930D01*
X1223650Y855980D01*
Y947000D01*
G01X1282410Y845400D02*
X1292060Y830580D01*
X1304930Y822120D01*
X1319410Y820000D01*
X1332280Y822120D01*
X1345150Y832700D01*
X1353190Y845400D01*
X1354800Y858100D01*
X1351580Y872910D01*
X1340320Y883500D01*
X1329060Y887730D01*
X1314580D01*
G01X1329060D02*
X1338710Y894080D01*
X1346760Y904660D01*
X1349970Y917370D01*
X1346760Y930070D01*
X1338710Y940650D01*
X1324230Y947000D01*
X1309760Y944880D01*
X1295280Y936420D01*
G01X1193650Y1536420D02*
X1184000Y1542770D01*
X1172740Y1547000D01*
X1159870D01*
X1145390Y1540650D01*
X1134130Y1530070D01*
X1126090Y1517370D01*
X1119650Y1496200D01*
X1118040Y1477150D01*
X1121260Y1458100D01*
X1126090Y1445400D01*
X1135740Y1432700D01*
X1147000Y1424230D01*
X1158260Y1420000D01*
X1169520D01*
X1180780Y1424230D01*
X1190430Y1430580D01*
X1198480Y1439050D01*
G01X1257230Y1525830D02*
X1266890Y1538530D01*
X1278150Y1544880D01*
X1291020Y1547000D01*
X1307100Y1542770D01*
X1318370Y1532180D01*
X1321580Y1519490D01*
X1319970Y1506780D01*
X1313540Y1496200D01*
X1281370Y1475030D01*
X1266890Y1460220D01*
X1257230Y1439050D01*
X1254020Y1420000D01*
X1321580D01*
G01X1381950Y1439050D02*
X1391600Y1428460D01*
X1402860Y1422120D01*
X1417340Y1420000D01*
X1431820Y1424230D01*
X1443080Y1432700D01*
X1451120Y1447510D01*
X1452730Y1464450D01*
X1449510Y1481380D01*
X1441470Y1491970D01*
X1430210Y1500430D01*
X1418950Y1502550D01*
X1407690Y1500430D01*
X1393210Y1491970D01*
X1398040Y1547000D01*
X1441470D01*
G01X1136090Y1337000D02*
Y1210000D01*
X1200430D01*
G01X1267230Y1315830D02*
X1276890Y1328530D01*
X1288150Y1334880D01*
X1301020Y1337000D01*
X1317100Y1332770D01*
X1328370Y1322180D01*
X1331580Y1309490D01*
X1329970Y1296780D01*
X1323540Y1286200D01*
X1291370Y1265030D01*
X1276890Y1250220D01*
X1267230Y1229050D01*
X1264020Y1210000D01*
X1331580D01*
G01X1016090Y1767000D02*
Y1640000D01*
X1080430D01*
G01X1177800D02*
Y1767000D01*
X1158500Y1741600D01*
G01Y1640000D02*
X1197100D01*
G01X1317000Y4211040D02*
Y4172440D01*
G01Y4191740D02*
X1190000D01*
G01Y4211040D02*
Y4172440D01*
G01X1206930Y4095980D02*
X1196350Y4083110D01*
X1190000Y4068630D01*
Y4055770D01*
X1196350Y4042900D01*
X1206930Y4033240D01*
X1221750Y4028420D01*
X1236560Y4031630D01*
X1249270Y4039680D01*
X1257730Y4054160D01*
X1261970Y4073460D01*
X1270430Y4084720D01*
X1285250Y4089550D01*
X1300070Y4086330D01*
X1310650Y4078290D01*
X1317000Y4067030D01*
Y4055770D01*
X1312770Y4044500D01*
X1302180Y4034850D01*
G01X1190000Y3932660D02*
X1192120Y3945530D01*
X1200580Y3956790D01*
X1213280Y3966440D01*
X1228100Y3972880D01*
X1245030Y3976100D01*
X1261970D01*
X1278900Y3972880D01*
X1293720Y3966440D01*
X1306420Y3956790D01*
X1314880Y3945530D01*
X1317000Y3932660D01*
X1314880Y3919790D01*
X1306420Y3908530D01*
X1293720Y3898880D01*
X1278900Y3892440D01*
X1261970Y3889220D01*
X1245030D01*
X1228100Y3892440D01*
X1213280Y3898880D01*
X1200580Y3908530D01*
X1192120Y3919790D01*
X1190000Y3932660D01*
G01Y3803120D02*
X1317000D01*
X1291600Y3822420D01*
G01X1190000D02*
Y3783820D01*
G01X1193650Y6746420D02*
X1184000Y6752770D01*
X1172740Y6757000D01*
X1159870D01*
X1145390Y6750650D01*
X1134130Y6740070D01*
X1126090Y6727370D01*
X1119650Y6706200D01*
X1118040Y6687150D01*
X1121260Y6668100D01*
X1126090Y6655400D01*
X1135740Y6642700D01*
X1147000Y6634230D01*
X1158260Y6630000D01*
X1169520D01*
X1180780Y6634230D01*
X1190430Y6640580D01*
X1198480Y6649050D01*
G01X1252410Y6655400D02*
X1262060Y6640580D01*
X1274930Y6632120D01*
X1289410Y6630000D01*
X1302280Y6632120D01*
X1315150Y6642700D01*
X1323190Y6655400D01*
X1324800Y6668100D01*
X1321580Y6682910D01*
X1310320Y6693500D01*
X1299060Y6697730D01*
X1284580D01*
G01X1299060D02*
X1308710Y6704080D01*
X1316760Y6714660D01*
X1319970Y6727370D01*
X1316760Y6740070D01*
X1308710Y6750650D01*
X1294230Y6757000D01*
X1279760Y6754880D01*
X1265280Y6746420D01*
G01X1386770Y6682910D02*
X1398040Y6697730D01*
X1407690Y6706200D01*
X1420560Y6710430D01*
X1431820Y6706200D01*
X1439860Y6697730D01*
X1446300Y6685030D01*
X1447910Y6670220D01*
X1446300Y6657510D01*
X1439860Y6644810D01*
X1430210Y6634230D01*
X1418950Y6630000D01*
X1406080Y6634230D01*
X1394820Y6646930D01*
X1388380Y6665980D01*
X1386770Y6687150D01*
X1389990Y6714660D01*
X1394820Y6729490D01*
X1402860Y6744300D01*
X1414120Y6754880D01*
X1425380Y6757000D01*
X1436640Y6752770D01*
X1444690Y6742180D01*
G01X1366430Y3450000D02*
Y3577000D01*
X1408260Y3471170D01*
X1450090Y3577000D01*
Y3450000D01*
G01X1573190Y3566420D02*
X1563540Y3572770D01*
X1552280Y3577000D01*
X1539410D01*
X1524930Y3570650D01*
X1513670Y3560070D01*
X1505630Y3547370D01*
X1499190Y3526200D01*
X1497580Y3507150D01*
X1500800Y3488100D01*
X1505630Y3475400D01*
X1515280Y3462700D01*
X1526540Y3454230D01*
X1537800Y3450000D01*
X1549060D01*
X1560320Y3454230D01*
X1569970Y3460580D01*
X1578020Y3469050D01*
G01X1631950Y3577000D02*
Y3485980D01*
X1638380Y3466930D01*
X1651250Y3454230D01*
X1667340Y3450000D01*
X1683430Y3454230D01*
X1696300Y3466930D01*
X1702730Y3485980D01*
Y3577000D01*
G01X1796880Y3450000D02*
Y3577000D01*
X1777580Y3551600D01*
G01Y3450000D02*
X1816180D01*
G01X1426090Y5560000D02*
Y5687000D01*
X1466300D01*
X1479170Y5680650D01*
X1487220Y5672180D01*
X1490430Y5655250D01*
X1487220Y5638320D01*
X1477560Y5627730D01*
X1466300Y5621380D01*
X1426090D01*
G01X1466300D02*
X1490430Y5560000D01*
G01X1557230Y5665830D02*
X1566890Y5678530D01*
X1578150Y5684880D01*
X1591020Y5687000D01*
X1607100Y5682770D01*
X1618370Y5672180D01*
X1621580Y5659490D01*
X1619970Y5646780D01*
X1613540Y5636200D01*
X1581370Y5615030D01*
X1566890Y5600220D01*
X1557230Y5579050D01*
X1554020Y5560000D01*
X1621580D01*
G01X1714120D02*
X1717340Y5587510D01*
X1722170Y5610800D01*
X1728600Y5631970D01*
X1736640Y5655250D01*
X1749510Y5687000D01*
X1685170D01*
G01X1426090Y5790000D02*
Y5917000D01*
X1466300D01*
X1479170Y5910650D01*
X1487220Y5902180D01*
X1490430Y5885250D01*
X1487220Y5868320D01*
X1477560Y5857730D01*
X1466300Y5851380D01*
X1426090D01*
G01X1466300D02*
X1490430Y5790000D01*
G01X1557230Y5895830D02*
X1566890Y5908530D01*
X1578150Y5914880D01*
X1591020Y5917000D01*
X1607100Y5912770D01*
X1618370Y5902180D01*
X1621580Y5889490D01*
X1619970Y5876780D01*
X1613540Y5866200D01*
X1581370Y5845030D01*
X1566890Y5830220D01*
X1557230Y5809050D01*
X1554020Y5790000D01*
X1621580D01*
G01X1686770Y5842910D02*
X1698040Y5857730D01*
X1707690Y5866200D01*
X1720560Y5870430D01*
X1731820Y5866200D01*
X1739860Y5857730D01*
X1746300Y5845030D01*
X1747910Y5830220D01*
X1746300Y5817510D01*
X1739860Y5804810D01*
X1730210Y5794230D01*
X1718950Y5790000D01*
X1706080Y5794230D01*
X1694820Y5806930D01*
X1688380Y5825980D01*
X1686770Y5847150D01*
X1689990Y5874660D01*
X1694820Y5889490D01*
X1702860Y5904300D01*
X1714120Y5914880D01*
X1725380Y5917000D01*
X1736640Y5912770D01*
X1744690Y5902180D01*
G01X1636090Y4100000D02*
Y4227000D01*
X1676300D01*
X1689170Y4220650D01*
X1697220Y4212180D01*
X1700430Y4195250D01*
X1697220Y4178320D01*
X1687560Y4167730D01*
X1676300Y4161380D01*
X1636090D01*
G01X1676300D02*
X1700430Y4100000D01*
G01X1797800D02*
Y4227000D01*
X1778500Y4201600D01*
G01Y4100000D02*
X1817100D01*
G01X1613650Y4626420D02*
X1604000Y4632770D01*
X1592740Y4637000D01*
X1579870D01*
X1565390Y4630650D01*
X1554130Y4620070D01*
X1546090Y4607370D01*
X1539650Y4586200D01*
X1538040Y4567150D01*
X1541260Y4548100D01*
X1546090Y4535400D01*
X1555740Y4522700D01*
X1567000Y4514230D01*
X1578260Y4510000D01*
X1589520D01*
X1600780Y4514230D01*
X1610430Y4520580D01*
X1618480Y4529050D01*
G01X1672410Y4535400D02*
X1682060Y4520580D01*
X1694930Y4512120D01*
X1709410Y4510000D01*
X1722280Y4512120D01*
X1735150Y4522700D01*
X1743190Y4535400D01*
X1744800Y4548100D01*
X1741580Y4562910D01*
X1730320Y4573500D01*
X1719060Y4577730D01*
X1704580D01*
G01X1719060D02*
X1728710Y4584080D01*
X1736760Y4594660D01*
X1739970Y4607370D01*
X1736760Y4620070D01*
X1728710Y4630650D01*
X1714230Y4637000D01*
X1699760Y4634880D01*
X1685280Y4626420D01*
G01X1806770Y4615830D02*
X1816430Y4628530D01*
X1827690Y4634880D01*
X1840560Y4637000D01*
X1856640Y4632770D01*
X1867910Y4622180D01*
X1871120Y4609490D01*
X1869510Y4596780D01*
X1863080Y4586200D01*
X1830910Y4565030D01*
X1816430Y4550220D01*
X1806770Y4529050D01*
X1803560Y4510000D01*
X1871120D01*
G01X1502870Y5290000D02*
Y5417000D01*
X1535040D01*
X1547910Y5410650D01*
X1557560Y5402180D01*
X1565610Y5389490D01*
X1572040Y5374660D01*
X1573650Y5353500D01*
X1572040Y5332330D01*
X1565610Y5317510D01*
X1557560Y5304810D01*
X1547910Y5296350D01*
X1535040Y5290000D01*
X1502870D01*
G01X1640450Y5304810D02*
X1651710Y5294230D01*
X1664580Y5290000D01*
X1677450Y5294230D01*
X1688710Y5306930D01*
X1696760Y5325980D01*
X1699970Y5345030D01*
Y5368320D01*
X1696760Y5387370D01*
X1688710Y5404300D01*
X1679060Y5412770D01*
X1667800Y5417000D01*
X1654930Y5412770D01*
X1645280Y5404300D01*
X1638840Y5391600D01*
X1635630Y5374660D01*
X1638840Y5359850D01*
X1646890Y5345030D01*
X1656540Y5336560D01*
X1667800Y5334450D01*
X1680670Y5338680D01*
X1690320Y5349270D01*
X1699970Y5368320D01*
G01X1586090Y6530000D02*
Y6657000D01*
X1626300D01*
X1639170Y6650650D01*
X1647220Y6642180D01*
X1650430Y6625250D01*
X1647220Y6608320D01*
X1637560Y6597730D01*
X1626300Y6591380D01*
X1586090D01*
G01X1626300D02*
X1650430Y6530000D01*
G01X1747800D02*
Y6657000D01*
X1728500Y6631600D01*
G01Y6530000D02*
X1767100D01*
G01X1877340D02*
Y6657000D01*
X1858040Y6631600D01*
G01Y6530000D02*
X1896640D01*
G01X1626090Y7025400D02*
X1634130Y7012700D01*
X1643780Y7004230D01*
X1655040Y7000000D01*
X1667910Y7004230D01*
X1677560Y7012700D01*
X1687220Y7025400D01*
X1690430Y7042330D01*
Y7127000D01*
G01X1784580Y7000000D02*
X1787800Y7027510D01*
X1792630Y7050800D01*
X1799060Y7071970D01*
X1807100Y7095250D01*
X1819970Y7127000D01*
X1755630D01*
G01X1993650Y1496420D02*
X1984000Y1502770D01*
X1972740Y1507000D01*
X1959870D01*
X1945390Y1500650D01*
X1934130Y1490070D01*
X1926090Y1477370D01*
X1919650Y1456200D01*
X1918040Y1437150D01*
X1921260Y1418100D01*
X1926090Y1405400D01*
X1935740Y1392700D01*
X1947000Y1384230D01*
X1958260Y1380000D01*
X1969520D01*
X1980780Y1384230D01*
X1990430Y1390580D01*
X1998480Y1399050D01*
G01X2052410D02*
X2062060Y1388460D01*
X2073320Y1382120D01*
X2087800Y1380000D01*
X2102280Y1384230D01*
X2113540Y1392700D01*
X2121580Y1407510D01*
X2123190Y1424450D01*
X2119970Y1441380D01*
X2111930Y1451970D01*
X2100670Y1460430D01*
X2089410Y1462550D01*
X2078150Y1460430D01*
X2063670Y1451970D01*
X2068500Y1507000D01*
X2111930D01*
G01X2038260Y6330000D02*
Y6457000D01*
X2018960Y6431600D01*
G01Y6330000D02*
X2057560D01*
G01X1992870Y7097000D02*
Y7005980D01*
X1999300Y6986930D01*
X2012170Y6974230D01*
X2028260Y6970000D01*
X2044350Y6974230D01*
X2057220Y6986930D01*
X2063650Y7005980D01*
Y7097000D01*
G01X2127230Y7075830D02*
X2136890Y7088530D01*
X2148150Y7094880D01*
X2161020Y7097000D01*
X2177100Y7092770D01*
X2188370Y7082180D01*
X2191580Y7069490D01*
X2189970Y7056780D01*
X2183540Y7046200D01*
X2151370Y7025030D01*
X2136890Y7010220D01*
X2127230Y6989050D01*
X2124020Y6970000D01*
X2191580D01*
G01X2116090Y815400D02*
X2124130Y802700D01*
X2133780Y794230D01*
X2145040Y790000D01*
X2157910Y794230D01*
X2167560Y802700D01*
X2177220Y815400D01*
X2180430Y832330D01*
Y917000D01*
G01X2247230Y895830D02*
X2256890Y908530D01*
X2268150Y914880D01*
X2281020Y917000D01*
X2297100Y912770D01*
X2308370Y902180D01*
X2311580Y889490D01*
X2309970Y876780D01*
X2303540Y866200D01*
X2271370Y845030D01*
X2256890Y830220D01*
X2247230Y809050D01*
X2244020Y790000D01*
X2311580D01*
G01X2206090Y1050000D02*
Y1177000D01*
X2246300D01*
X2259170Y1170650D01*
X2267220Y1162180D01*
X2270430Y1145250D01*
X2267220Y1128320D01*
X2257560Y1117730D01*
X2246300Y1111380D01*
X2206090D01*
G01X2246300D02*
X2270430Y1050000D01*
G01X2332410Y1075400D02*
X2342060Y1060580D01*
X2354930Y1052120D01*
X2369410Y1050000D01*
X2382280Y1052120D01*
X2395150Y1062700D01*
X2403190Y1075400D01*
X2404800Y1088100D01*
X2401580Y1102910D01*
X2390320Y1113500D01*
X2379060Y1117730D01*
X2364580D01*
G01X2379060D02*
X2388710Y1124080D01*
X2396760Y1134660D01*
X2399970Y1147370D01*
X2396760Y1160070D01*
X2388710Y1170650D01*
X2374230Y1177000D01*
X2359760Y1174880D01*
X2345280Y1166420D01*
G01X2513650Y1446420D02*
X2504000Y1452770D01*
X2492740Y1457000D01*
X2479870D01*
X2465390Y1450650D01*
X2454130Y1440070D01*
X2446090Y1427370D01*
X2439650Y1406200D01*
X2438040Y1387150D01*
X2441260Y1368100D01*
X2446090Y1355400D01*
X2455740Y1342700D01*
X2467000Y1334230D01*
X2478260Y1330000D01*
X2489520D01*
X2500780Y1334230D01*
X2510430Y1340580D01*
X2518480Y1349050D01*
G01X2577230Y1382910D02*
X2588500Y1397730D01*
X2598150Y1406200D01*
X2611020Y1410430D01*
X2622280Y1406200D01*
X2630320Y1397730D01*
X2636760Y1385030D01*
X2638370Y1370220D01*
X2636760Y1357510D01*
X2630320Y1344810D01*
X2620670Y1334230D01*
X2609410Y1330000D01*
X2596540Y1334230D01*
X2585280Y1346930D01*
X2578840Y1365980D01*
X2577230Y1387150D01*
X2580450Y1414660D01*
X2585280Y1429490D01*
X2593320Y1444300D01*
X2604580Y1454880D01*
X2615840Y1457000D01*
X2627100Y1452770D01*
X2635150Y1442180D01*
G01X2713650Y7206420D02*
X2704000Y7212770D01*
X2692740Y7217000D01*
X2679870D01*
X2665390Y7210650D01*
X2654130Y7200070D01*
X2646090Y7187370D01*
X2639650Y7166200D01*
X2638040Y7147150D01*
X2641260Y7128100D01*
X2646090Y7115400D01*
X2655740Y7102700D01*
X2667000Y7094230D01*
X2678260Y7090000D01*
X2689520D01*
X2700780Y7094230D01*
X2710430Y7100580D01*
X2718480Y7109050D01*
G01X2777230Y7195830D02*
X2786890Y7208530D01*
X2798150Y7214880D01*
X2811020Y7217000D01*
X2827100Y7212770D01*
X2838370Y7202180D01*
X2841580Y7189490D01*
X2839970Y7176780D01*
X2833540Y7166200D01*
X2801370Y7145030D01*
X2786890Y7130220D01*
X2777230Y7109050D01*
X2774020Y7090000D01*
X2841580D01*
G01X2909990Y7104810D02*
X2921250Y7094230D01*
X2934120Y7090000D01*
X2946990Y7094230D01*
X2958250Y7106930D01*
X2966300Y7125980D01*
X2969510Y7145030D01*
Y7168320D01*
X2966300Y7187370D01*
X2958250Y7204300D01*
X2948600Y7212770D01*
X2937340Y7217000D01*
X2924470Y7212770D01*
X2914820Y7204300D01*
X2908380Y7191600D01*
X2905170Y7174660D01*
X2908380Y7159850D01*
X2916430Y7145030D01*
X2926080Y7136560D01*
X2937340Y7134450D01*
X2950210Y7138680D01*
X2959860Y7149270D01*
X2969510Y7168320D01*
G01X3093650Y1046420D02*
X3084000Y1052770D01*
X3072740Y1057000D01*
X3059870D01*
X3045390Y1050650D01*
X3034130Y1040070D01*
X3026090Y1027370D01*
X3019650Y1006200D01*
X3018040Y987150D01*
X3021260Y968100D01*
X3026090Y955400D01*
X3035740Y942700D01*
X3047000Y934230D01*
X3058260Y930000D01*
X3069520D01*
X3080780Y934230D01*
X3090430Y940580D01*
X3098480Y949050D01*
G01X3157230Y1035830D02*
X3166890Y1048530D01*
X3178150Y1054880D01*
X3191020Y1057000D01*
X3207100Y1052770D01*
X3218370Y1042180D01*
X3221580Y1029490D01*
X3219970Y1016780D01*
X3213540Y1006200D01*
X3181370Y985030D01*
X3166890Y970220D01*
X3157230Y949050D01*
X3154020Y930000D01*
X3221580D01*
G01X3281950Y955400D02*
X3291600Y940580D01*
X3304470Y932120D01*
X3318950Y930000D01*
X3331820Y932120D01*
X3344690Y942700D01*
X3352730Y955400D01*
X3354340Y968100D01*
X3351120Y982910D01*
X3339860Y993500D01*
X3328600Y997730D01*
X3314120D01*
G01X3328600D02*
X3338250Y1004080D01*
X3346300Y1014660D01*
X3349510Y1027370D01*
X3346300Y1040070D01*
X3338250Y1050650D01*
X3323770Y1057000D01*
X3309300Y1054880D01*
X3294820Y1046420D01*
G01X3133650Y2876420D02*
X3124000Y2882770D01*
X3112740Y2887000D01*
X3099870D01*
X3085390Y2880650D01*
X3074130Y2870070D01*
X3066090Y2857370D01*
X3059650Y2836200D01*
X3058040Y2817150D01*
X3061260Y2798100D01*
X3066090Y2785400D01*
X3075740Y2772700D01*
X3087000Y2764230D01*
X3098260Y2760000D01*
X3109520D01*
X3120780Y2764230D01*
X3130430Y2770580D01*
X3138480Y2779050D01*
G01X3227800Y2760000D02*
Y2887000D01*
X3208500Y2861600D01*
G01Y2760000D02*
X3247100D01*
G01X3357340Y2887000D02*
X3344470Y2882770D01*
X3334820Y2872180D01*
X3328380Y2859490D01*
X3323560Y2842550D01*
X3321950Y2823500D01*
X3323560Y2804450D01*
X3328380Y2787510D01*
X3334820Y2774810D01*
X3344470Y2764230D01*
X3357340Y2760000D01*
X3370210Y2764230D01*
X3379860Y2774810D01*
X3386300Y2787510D01*
X3391120Y2804450D01*
X3392730Y2823500D01*
X3391120Y2842550D01*
X3386300Y2859490D01*
X3379860Y2872180D01*
X3370210Y2882770D01*
X3357340Y2887000D01*
G01X3233580Y1813650D02*
X3227230Y1804000D01*
X3223000Y1792740D01*
Y1779870D01*
X3229350Y1765390D01*
X3239930Y1754130D01*
X3252630Y1746090D01*
X3273800Y1739650D01*
X3292850Y1738040D01*
X3311900Y1741260D01*
X3324600Y1746090D01*
X3337300Y1755740D01*
X3345770Y1767000D01*
X3350000Y1778260D01*
Y1789520D01*
X3345770Y1800780D01*
X3339420Y1810430D01*
X3330950Y1818480D01*
G01X3350000Y1907800D02*
X3223000D01*
X3248400Y1888500D01*
G01X3350000D02*
Y1927100D01*
G01Y2037340D02*
X3347880Y2048600D01*
X3341540Y2061470D01*
X3330950Y2069510D01*
X3316130Y2072730D01*
X3301320Y2069510D01*
X3288620Y2059860D01*
X3282270Y2045380D01*
Y2029300D01*
X3278030Y2019640D01*
X3267450Y2011600D01*
X3252630Y2008380D01*
X3237820Y2013210D01*
X3227230Y2024470D01*
X3223000Y2037340D01*
X3227230Y2050210D01*
X3237820Y2061470D01*
X3252630Y2066300D01*
X3267450Y2063080D01*
X3278030Y2055040D01*
X3282270Y2045380D01*
Y2029300D01*
X3288620Y2014820D01*
X3301320Y2005170D01*
X3316130Y2001950D01*
X3330950Y2005170D01*
X3341540Y2013210D01*
X3347880Y2026080D01*
X3350000Y2037340D01*
G01X3303650Y3516420D02*
X3294000Y3522770D01*
X3282740Y3527000D01*
X3269870D01*
X3255390Y3520650D01*
X3244130Y3510070D01*
X3236090Y3497370D01*
X3229650Y3476200D01*
X3228040Y3457150D01*
X3231260Y3438100D01*
X3236090Y3425400D01*
X3245740Y3412700D01*
X3257000Y3404230D01*
X3268260Y3400000D01*
X3279520D01*
X3290780Y3404230D01*
X3300430Y3410580D01*
X3308480Y3419050D01*
G01X3397800Y3400000D02*
X3409060Y3402120D01*
X3421930Y3408460D01*
X3429970Y3419050D01*
X3433190Y3433870D01*
X3429970Y3448680D01*
X3420320Y3461380D01*
X3405840Y3467730D01*
X3389760D01*
X3380100Y3471970D01*
X3372060Y3482550D01*
X3368840Y3497370D01*
X3373670Y3512180D01*
X3384930Y3522770D01*
X3397800Y3527000D01*
X3410670Y3522770D01*
X3421930Y3512180D01*
X3426760Y3497370D01*
X3423540Y3482550D01*
X3415500Y3471970D01*
X3405840Y3467730D01*
X3389760D01*
X3375280Y3461380D01*
X3365630Y3448680D01*
X3362410Y3433870D01*
X3365630Y3419050D01*
X3373670Y3408460D01*
X3386540Y3402120D01*
X3397800Y3400000D01*
G01X3146090Y7247000D02*
Y7120000D01*
X3210430D01*
G01X3272410Y7145400D02*
X3282060Y7130580D01*
X3294930Y7122120D01*
X3309410Y7120000D01*
X3322280Y7122120D01*
X3335150Y7132700D01*
X3343190Y7145400D01*
X3344800Y7158100D01*
X3341580Y7172910D01*
X3330320Y7183500D01*
X3319060Y7187730D01*
X3304580D01*
G01X3319060D02*
X3328710Y7194080D01*
X3336760Y7204660D01*
X3339970Y7217370D01*
X3336760Y7230070D01*
X3328710Y7240650D01*
X3314230Y7247000D01*
X3299760Y7244880D01*
X3285280Y7236420D01*
G01X3423580Y1823650D02*
X3417230Y1814000D01*
X3413000Y1802740D01*
Y1789870D01*
X3419350Y1775390D01*
X3429930Y1764130D01*
X3442630Y1756090D01*
X3463800Y1749650D01*
X3482850Y1748040D01*
X3501900Y1751260D01*
X3514600Y1756090D01*
X3527300Y1765740D01*
X3535770Y1777000D01*
X3540000Y1788260D01*
Y1799520D01*
X3535770Y1810780D01*
X3529420Y1820430D01*
X3520950Y1828480D01*
G01X3540000Y1917800D02*
X3413000D01*
X3438400Y1898500D01*
G01X3540000D02*
Y1937100D01*
G01Y2044120D02*
X3512490Y2047340D01*
X3489200Y2052170D01*
X3468030Y2058600D01*
X3444750Y2066640D01*
X3413000Y2079510D01*
Y2015170D01*
G01X3659500Y3258760D02*
X3666060Y3266550D01*
X3670000Y3275320D01*
Y3283100D01*
X3666060Y3290890D01*
X3659500Y3296740D01*
X3650310Y3299660D01*
X3641130Y3297710D01*
X3633260Y3292840D01*
X3628000Y3284080D01*
X3625380Y3272390D01*
X3620130Y3265580D01*
X3610950Y3262660D01*
X3601760Y3264610D01*
X3595200Y3269470D01*
X3591260Y3276290D01*
Y3283100D01*
X3593880Y3289920D01*
X3600450Y3295760D01*
G01X3591260Y3328740D02*
X3670000Y3342370D01*
X3591260Y3357950D01*
X3670000Y3373530D01*
X3591260Y3387160D01*
G01X3670000Y3436690D02*
X3668690Y3428900D01*
X3663440Y3422090D01*
X3655570Y3416240D01*
X3646380Y3412350D01*
X3635880Y3410400D01*
X3625380D01*
X3614880Y3412350D01*
X3605690Y3416240D01*
X3597820Y3422090D01*
X3592570Y3428900D01*
X3591260Y3436690D01*
X3592570Y3444480D01*
X3597820Y3451290D01*
X3605690Y3457140D01*
X3614880Y3461030D01*
X3625380Y3462980D01*
X3635880D01*
X3646380Y3461030D01*
X3655570Y3457140D01*
X3663440Y3451290D01*
X3668690Y3444480D01*
X3670000Y3436690D01*
G01X3486090Y7110000D02*
Y7237000D01*
X3526300D01*
X3539170Y7230650D01*
X3547220Y7222180D01*
X3550430Y7205250D01*
X3547220Y7188320D01*
X3537560Y7177730D01*
X3526300Y7171380D01*
X3486090D01*
G01X3526300D02*
X3550430Y7110000D01*
G01X3647800D02*
X3659060Y7112120D01*
X3671930Y7118460D01*
X3679970Y7129050D01*
X3683190Y7143870D01*
X3679970Y7158680D01*
X3670320Y7171380D01*
X3655840Y7177730D01*
X3639760D01*
X3630100Y7181970D01*
X3622060Y7192550D01*
X3618840Y7207370D01*
X3623670Y7222180D01*
X3634930Y7232770D01*
X3647800Y7237000D01*
X3660670Y7232770D01*
X3671930Y7222180D01*
X3676760Y7207370D01*
X3673540Y7192550D01*
X3665500Y7181970D01*
X3655840Y7177730D01*
X3639760D01*
X3625280Y7171380D01*
X3615630Y7158680D01*
X3612410Y7143870D01*
X3615630Y7129050D01*
X3623670Y7118460D01*
X3636540Y7112120D01*
X3647800Y7110000D01*
G01X3686090Y825400D02*
X3694130Y812700D01*
X3703780Y804230D01*
X3715040Y800000D01*
X3727910Y804230D01*
X3737560Y812700D01*
X3747220Y825400D01*
X3750430Y842330D01*
Y927000D01*
G01X3847800Y800000D02*
Y927000D01*
X3828500Y901600D01*
G01Y800000D02*
X3867100D01*
G01X3633580Y2113650D02*
X3627230Y2104000D01*
X3623000Y2092740D01*
Y2079870D01*
X3629350Y2065390D01*
X3639930Y2054130D01*
X3652630Y2046090D01*
X3673800Y2039650D01*
X3692850Y2038040D01*
X3711900Y2041260D01*
X3724600Y2046090D01*
X3737300Y2055740D01*
X3745770Y2067000D01*
X3750000Y2078260D01*
Y2089520D01*
X3745770Y2100780D01*
X3739420Y2110430D01*
X3730950Y2118480D01*
G01X3750000Y2207800D02*
X3623000D01*
X3648400Y2188500D01*
G01X3750000D02*
Y2227100D01*
G01X3697090Y2306770D02*
X3682270Y2318040D01*
X3673800Y2327690D01*
X3669570Y2340560D01*
X3673800Y2351820D01*
X3682270Y2359860D01*
X3694970Y2366300D01*
X3709780Y2367910D01*
X3722490Y2366300D01*
X3735190Y2359860D01*
X3745770Y2350210D01*
X3750000Y2338950D01*
X3745770Y2326080D01*
X3733070Y2314820D01*
X3714020Y2308380D01*
X3692850Y2306770D01*
X3665340Y2309990D01*
X3650510Y2314820D01*
X3635700Y2322860D01*
X3625120Y2334120D01*
X3623000Y2345380D01*
X3627230Y2356640D01*
X3637820Y2364690D01*
G01X3853580Y2113650D02*
X3847230Y2104000D01*
X3843000Y2092740D01*
Y2079870D01*
X3849350Y2065390D01*
X3859930Y2054130D01*
X3872630Y2046090D01*
X3893800Y2039650D01*
X3912850Y2038040D01*
X3931900Y2041260D01*
X3944600Y2046090D01*
X3957300Y2055740D01*
X3965770Y2067000D01*
X3970000Y2078260D01*
Y2089520D01*
X3965770Y2100780D01*
X3959420Y2110430D01*
X3950950Y2118480D01*
G01X3970000Y2207800D02*
X3843000D01*
X3868400Y2188500D01*
G01X3970000D02*
Y2227100D01*
G01X3950950Y2301950D02*
X3961540Y2311600D01*
X3967880Y2322860D01*
X3970000Y2337340D01*
X3965770Y2351820D01*
X3957300Y2363080D01*
X3942490Y2371120D01*
X3925550Y2372730D01*
X3908620Y2369510D01*
X3898030Y2361470D01*
X3889570Y2350210D01*
X3887450Y2338950D01*
X3889570Y2327690D01*
X3898030Y2313210D01*
X3843000Y2318040D01*
Y2361470D01*
G01X3860000Y2477790D02*
X3781260D01*
Y2497260D01*
X3785200Y2505050D01*
X3790450Y2510890D01*
X3798320Y2515760D01*
X3807510Y2519660D01*
X3820630Y2520630D01*
X3833750Y2519660D01*
X3842940Y2515760D01*
X3850820Y2510890D01*
X3856060Y2505050D01*
X3860000Y2497260D01*
Y2477790D01*
G01X3781260Y2566270D02*
Y2589630D01*
G01Y2577950D02*
X3860000D01*
G01Y2566270D02*
Y2589630D01*
G01Y2656690D02*
X3858690Y2648900D01*
X3853440Y2642090D01*
X3845570Y2636240D01*
X3836380Y2632350D01*
X3825880Y2630400D01*
X3815380D01*
X3804880Y2632350D01*
X3795690Y2636240D01*
X3787820Y2642090D01*
X3782570Y2648900D01*
X3781260Y2656690D01*
X3782570Y2664480D01*
X3787820Y2671290D01*
X3795690Y2677140D01*
X3804880Y2681030D01*
X3815380Y2682980D01*
X3825880D01*
X3836380Y2681030D01*
X3845570Y2677140D01*
X3853440Y2671290D01*
X3858690Y2664480D01*
X3860000Y2656690D01*
G01X3607820Y3020630D02*
X3603880Y3014790D01*
X3601260Y3007970D01*
Y3000180D01*
X3605200Y2991420D01*
X3611760Y2984610D01*
X3619630Y2979740D01*
X3632760Y2975840D01*
X3644570Y2974870D01*
X3656380Y2976820D01*
X3664250Y2979740D01*
X3672130Y2985580D01*
X3677380Y2992390D01*
X3680000Y2999210D01*
Y3006030D01*
X3677380Y3012840D01*
X3673440Y3018680D01*
X3668190Y3023550D01*
G01X3601260Y3058480D02*
X3680000D01*
Y3097420D01*
G01Y3135270D02*
X3601260D01*
G01Y3172270D02*
X3649820Y3135270D01*
G01X3680000Y3178110D02*
X3627510Y3151820D01*
G01X3836090Y3555400D02*
X3844130Y3542700D01*
X3853780Y3534230D01*
X3865040Y3530000D01*
X3877910Y3534230D01*
X3887560Y3542700D01*
X3897220Y3555400D01*
X3900430Y3572330D01*
Y3657000D01*
G01X3962410Y3555400D02*
X3972060Y3540580D01*
X3984930Y3532120D01*
X3999410Y3530000D01*
X4012280Y3532120D01*
X4025150Y3542700D01*
X4033190Y3555400D01*
X4034800Y3568100D01*
X4031580Y3582910D01*
X4020320Y3593500D01*
X4009060Y3597730D01*
X3994580D01*
G01X4009060D02*
X4018710Y3604080D01*
X4026760Y3614660D01*
X4029970Y3627370D01*
X4026760Y3640070D01*
X4018710Y3650650D01*
X4004230Y3657000D01*
X3989760Y3654880D01*
X3975280Y3646420D01*
G01X4043580Y2413650D02*
X4037230Y2404000D01*
X4033000Y2392740D01*
Y2379870D01*
X4039350Y2365390D01*
X4049930Y2354130D01*
X4062630Y2346090D01*
X4083800Y2339650D01*
X4102850Y2338040D01*
X4121900Y2341260D01*
X4134600Y2346090D01*
X4147300Y2355740D01*
X4155770Y2367000D01*
X4160000Y2378260D01*
Y2389520D01*
X4155770Y2400780D01*
X4149420Y2410430D01*
X4140950Y2418480D01*
G01X4160000Y2507800D02*
X4033000D01*
X4058400Y2488500D01*
G01X4160000D02*
Y2527100D01*
G01Y2656640D02*
X4033000D01*
X4124020Y2597120D01*
Y2677560D01*
G01X3950630Y2505050D02*
Y2524530D01*
X3974250D01*
X3982130Y2518680D01*
X3987380Y2511870D01*
X3990000Y2502130D01*
X3987380Y2492390D01*
X3982130Y2485580D01*
X3974250Y2479740D01*
X3965070Y2475840D01*
X3954570Y2473890D01*
X3945380D01*
X3937510Y2475840D01*
X3928320Y2479740D01*
X3920450Y2485580D01*
X3915200Y2491420D01*
X3911260Y2499210D01*
Y2506030D01*
X3913880Y2513810D01*
X3919130Y2519660D01*
G01X3990000Y2555560D02*
X3911260D01*
X3990000Y2600340D01*
X3911260D01*
G01X3990000Y2635270D02*
X3911260D01*
Y2654740D01*
X3915200Y2662530D01*
X3920450Y2668370D01*
X3928320Y2673240D01*
X3937510Y2677140D01*
X3950630Y2678110D01*
X3963750Y2677140D01*
X3972940Y2673240D01*
X3980820Y2668370D01*
X3986060Y2662530D01*
X3990000Y2654740D01*
Y2635270D01*
G01X4190000Y3509740D02*
X4111260D01*
Y3534080D01*
X4115200Y3541870D01*
X4120450Y3546740D01*
X4130950Y3548680D01*
X4141440Y3546740D01*
X4148000Y3540890D01*
X4151940Y3534080D01*
Y3509740D01*
G01Y3534080D02*
X4190000Y3548680D01*
G01X4179500Y3587500D02*
X4186060Y3595290D01*
X4190000Y3604060D01*
Y3611840D01*
X4186060Y3619630D01*
X4179500Y3625480D01*
X4170310Y3628400D01*
X4161130Y3626450D01*
X4153260Y3621580D01*
X4148000Y3612820D01*
X4145380Y3601130D01*
X4140130Y3594320D01*
X4130950Y3591400D01*
X4121760Y3593350D01*
X4115200Y3598210D01*
X4111260Y3605030D01*
Y3611840D01*
X4113880Y3618660D01*
X4120450Y3624500D01*
G01X4111260Y3686690D02*
X4190000D01*
G01X4111260Y3664300D02*
Y3709080D01*
G01X3983650Y7246420D02*
X3974000Y7252770D01*
X3962740Y7257000D01*
X3949870D01*
X3935390Y7250650D01*
X3924130Y7240070D01*
X3916090Y7227370D01*
X3909650Y7206200D01*
X3908040Y7187150D01*
X3911260Y7168100D01*
X3916090Y7155400D01*
X3925740Y7142700D01*
X3937000Y7134230D01*
X3948260Y7130000D01*
X3959520D01*
X3970780Y7134230D01*
X3980430Y7140580D01*
X3988480Y7149050D01*
G01X4047230Y7235830D02*
X4056890Y7248530D01*
X4068150Y7254880D01*
X4081020Y7257000D01*
X4097100Y7252770D01*
X4108370Y7242180D01*
X4111580Y7229490D01*
X4109970Y7216780D01*
X4103540Y7206200D01*
X4071370Y7185030D01*
X4056890Y7170220D01*
X4047230Y7149050D01*
X4044020Y7130000D01*
X4111580D01*
G01X4204120D02*
X4207340Y7157510D01*
X4212170Y7180800D01*
X4218600Y7201970D01*
X4226640Y7225250D01*
X4239510Y7257000D01*
X4175170D01*
G01X4413650Y1176420D02*
X4404000Y1182770D01*
X4392740Y1187000D01*
X4379870D01*
X4365390Y1180650D01*
X4354130Y1170070D01*
X4346090Y1157370D01*
X4339650Y1136200D01*
X4338040Y1117150D01*
X4341260Y1098100D01*
X4346090Y1085400D01*
X4355740Y1072700D01*
X4367000Y1064230D01*
X4378260Y1060000D01*
X4389520D01*
X4400780Y1064230D01*
X4410430Y1070580D01*
X4418480Y1079050D01*
G01X4472410Y1085400D02*
X4482060Y1070580D01*
X4494930Y1062120D01*
X4509410Y1060000D01*
X4522280Y1062120D01*
X4535150Y1072700D01*
X4543190Y1085400D01*
X4544800Y1098100D01*
X4541580Y1112910D01*
X4530320Y1123500D01*
X4519060Y1127730D01*
X4504580D01*
G01X4519060D02*
X4528710Y1134080D01*
X4536760Y1144660D01*
X4539970Y1157370D01*
X4536760Y1170070D01*
X4528710Y1180650D01*
X4514230Y1187000D01*
X4499760Y1184880D01*
X4485280Y1176420D01*
G01X4637340Y1060000D02*
X4648600Y1062120D01*
X4661470Y1068460D01*
X4669510Y1079050D01*
X4672730Y1093870D01*
X4669510Y1108680D01*
X4659860Y1121380D01*
X4645380Y1127730D01*
X4629300D01*
X4619640Y1131970D01*
X4611600Y1142550D01*
X4608380Y1157370D01*
X4613210Y1172180D01*
X4624470Y1182770D01*
X4637340Y1187000D01*
X4650210Y1182770D01*
X4661470Y1172180D01*
X4666300Y1157370D01*
X4663080Y1142550D01*
X4655040Y1131970D01*
X4645380Y1127730D01*
X4629300D01*
X4614820Y1121380D01*
X4605170Y1108680D01*
X4601950Y1093870D01*
X4605170Y1079050D01*
X4613210Y1068460D01*
X4626080Y1062120D01*
X4637340Y1060000D01*
G01X4253580Y2413650D02*
X4247230Y2404000D01*
X4243000Y2392740D01*
Y2379870D01*
X4249350Y2365390D01*
X4259930Y2354130D01*
X4272630Y2346090D01*
X4293800Y2339650D01*
X4312850Y2338040D01*
X4331900Y2341260D01*
X4344600Y2346090D01*
X4357300Y2355740D01*
X4365770Y2367000D01*
X4370000Y2378260D01*
Y2389520D01*
X4365770Y2400780D01*
X4359420Y2410430D01*
X4350950Y2418480D01*
G01X4370000Y2507800D02*
X4243000D01*
X4268400Y2488500D01*
G01X4370000D02*
Y2527100D01*
G01X4344600Y2601950D02*
X4359420Y2611600D01*
X4367880Y2624470D01*
X4370000Y2638950D01*
X4367880Y2651820D01*
X4357300Y2664690D01*
X4344600Y2672730D01*
X4331900Y2674340D01*
X4317090Y2671120D01*
X4306500Y2659860D01*
X4302270Y2648600D01*
Y2634120D01*
G01Y2648600D02*
X4295920Y2658250D01*
X4285340Y2666300D01*
X4272630Y2669510D01*
X4259930Y2666300D01*
X4249350Y2658250D01*
X4243000Y2643770D01*
X4245120Y2629300D01*
X4253580Y2614820D01*
G01X4251260Y2984870D02*
X4330000Y3009210D01*
X4251260Y3033550D01*
G01X4257820Y3109370D02*
X4253880Y3103530D01*
X4251260Y3096710D01*
Y3088920D01*
X4255200Y3080160D01*
X4261760Y3073350D01*
X4269630Y3068480D01*
X4282760Y3064580D01*
X4294570Y3063610D01*
X4306380Y3065560D01*
X4314250Y3068480D01*
X4322130Y3074320D01*
X4327380Y3081130D01*
X4330000Y3087950D01*
Y3094770D01*
X4327380Y3101580D01*
X4323440Y3107420D01*
X4318190Y3112290D01*
G01X4257820Y3188110D02*
X4253880Y3182270D01*
X4251260Y3175450D01*
Y3167660D01*
X4255200Y3158900D01*
X4261760Y3152090D01*
X4269630Y3147220D01*
X4282760Y3143320D01*
X4294570Y3142350D01*
X4306380Y3144300D01*
X4314250Y3147220D01*
X4322130Y3153060D01*
X4327380Y3159870D01*
X4330000Y3166690D01*
Y3173510D01*
X4327380Y3180320D01*
X4323440Y3186160D01*
X4318190Y3191030D01*
G01X4273580Y3363650D02*
X4267230Y3354000D01*
X4263000Y3342740D01*
Y3329870D01*
X4269350Y3315390D01*
X4279930Y3304130D01*
X4292630Y3296090D01*
X4313800Y3289650D01*
X4332850Y3288040D01*
X4351900Y3291260D01*
X4364600Y3296090D01*
X4377300Y3305740D01*
X4385770Y3317000D01*
X4390000Y3328260D01*
Y3339520D01*
X4385770Y3350780D01*
X4379420Y3360430D01*
X4370950Y3368480D01*
G01X4364600Y3422410D02*
X4379420Y3432060D01*
X4387880Y3444930D01*
X4390000Y3459410D01*
X4387880Y3472280D01*
X4377300Y3485150D01*
X4364600Y3493190D01*
X4351900Y3494800D01*
X4337090Y3491580D01*
X4326500Y3480320D01*
X4322270Y3469060D01*
Y3454580D01*
G01Y3469060D02*
X4315920Y3478710D01*
X4305340Y3486760D01*
X4292630Y3489970D01*
X4279930Y3486760D01*
X4269350Y3478710D01*
X4263000Y3464230D01*
X4265120Y3449760D01*
X4273580Y3435280D01*
G01X4364600Y3551950D02*
X4379420Y3561600D01*
X4387880Y3574470D01*
X4390000Y3588950D01*
X4387880Y3601820D01*
X4377300Y3614690D01*
X4364600Y3622730D01*
X4351900Y3624340D01*
X4337090Y3621120D01*
X4326500Y3609860D01*
X4322270Y3598600D01*
Y3584120D01*
G01Y3598600D02*
X4315920Y3608250D01*
X4305340Y3616300D01*
X4292630Y3619510D01*
X4279930Y3616300D01*
X4269350Y3608250D01*
X4263000Y3593770D01*
X4265120Y3579300D01*
X4273580Y3564820D01*
G01X4543650Y1446420D02*
X4534000Y1452770D01*
X4522740Y1457000D01*
X4509870D01*
X4495390Y1450650D01*
X4484130Y1440070D01*
X4476090Y1427370D01*
X4469650Y1406200D01*
X4468040Y1387150D01*
X4471260Y1368100D01*
X4476090Y1355400D01*
X4485740Y1342700D01*
X4497000Y1334230D01*
X4508260Y1330000D01*
X4519520D01*
X4530780Y1334230D01*
X4540430Y1340580D01*
X4548480Y1349050D01*
G01X4602410Y1355400D02*
X4612060Y1340580D01*
X4624930Y1332120D01*
X4639410Y1330000D01*
X4652280Y1332120D01*
X4665150Y1342700D01*
X4673190Y1355400D01*
X4674800Y1368100D01*
X4671580Y1382910D01*
X4660320Y1393500D01*
X4649060Y1397730D01*
X4634580D01*
G01X4649060D02*
X4658710Y1404080D01*
X4666760Y1414660D01*
X4669970Y1427370D01*
X4666760Y1440070D01*
X4658710Y1450650D01*
X4644230Y1457000D01*
X4629760Y1454880D01*
X4615280Y1446420D01*
G01X4739990Y1344810D02*
X4751250Y1334230D01*
X4764120Y1330000D01*
X4776990Y1334230D01*
X4788250Y1346930D01*
X4796300Y1365980D01*
X4799510Y1385030D01*
Y1408320D01*
X4796300Y1427370D01*
X4788250Y1444300D01*
X4778600Y1452770D01*
X4767340Y1457000D01*
X4754470Y1452770D01*
X4744820Y1444300D01*
X4738380Y1431600D01*
X4735170Y1414660D01*
X4738380Y1399850D01*
X4746430Y1385030D01*
X4756080Y1376560D01*
X4767340Y1374450D01*
X4780210Y1378680D01*
X4789860Y1389270D01*
X4799510Y1408320D01*
G01X4483580Y1923650D02*
X4477230Y1914000D01*
X4473000Y1902740D01*
Y1889870D01*
X4479350Y1875390D01*
X4489930Y1864130D01*
X4502630Y1856090D01*
X4523800Y1849650D01*
X4542850Y1848040D01*
X4561900Y1851260D01*
X4574600Y1856090D01*
X4587300Y1865740D01*
X4595770Y1877000D01*
X4600000Y1888260D01*
Y1899520D01*
X4595770Y1910780D01*
X4589420Y1920430D01*
X4580950Y1928480D01*
G01X4600000Y2017800D02*
X4473000D01*
X4498400Y1998500D01*
G01X4600000D02*
Y2037100D01*
G01X4494170Y2116770D02*
X4481470Y2126430D01*
X4475120Y2137690D01*
X4473000Y2150560D01*
X4477230Y2166640D01*
X4487820Y2177910D01*
X4500510Y2181120D01*
X4513220Y2179510D01*
X4523800Y2173080D01*
X4544970Y2140910D01*
X4559780Y2126430D01*
X4580950Y2116770D01*
X4600000Y2113560D01*
Y2181120D01*
G01X4533650Y3746420D02*
X4524000Y3752770D01*
X4512740Y3757000D01*
X4499870D01*
X4485390Y3750650D01*
X4474130Y3740070D01*
X4466090Y3727370D01*
X4459650Y3706200D01*
X4458040Y3687150D01*
X4461260Y3668100D01*
X4466090Y3655400D01*
X4475740Y3642700D01*
X4487000Y3634230D01*
X4498260Y3630000D01*
X4509520D01*
X4520780Y3634230D01*
X4530430Y3640580D01*
X4538480Y3649050D01*
G01X4592410Y3655400D02*
X4602060Y3640580D01*
X4614930Y3632120D01*
X4629410Y3630000D01*
X4642280Y3632120D01*
X4655150Y3642700D01*
X4663190Y3655400D01*
X4664800Y3668100D01*
X4661580Y3682910D01*
X4650320Y3693500D01*
X4639060Y3697730D01*
X4624580D01*
G01X4639060D02*
X4648710Y3704080D01*
X4656760Y3714660D01*
X4659970Y3727370D01*
X4656760Y3740070D01*
X4648710Y3750650D01*
X4634230Y3757000D01*
X4619760Y3754880D01*
X4605280Y3746420D01*
G01X4776640Y3630000D02*
Y3757000D01*
X4717120Y3665980D01*
X4797560D01*
G01X4873580Y2423650D02*
X4867230Y2414000D01*
X4863000Y2402740D01*
Y2389870D01*
X4869350Y2375390D01*
X4879930Y2364130D01*
X4892630Y2356090D01*
X4913800Y2349650D01*
X4932850Y2348040D01*
X4951900Y2351260D01*
X4964600Y2356090D01*
X4977300Y2365740D01*
X4985770Y2377000D01*
X4990000Y2388260D01*
Y2399520D01*
X4985770Y2410780D01*
X4979420Y2420430D01*
X4970950Y2428480D01*
G01X4990000Y2517800D02*
X4863000D01*
X4888400Y2498500D01*
G01X4990000D02*
Y2537100D01*
G01Y2647340D02*
X4863000D01*
X4888400Y2628040D01*
G01X4990000D02*
Y2666640D01*
G01X4968260Y3430000D02*
X4955390Y3432120D01*
X4944130Y3440580D01*
X4934480Y3453280D01*
X4928040Y3468100D01*
X4924820Y3485030D01*
Y3501970D01*
X4928040Y3518900D01*
X4934480Y3533720D01*
X4944130Y3546420D01*
X4955390Y3554880D01*
X4968260Y3557000D01*
X4981130Y3554880D01*
X4992390Y3546420D01*
X5002040Y3533720D01*
X5008480Y3518900D01*
X5011700Y3501970D01*
Y3485030D01*
X5008480Y3468100D01*
X5002040Y3453280D01*
X4992390Y3440580D01*
X4981130Y3432120D01*
X4968260Y3430000D01*
G01X4981130Y3463870D02*
X5000430Y3430000D01*
G01X5067230Y3535830D02*
X5076890Y3548530D01*
X5088150Y3554880D01*
X5101020Y3557000D01*
X5117100Y3552770D01*
X5128370Y3542180D01*
X5131580Y3529490D01*
X5129970Y3516780D01*
X5123540Y3506200D01*
X5091370Y3485030D01*
X5076890Y3470220D01*
X5067230Y3449050D01*
X5064020Y3430000D01*
X5131580D01*
G01X5252870Y2467000D02*
Y2375980D01*
X5259300Y2356930D01*
X5272170Y2344230D01*
X5288260Y2340000D01*
X5304350Y2344230D01*
X5317220Y2356930D01*
X5323650Y2375980D01*
Y2467000D01*
G01X5387230Y2392910D02*
X5398500Y2407730D01*
X5408150Y2416200D01*
X5421020Y2420430D01*
X5432280Y2416200D01*
X5440320Y2407730D01*
X5446760Y2395030D01*
X5448370Y2380220D01*
X5446760Y2367510D01*
X5440320Y2354810D01*
X5430670Y2344230D01*
X5419410Y2340000D01*
X5406540Y2344230D01*
X5395280Y2356930D01*
X5388840Y2375980D01*
X5387230Y2397150D01*
X5390450Y2424660D01*
X5395280Y2439490D01*
X5403320Y2454300D01*
X5414580Y2464880D01*
X5425840Y2467000D01*
X5437100Y2462770D01*
X5445150Y2452180D01*
G01X5436090Y2620000D02*
Y2747000D01*
X5476300D01*
X5489170Y2740650D01*
X5497220Y2732180D01*
X5500430Y2715250D01*
X5497220Y2698320D01*
X5487560Y2687730D01*
X5476300Y2681380D01*
X5436090D01*
G01X5476300D02*
X5500430Y2620000D01*
G01X5597800D02*
Y2747000D01*
X5578500Y2721600D01*
G01Y2620000D02*
X5617100D01*
G01X5727340D02*
X5738600Y2622120D01*
X5751470Y2628460D01*
X5759510Y2639050D01*
X5762730Y2653870D01*
X5759510Y2668680D01*
X5749860Y2681380D01*
X5735380Y2687730D01*
X5719300D01*
X5709640Y2691970D01*
X5701600Y2702550D01*
X5698380Y2717370D01*
X5703210Y2732180D01*
X5714470Y2742770D01*
X5727340Y2747000D01*
X5740210Y2742770D01*
X5751470Y2732180D01*
X5756300Y2717370D01*
X5753080Y2702550D01*
X5745040Y2691970D01*
X5735380Y2687730D01*
X5719300D01*
X5704820Y2681380D01*
X5695170Y2668680D01*
X5691950Y2653870D01*
X5695170Y2639050D01*
X5703210Y2628460D01*
X5716080Y2622120D01*
X5727340Y2620000D01*
G01X5477820Y3080630D02*
X5473880Y3074790D01*
X5471260Y3067970D01*
Y3060180D01*
X5475200Y3051420D01*
X5481760Y3044610D01*
X5489630Y3039740D01*
X5502760Y3035840D01*
X5514570Y3034870D01*
X5526380Y3036820D01*
X5534250Y3039740D01*
X5542130Y3045580D01*
X5547380Y3052390D01*
X5550000Y3059210D01*
Y3066030D01*
X5547380Y3072840D01*
X5543440Y3078680D01*
X5538190Y3083550D01*
G01X5534250Y3116530D02*
X5543440Y3122370D01*
X5548690Y3130160D01*
X5550000Y3138920D01*
X5548690Y3146710D01*
X5542130Y3154500D01*
X5534250Y3159370D01*
X5526380Y3160340D01*
X5517190Y3158400D01*
X5510630Y3151580D01*
X5508000Y3144770D01*
Y3136000D01*
G01Y3144770D02*
X5504070Y3150610D01*
X5497510Y3155480D01*
X5489630Y3157420D01*
X5481760Y3155480D01*
X5475200Y3150610D01*
X5471260Y3141840D01*
X5472570Y3133080D01*
X5477820Y3124320D01*
G01X5550000Y3216690D02*
X5471260D01*
X5487010Y3205010D01*
G01X5550000D02*
Y3228370D01*
G01X5518260Y3830000D02*
X5505390Y3832120D01*
X5494130Y3840580D01*
X5484480Y3853280D01*
X5478040Y3868100D01*
X5474820Y3885030D01*
Y3901970D01*
X5478040Y3918900D01*
X5484480Y3933720D01*
X5494130Y3946420D01*
X5505390Y3954880D01*
X5518260Y3957000D01*
X5531130Y3954880D01*
X5542390Y3946420D01*
X5552040Y3933720D01*
X5558480Y3918900D01*
X5561700Y3901970D01*
Y3885030D01*
X5558480Y3868100D01*
X5552040Y3853280D01*
X5542390Y3840580D01*
X5531130Y3832120D01*
X5518260Y3830000D01*
G01X5531130Y3863870D02*
X5550430Y3830000D01*
G01X5612410Y3855400D02*
X5622060Y3840580D01*
X5634930Y3832120D01*
X5649410Y3830000D01*
X5662280Y3832120D01*
X5675150Y3842700D01*
X5683190Y3855400D01*
X5684800Y3868100D01*
X5681580Y3882910D01*
X5670320Y3893500D01*
X5659060Y3897730D01*
X5644580D01*
G01X5659060D02*
X5668710Y3904080D01*
X5676760Y3914660D01*
X5679970Y3927370D01*
X5676760Y3940070D01*
X5668710Y3950650D01*
X5654230Y3957000D01*
X5639760Y3954880D01*
X5625280Y3946420D01*
G01X5606090Y4335400D02*
X5614130Y4322700D01*
X5623780Y4314230D01*
X5635040Y4310000D01*
X5647910Y4314230D01*
X5657560Y4322700D01*
X5667220Y4335400D01*
X5670430Y4352330D01*
Y4437000D01*
G01X5740450Y4324810D02*
X5751710Y4314230D01*
X5764580Y4310000D01*
X5777450Y4314230D01*
X5788710Y4326930D01*
X5796760Y4345980D01*
X5799970Y4365030D01*
Y4388320D01*
X5796760Y4407370D01*
X5788710Y4424300D01*
X5779060Y4432770D01*
X5767800Y4437000D01*
X5754930Y4432770D01*
X5745280Y4424300D01*
X5738840Y4411600D01*
X5735630Y4394660D01*
X5738840Y4379850D01*
X5746890Y4365030D01*
X5756540Y4356560D01*
X5767800Y4354450D01*
X5780670Y4358680D01*
X5790320Y4369270D01*
X5799970Y4388320D01*
G01X6023650Y1726420D02*
X6014000Y1732770D01*
X6002740Y1737000D01*
X5989870D01*
X5975390Y1730650D01*
X5964130Y1720070D01*
X5956090Y1707370D01*
X5949650Y1686200D01*
X5948040Y1667150D01*
X5951260Y1648100D01*
X5956090Y1635400D01*
X5965740Y1622700D01*
X5977000Y1614230D01*
X5988260Y1610000D01*
X5999520D01*
X6010780Y1614230D01*
X6020430Y1620580D01*
X6028480Y1629050D01*
G01X6137100Y1610000D02*
Y1737000D01*
X6077580Y1645980D01*
X6158020D01*
G01X6216770Y1715830D02*
X6226430Y1728530D01*
X6237690Y1734880D01*
X6250560Y1737000D01*
X6266640Y1732770D01*
X6277910Y1722180D01*
X6281120Y1709490D01*
X6279510Y1696780D01*
X6273080Y1686200D01*
X6240910Y1665030D01*
X6226430Y1650220D01*
X6216770Y1629050D01*
X6213560Y1610000D01*
X6281120D01*
G01X5756090Y4750000D02*
Y4877000D01*
X5796300D01*
X5809170Y4870650D01*
X5817220Y4862180D01*
X5820430Y4845250D01*
X5817220Y4828320D01*
X5807560Y4817730D01*
X5796300Y4811380D01*
X5756090D01*
G01X5796300D02*
X5820430Y4750000D01*
G01X5890450Y4764810D02*
X5901710Y4754230D01*
X5914580Y4750000D01*
X5927450Y4754230D01*
X5938710Y4766930D01*
X5946760Y4785980D01*
X5949970Y4805030D01*
Y4828320D01*
X5946760Y4847370D01*
X5938710Y4864300D01*
X5929060Y4872770D01*
X5917800Y4877000D01*
X5904930Y4872770D01*
X5895280Y4864300D01*
X5888840Y4851600D01*
X5885630Y4834660D01*
X5888840Y4819850D01*
X5896890Y4805030D01*
X5906540Y4796560D01*
X5917800Y4794450D01*
X5930670Y4798680D01*
X5940320Y4809270D01*
X5949970Y4828320D01*
G01X5766090Y5650000D02*
Y5777000D01*
X5806300D01*
X5819170Y5770650D01*
X5827220Y5762180D01*
X5830430Y5745250D01*
X5827220Y5728320D01*
X5817560Y5717730D01*
X5806300Y5711380D01*
X5766090D01*
G01X5806300D02*
X5830430Y5650000D01*
G01X5927800D02*
Y5777000D01*
X5908500Y5751600D01*
G01Y5650000D02*
X5947100D01*
G01X6021950Y5669050D02*
X6031600Y5658460D01*
X6042860Y5652120D01*
X6057340Y5650000D01*
X6071820Y5654230D01*
X6083080Y5662700D01*
X6091120Y5677510D01*
X6092730Y5694450D01*
X6089510Y5711380D01*
X6081470Y5721970D01*
X6070210Y5730430D01*
X6058950Y5732550D01*
X6047690Y5730430D01*
X6033210Y5721970D01*
X6038040Y5777000D01*
X6081470D01*
G01X5926090Y6685400D02*
X5934130Y6672700D01*
X5943780Y6664230D01*
X5955040Y6660000D01*
X5967910Y6664230D01*
X5977560Y6672700D01*
X5987220Y6685400D01*
X5990430Y6702330D01*
Y6787000D01*
G01X6087800Y6660000D02*
X6099060Y6662120D01*
X6111930Y6668460D01*
X6119970Y6679050D01*
X6123190Y6693870D01*
X6119970Y6708680D01*
X6110320Y6721380D01*
X6095840Y6727730D01*
X6079760D01*
X6070100Y6731970D01*
X6062060Y6742550D01*
X6058840Y6757370D01*
X6063670Y6772180D01*
X6074930Y6782770D01*
X6087800Y6787000D01*
X6100670Y6782770D01*
X6111930Y6772180D01*
X6116760Y6757370D01*
X6113540Y6742550D01*
X6105500Y6731970D01*
X6095840Y6727730D01*
X6079760D01*
X6065280Y6721380D01*
X6055630Y6708680D01*
X6052410Y6693870D01*
X6055630Y6679050D01*
X6063670Y6668460D01*
X6076540Y6662120D01*
X6087800Y6660000D01*
G01X5983650Y7536420D02*
X5974000Y7542770D01*
X5962740Y7547000D01*
X5949870D01*
X5935390Y7540650D01*
X5924130Y7530070D01*
X5916090Y7517370D01*
X5909650Y7496200D01*
X5908040Y7477150D01*
X5911260Y7458100D01*
X5916090Y7445400D01*
X5925740Y7432700D01*
X5937000Y7424230D01*
X5948260Y7420000D01*
X5959520D01*
X5970780Y7424230D01*
X5980430Y7430580D01*
X5988480Y7439050D01*
G01X6047230Y7525830D02*
X6056890Y7538530D01*
X6068150Y7544880D01*
X6081020Y7547000D01*
X6097100Y7542770D01*
X6108370Y7532180D01*
X6111580Y7519490D01*
X6109970Y7506780D01*
X6103540Y7496200D01*
X6071370Y7475030D01*
X6056890Y7460220D01*
X6047230Y7439050D01*
X6044020Y7420000D01*
X6111580D01*
G01X6207340D02*
X6218600Y7422120D01*
X6231470Y7428460D01*
X6239510Y7439050D01*
X6242730Y7453870D01*
X6239510Y7468680D01*
X6229860Y7481380D01*
X6215380Y7487730D01*
X6199300D01*
X6189640Y7491970D01*
X6181600Y7502550D01*
X6178380Y7517370D01*
X6183210Y7532180D01*
X6194470Y7542770D01*
X6207340Y7547000D01*
X6220210Y7542770D01*
X6231470Y7532180D01*
X6236300Y7517370D01*
X6233080Y7502550D01*
X6225040Y7491970D01*
X6215380Y7487730D01*
X6199300D01*
X6184820Y7481380D01*
X6175170Y7468680D01*
X6171950Y7453870D01*
X6175170Y7439050D01*
X6183210Y7428460D01*
X6196080Y7422120D01*
X6207340Y7420000D01*
G01X6096090Y85400D02*
X6104130Y72700D01*
X6113780Y64230D01*
X6125040Y60000D01*
X6137910Y64230D01*
X6147560Y72700D01*
X6157220Y85400D01*
X6160430Y102330D01*
Y187000D01*
G01X6257800Y60000D02*
Y187000D01*
X6238500Y161600D01*
G01Y60000D02*
X6277100D01*
G01X6356770Y165830D02*
X6366430Y178530D01*
X6377690Y184880D01*
X6390560Y187000D01*
X6406640Y182770D01*
X6417910Y172180D01*
X6421120Y159490D01*
X6419510Y146780D01*
X6413080Y136200D01*
X6380910Y115030D01*
X6366430Y100220D01*
X6356770Y79050D01*
X6353560Y60000D01*
X6421120D01*
G01X6203650Y1556420D02*
X6194000Y1562770D01*
X6182740Y1567000D01*
X6169870D01*
X6155390Y1560650D01*
X6144130Y1550070D01*
X6136090Y1537370D01*
X6129650Y1516200D01*
X6128040Y1497150D01*
X6131260Y1478100D01*
X6136090Y1465400D01*
X6145740Y1452700D01*
X6157000Y1444230D01*
X6168260Y1440000D01*
X6179520D01*
X6190780Y1444230D01*
X6200430Y1450580D01*
X6208480Y1459050D01*
G01X6317100Y1440000D02*
Y1567000D01*
X6257580Y1475980D01*
X6338020D01*
G01X6427340Y1440000D02*
Y1567000D01*
X6408040Y1541600D01*
G01Y1440000D02*
X6446640D01*
G01X6099740Y2790000D02*
Y2868740D01*
X6124080D01*
X6131870Y2864800D01*
X6136740Y2859550D01*
X6138680Y2849050D01*
X6136740Y2838560D01*
X6130890Y2832000D01*
X6124080Y2828060D01*
X6099740D01*
G01X6124080D02*
X6138680Y2790000D01*
G01X6197950D02*
Y2868740D01*
X6186270Y2852990D01*
G01Y2790000D02*
X6209630D01*
G01X6258190Y2822810D02*
X6265010Y2832000D01*
X6270850Y2837240D01*
X6278640Y2839870D01*
X6285450Y2837240D01*
X6290320Y2832000D01*
X6294220Y2824120D01*
X6295190Y2814930D01*
X6294220Y2807060D01*
X6290320Y2799180D01*
X6284480Y2792620D01*
X6277660Y2790000D01*
X6269870Y2792620D01*
X6263060Y2800500D01*
X6259160Y2812310D01*
X6258190Y2825430D01*
X6260140Y2842490D01*
X6263060Y2851680D01*
X6267930Y2860870D01*
X6274740Y2867430D01*
X6281560Y2868740D01*
X6288370Y2866120D01*
X6293240Y2859550D01*
G01X6110000Y3279740D02*
X6031260D01*
Y3304080D01*
X6035200Y3311870D01*
X6040450Y3316740D01*
X6050950Y3318680D01*
X6061440Y3316740D01*
X6068000Y3310890D01*
X6071940Y3304080D01*
Y3279740D01*
G01Y3304080D02*
X6110000Y3318680D01*
G01X6044380Y3359450D02*
X6036510Y3365290D01*
X6032570Y3372110D01*
X6031260Y3379900D01*
X6033880Y3389630D01*
X6040450Y3396450D01*
X6048320Y3398400D01*
X6056200Y3397420D01*
X6062760Y3393530D01*
X6075880Y3374060D01*
X6085070Y3365290D01*
X6098190Y3359450D01*
X6110000Y3357500D01*
Y3398400D01*
G01X6031260Y3456690D02*
X6033880Y3448900D01*
X6040450Y3443060D01*
X6048320Y3439160D01*
X6058820Y3436240D01*
X6070630Y3435270D01*
X6082440Y3436240D01*
X6092940Y3439160D01*
X6100820Y3443060D01*
X6107380Y3448900D01*
X6110000Y3456690D01*
X6107380Y3464480D01*
X6100820Y3470320D01*
X6092940Y3474220D01*
X6082440Y3477140D01*
X6070630Y3478110D01*
X6058820Y3477140D01*
X6048320Y3474220D01*
X6040450Y3470320D01*
X6033880Y3464480D01*
X6031260Y3456690D01*
G01X6240000Y3759740D02*
X6161260D01*
Y3784080D01*
X6165200Y3791870D01*
X6170450Y3796740D01*
X6180950Y3798680D01*
X6191440Y3796740D01*
X6198000Y3790890D01*
X6201940Y3784080D01*
Y3759740D01*
G01Y3784080D02*
X6240000Y3798680D01*
G01Y3857950D02*
X6161260D01*
X6177010Y3846270D01*
G01X6240000D02*
Y3869630D01*
G01X6230820Y3920140D02*
X6237380Y3926950D01*
X6240000Y3934740D01*
X6237380Y3942530D01*
X6229500Y3949350D01*
X6217690Y3954220D01*
X6205880Y3956160D01*
X6191440D01*
X6179630Y3954220D01*
X6169130Y3949350D01*
X6163880Y3943510D01*
X6161260Y3936690D01*
X6163880Y3928900D01*
X6169130Y3923060D01*
X6177010Y3919160D01*
X6187510Y3917220D01*
X6196690Y3919160D01*
X6205880Y3924030D01*
X6211130Y3929870D01*
X6212440Y3936690D01*
X6209820Y3944480D01*
X6203260Y3950320D01*
X6191440Y3956160D01*
G01X6232870Y4770000D02*
Y4897000D01*
X6265040D01*
X6277910Y4890650D01*
X6287560Y4882180D01*
X6295610Y4869490D01*
X6302040Y4854660D01*
X6303650Y4833500D01*
X6302040Y4812330D01*
X6295610Y4797510D01*
X6287560Y4784810D01*
X6277910Y4776350D01*
X6265040Y4770000D01*
X6232870D01*
G01X6367230Y4875830D02*
X6376890Y4888530D01*
X6388150Y4894880D01*
X6401020Y4897000D01*
X6417100Y4892770D01*
X6428370Y4882180D01*
X6431580Y4869490D01*
X6429970Y4856780D01*
X6423540Y4846200D01*
X6391370Y4825030D01*
X6376890Y4810220D01*
X6367230Y4789050D01*
X6364020Y4770000D01*
X6431580D01*
G01X6469740Y2770000D02*
Y2848740D01*
X6494080D01*
X6501870Y2844800D01*
X6506740Y2839550D01*
X6508680Y2829050D01*
X6506740Y2818560D01*
X6500890Y2812000D01*
X6494080Y2808060D01*
X6469740D01*
G01X6494080D02*
X6508680Y2770000D01*
G01X6549450Y2835620D02*
X6555290Y2843490D01*
X6562110Y2847430D01*
X6569900Y2848740D01*
X6579630Y2846120D01*
X6586450Y2839550D01*
X6588400Y2831680D01*
X6587420Y2823800D01*
X6583530Y2817240D01*
X6564060Y2804120D01*
X6555290Y2794930D01*
X6549450Y2781810D01*
X6547500Y2770000D01*
X6588400D01*
G01X6646690D02*
Y2848740D01*
X6635010Y2832990D01*
G01Y2770000D02*
X6658370D01*
G01X6296090Y3920000D02*
Y4047000D01*
X6336300D01*
X6349170Y4040650D01*
X6357220Y4032180D01*
X6360430Y4015250D01*
X6357220Y3998320D01*
X6347560Y3987730D01*
X6336300Y3981380D01*
X6296090D01*
G01X6336300D02*
X6360430Y3920000D01*
G01X6427230Y4025830D02*
X6436890Y4038530D01*
X6448150Y4044880D01*
X6461020Y4047000D01*
X6477100Y4042770D01*
X6488370Y4032180D01*
X6491580Y4019490D01*
X6489970Y4006780D01*
X6483540Y3996200D01*
X6451370Y3975030D01*
X6436890Y3960220D01*
X6427230Y3939050D01*
X6424020Y3920000D01*
X6491580D01*
G01X6551950Y3945400D02*
X6561600Y3930580D01*
X6574470Y3922120D01*
X6588950Y3920000D01*
X6601820Y3922120D01*
X6614690Y3932700D01*
X6622730Y3945400D01*
X6624340Y3958100D01*
X6621120Y3972910D01*
X6609860Y3983500D01*
X6598600Y3987730D01*
X6584120D01*
G01X6598600D02*
X6608250Y3994080D01*
X6616300Y4004660D01*
X6619510Y4017370D01*
X6616300Y4030070D01*
X6608250Y4040650D01*
X6593770Y4047000D01*
X6579300Y4044880D01*
X6564820Y4036420D01*
G01X6378260Y5620000D02*
X6365390Y5622120D01*
X6354130Y5630580D01*
X6344480Y5643280D01*
X6338040Y5658100D01*
X6334820Y5675030D01*
Y5691970D01*
X6338040Y5708900D01*
X6344480Y5723720D01*
X6354130Y5736420D01*
X6365390Y5744880D01*
X6378260Y5747000D01*
X6391130Y5744880D01*
X6402390Y5736420D01*
X6412040Y5723720D01*
X6418480Y5708900D01*
X6421700Y5691970D01*
Y5675030D01*
X6418480Y5658100D01*
X6412040Y5643280D01*
X6402390Y5630580D01*
X6391130Y5622120D01*
X6378260Y5620000D01*
G01X6391130Y5653870D02*
X6410430Y5620000D01*
G01X6507800D02*
Y5747000D01*
X6488500Y5721600D01*
G01Y5620000D02*
X6527100D01*
G54D12*
G01X4425000Y2750000D02*
X5340000D01*
Y3300000D01*
X4425000D01*
Y2750000D01*
G01X4825000Y640000D02*
X5740000D01*
Y1190000D01*
X4825000D01*
Y640000D01*
G01X4895000Y7090000D02*
X5810000D01*
Y7640000D01*
X4895000D01*
Y7090000D01*
G01X5900000Y2715000D02*
Y1800000D01*
X6450000D01*
Y2715000D01*
X5900000D01*
G54D13*
G01X4311320Y2744570D02*
Y2917070D01*
G01X4210000Y2830000D02*
X4410000D01*
G01X4620000Y7180000D02*
X4820000D01*
G01X4880000Y500000D02*
X5080000D01*
G01X4720000Y7080000D02*
Y7280000D01*
G01X4980000Y400000D02*
Y600000D01*
G01X5090000Y2680000D02*
X5290000D01*
G01X5470000Y510000D02*
X5670000D01*
G01X5690000Y2590000D02*
Y2390000D01*
G01X5590000Y2490000D02*
X5790000D01*
G01X5560000Y7020000D02*
X5760000D01*
G01X5820000Y2050000D02*
Y1850000D01*
M02*
