G04 ================== begin FILE IDENTIFICATION RECORD ==================*
G04 Layout Name:  G:/Work/sh-z-003/design/HW/pcb/sh-z-003_nc.brd*
G04 Film Name:    SOLDERMASK_TOP*
G04 File Format:  Gerber RS274X*
G04 File Origin:  Cadence Allegro 17.2-S007*
G04 Origin Date:  Sun Aug 05 17:17:40 2018*
G04 *
G04 Layer:  VIA CLASS/SOLDERMASK_TOP*
G04 Layer:  PIN/SOLDERMASK_TOP*
G04 Layer:  PACKAGE GEOMETRY/SOLDERMASK_TOP*
G04 Layer:  BOARD GEOMETRY/SOLDERMASK_TOP*
G04 *
G04 Offset:    (0.0000 0.0000)*
G04 Mirror:    No*
G04 Mode:      Positive*
G04 Rotation:  0*
G04 FullContactRelief:  No*
G04 UndefLineWidth:     0.2000*
G04 ================== end FILE IDENTIFICATION RECORD ====================*
%FSLAX25Y25*MOMM*%
%IR0*IPPOS*OFA0.00000B0.00000*MIA0B0*SFA1.00000B1.00000*%
%ADD17R,2.2X.4*%
%ADD25R,.4X1.4*%
%ADD11R,1.1X.7*%
%ADD24R,1.4X.4*%
%ADD21R,.7X1.7*%
%ADD28R,.7X1.9*%
%ADD20R,1.9X.7*%
%ADD34R,1.2X1.2*%
%ADD22R,2.X2.2*%
%ADD26R,1.2X1.2*%
%ADD15R,1.4X2.*%
%ADD16R,1.X1.6*%
%ADD35R,2.4X1.2*%
%ADD29R,1.6X1.*%
%ADD10R,1.X1.7*%
%ADD27R,1.2X2.4*%
%ADD14R,1.7X1.*%
%ADD30R,2.4X3.2*%
%ADD37R,3.2X2.4*%
%ADD32R,2.X3.8*%
%ADD31R,1.8X1.4*%
%ADD19C,2.2*%
%ADD33C,2.4*%
%ADD23R,1.X1.*%
%ADD12C,1.7*%
%ADD18R,2.2X2.2*%
%ADD36R,2.4X2.4*%
%ADD13R,1.7X1.7*%
%LPD*%
G75*
G54D10*
X340000Y230000D03*
Y650000D03*
Y450000D03*
X530000Y230000D03*
Y650000D03*
Y450000D03*
X670000Y1910000D03*
X580000Y2120000D03*
Y2330000D03*
Y2530000D03*
Y2730000D03*
X540000Y2930000D03*
Y3130000D03*
Y3330000D03*
X810000Y1490000D03*
X860000Y1910000D03*
X770000Y2120000D03*
Y2330000D03*
Y2530000D03*
Y2730000D03*
X730000Y2930000D03*
Y3130000D03*
X970000Y3300000D03*
X730000Y3330000D03*
X1000000Y1490000D03*
X1160000Y3300000D03*
X1060000Y5640000D03*
Y5840000D03*
X1250000Y5640000D03*
Y5840000D03*
X1600000Y1320000D03*
X1860000Y1080000D03*
X1790000Y1320000D03*
X2050000Y1080000D03*
X2650000Y990000D03*
X2840000D03*
X3260000Y3030000D03*
Y3230000D03*
X3450000Y3030000D03*
Y3230000D03*
X4360000Y7370000D03*
X4560000Y3470000D03*
X4550000Y7370000D03*
X4960000Y1400000D03*
X4750000Y3470000D03*
X5150000Y1400000D03*
X5720000Y2880000D03*
X5530000D03*
X5740000Y3110000D03*
Y3370000D03*
X5930000Y3110000D03*
Y3370000D03*
X5870000Y5050000D03*
X6000000Y5480000D03*
X5810000D03*
X6180000Y1270000D03*
X6260000Y5050000D03*
X6060000D03*
X6370000Y1270000D03*
X6480000Y5050000D03*
G54D20*
X874000Y320000D03*
Y447000D03*
Y574000D03*
Y701000D03*
X1410000Y320000D03*
Y574000D03*
Y447000D03*
Y701000D03*
X2240000Y4380000D03*
Y4480000D03*
Y4580000D03*
Y4680000D03*
Y4780000D03*
Y4880000D03*
Y4980000D03*
Y5080000D03*
Y5180000D03*
Y5280000D03*
Y5380000D03*
Y5480000D03*
Y5580000D03*
Y5680000D03*
Y5780000D03*
Y5880000D03*
Y5980000D03*
Y6080000D03*
Y6180000D03*
Y6280000D03*
Y6380000D03*
X5260000Y4580000D03*
Y4480000D03*
Y4380000D03*
Y4880000D03*
Y4780000D03*
Y4680000D03*
Y5080000D03*
Y4980000D03*
Y5380000D03*
Y5280000D03*
Y5180000D03*
Y5680000D03*
Y5580000D03*
Y5480000D03*
Y5880000D03*
Y5780000D03*
Y6180000D03*
Y6080000D03*
Y5980000D03*
Y6480000D03*
Y6380000D03*
Y6280000D03*
G54D11*
X430000Y880000D03*
Y1070000D03*
X670000Y975000D03*
X5250000Y3465000D03*
X5490000Y3560000D03*
Y3370000D03*
X5740000Y3695000D03*
X5980000Y3790000D03*
Y3600000D03*
X6240000Y5290000D03*
Y5480000D03*
X6480000Y5385000D03*
G54D12*
X260000Y1356000D03*
X280000Y2286000D03*
X270000Y4924000D03*
X1934000Y276000D03*
Y530000D03*
X2188000Y276000D03*
Y530000D03*
X2442000Y276000D03*
Y530000D03*
X2696000Y276000D03*
Y530000D03*
X2950000Y276000D03*
X3584000D03*
Y530000D03*
X3838000Y276000D03*
Y530000D03*
X3850000Y2832000D03*
Y3086000D03*
X4092000Y276000D03*
Y530000D03*
X4104000Y2832000D03*
Y3086000D03*
Y3340000D03*
X4346000Y276000D03*
Y530000D03*
X4600000Y276000D03*
G54D30*
X4560000Y3030000D03*
X4960000Y920000D03*
X5030000Y7370000D03*
X5210000Y3030000D03*
X5610000Y920000D03*
X5680000Y7370000D03*
G54D21*
X716000Y3745000D03*
Y4380000D03*
X970000Y3745000D03*
Y4380000D03*
G54D13*
X260000Y1610000D03*
X280000Y2540000D03*
X270000Y4670000D03*
X2950000Y530000D03*
X3850000Y3340000D03*
X4600000Y530000D03*
G54D31*
X4960000Y1701000D03*
Y1930000D03*
Y2159000D03*
G54D22*
X810000Y4920000D03*
X1180000D03*
G54D23*
X1000000Y5300000D03*
X1060000Y6150000D03*
X1340000Y5300000D03*
X1400000Y6150000D03*
G54D32*
X5580000Y1930000D03*
G54D14*
X320000Y4090000D03*
Y4280000D03*
X1670000Y3720000D03*
Y3910000D03*
X1770000Y4790000D03*
Y4980000D03*
X1750000Y6180000D03*
Y6370000D03*
X2840000Y1220000D03*
Y1410000D03*
X2900000Y7570000D03*
Y7380000D03*
X3310000Y1380000D03*
Y1570000D03*
X3510000Y1380000D03*
Y1570000D03*
X3520000Y7390000D03*
Y7580000D03*
X3710000Y1690000D03*
X3910000D03*
X3710000Y1880000D03*
X3910000D03*
X4110000Y2000000D03*
Y2190000D03*
X4310000Y2000000D03*
Y2190000D03*
X4510000Y2310000D03*
Y2500000D03*
X4710000Y2310000D03*
Y2500000D03*
X6260000Y2980000D03*
Y3170000D03*
X6250000Y3410000D03*
Y3600000D03*
X6460000Y2980000D03*
Y3170000D03*
X6470000Y3600000D03*
Y3790000D03*
G54D33*
X5919000Y380000D03*
G54D15*
X285000Y5480000D03*
Y6280000D03*
G54D24*
X1325000Y1930000D03*
Y1980000D03*
Y2030000D03*
Y2080000D03*
Y2130000D03*
Y2180000D03*
Y2230000D03*
Y2280000D03*
Y2330000D03*
Y2380000D03*
Y2430000D03*
Y2480000D03*
Y2530000D03*
Y2580000D03*
Y2630000D03*
Y2680000D03*
Y2730000D03*
Y2780000D03*
Y2830000D03*
Y2880000D03*
Y2930000D03*
Y2980000D03*
Y3030000D03*
Y3080000D03*
Y3130000D03*
X2875000Y1930000D03*
Y2180000D03*
Y2130000D03*
Y2080000D03*
Y2030000D03*
Y1980000D03*
Y2480000D03*
Y2430000D03*
Y2380000D03*
Y2330000D03*
Y2280000D03*
Y2230000D03*
Y2730000D03*
Y2680000D03*
Y2630000D03*
Y2580000D03*
Y2530000D03*
Y2980000D03*
Y2930000D03*
Y2880000D03*
Y2830000D03*
Y2780000D03*
Y3130000D03*
Y3080000D03*
Y3030000D03*
G54D16*
X680000Y1700000D03*
X820000Y1280000D03*
X860000Y1700000D03*
X1000000Y1280000D03*
G54D34*
X6015000Y4380000D03*
X5885000Y6280000D03*
G54D25*
X1750000Y1755000D03*
X1700000D03*
X1650000D03*
X1600000D03*
X1550000D03*
X1500000D03*
Y3305000D03*
X1550000D03*
X1600000D03*
X1650000D03*
X1700000D03*
X1750000D03*
X2000000Y1755000D03*
X1950000D03*
X1900000D03*
X1850000D03*
X1800000D03*
Y3305000D03*
X1850000D03*
X1900000D03*
X1950000D03*
X2000000D03*
X2250000Y1755000D03*
X2200000D03*
X2150000D03*
X2100000D03*
X2050000D03*
Y3305000D03*
X2100000D03*
X2150000D03*
X2200000D03*
X2250000D03*
X2550000Y1755000D03*
X2500000D03*
X2450000D03*
X2400000D03*
X2350000D03*
X2300000D03*
Y3305000D03*
X2350000D03*
X2400000D03*
X2450000D03*
X2500000D03*
X2550000D03*
X2700000Y1755000D03*
X2650000D03*
X2600000D03*
Y3305000D03*
X2650000D03*
X2700000D03*
G54D35*
X6040000Y6080000D03*
Y6480000D03*
X6170000Y4180000D03*
Y4580000D03*
G54D26*
X2030000Y7545000D03*
G54D17*
X575000Y5750000D03*
Y5815000D03*
Y5880000D03*
Y5945000D03*
Y6010000D03*
G54D36*
X6300000Y380000D03*
G54D18*
X750000Y6790000D03*
G54D27*
X1830000Y7390000D03*
X2230000D03*
G54D19*
X750000Y7290000D03*
G54D37*
X6180000Y1930000D03*
Y2580000D03*
G54D28*
X2800000Y3920000D03*
X2700000D03*
Y6940000D03*
X2800000D03*
X3100000Y3920000D03*
X3000000D03*
X2900000D03*
Y6940000D03*
X3000000D03*
X3100000D03*
X3300000Y3920000D03*
X3200000D03*
Y6940000D03*
X3300000D03*
X3600000Y3920000D03*
X3500000D03*
X3400000D03*
Y6940000D03*
X3500000D03*
X3600000D03*
X3900000Y3920000D03*
X3800000D03*
X3700000D03*
Y6940000D03*
X3800000D03*
X3900000D03*
X4100000Y3920000D03*
X4000000D03*
Y6940000D03*
X4100000D03*
X4400000Y3920000D03*
X4300000D03*
X4200000D03*
Y6940000D03*
X4300000D03*
X4400000D03*
X4700000Y3920000D03*
X4600000D03*
X4500000D03*
Y6940000D03*
X4600000D03*
X4700000D03*
X4800000Y3920000D03*
Y6940000D03*
G54D29*
X3250000Y7390000D03*
Y7570000D03*
M02*
