G04 ================== begin FILE IDENTIFICATION RECORD ==================*
G04 Layout Name:  G:/Work/sh-z-003/design/HW/pcb/sh-z-003_nc.brd*
G04 Film Name:    TOP*
G04 File Format:  Gerber RS274X*
G04 File Origin:  Cadence Allegro 17.2-S007*
G04 Origin Date:  Sun Aug 05 17:11:58 2018*
G04 *
G04 Layer:  VIA CLASS/TOP*
G04 Layer:  PIN/TOP*
G04 Layer:  ETCH/TOP*
G04 *
G04 Offset:    (0.0000 0.0000)*
G04 Mirror:    No*
G04 Mode:      Positive*
G04 Rotation:  0*
G04 FullContactRelief:  No*
G04 UndefLineWidth:     0.2000*
G04 ================== end FILE IDENTIFICATION RECORD ====================*
%FSLAX25Y25*MOMM*%
%IR0*IPPOS*OFA0.00000B0.00000*MIA0B0*SFA1.00000B1.00000*%
%ADD27R,.3X1.2*%
%ADD26R,1.2X.3*%
%ADD11R,1.X.6*%
%ADD19R,2.X.35*%
%ADD23R,.6X1.5*%
%ADD17R,.8X1.4*%
%ADD40R,.8X1.5*%
%ADD31R,1.4X.8*%
%ADD30R,.6X1.8*%
%ADD10R,.9X1.5*%
%ADD22R,1.8X.6*%
%ADD15R,1.5X.9*%
%ADD12C,.6*%
%ADD25R,.8X.8*%
%ADD36R,1.1X1.1*%
%ADD28R,1.1X1.1*%
%ADD37R,2.2X1.1*%
%ADD32R,2.2X3.*%
%ADD29R,1.1X2.2*%
%ADD39R,3.X2.2*%
%ADD33R,1.6X1.2*%
%ADD24R,1.8X2.*%
%ADD16R,1.2X1.8*%
%ADD18C,1.*%
%ADD21C,2.*%
%ADD35C,2.2*%
%ADD34R,1.8X3.6*%
%ADD13C,1.6*%
%ADD20R,2.X2.*%
%ADD38R,2.2X2.2*%
%ADD14R,1.6X1.6*%
%ADD41C,.2*%
%ADD42C,.3*%
%ADD43C,.5*%
%ADD44C,.25*%
%ADD45C,.8*%
%ADD46C,.35*%
%ADD47C,1.2*%
%ADD48C,2.0004*%
%ADD49C,2.4004*%
%ADD50C,2.6004*%
G75*
%LPD*%
G75*
G36*
G01X50010Y50010D02*
Y7649990D01*
X2818370D01*
Y7634630D01*
X2813910Y7631670D01*
G03X2807670Y7625020I11096J-16664D01*
G01X2804780Y7620020D01*
X1975000D01*
G03X1954980Y7600000I0J-20020D01*
G01Y7490000D01*
G03X1975000Y7469980I20020J0D01*
G01X2085000D01*
G03X2105020Y7490000I0J20020D01*
G01Y7519980D01*
X2156690D01*
Y7508270D01*
X2156120Y7506660D01*
G03X2154980Y7500000I18884J-6660D01*
G01Y7280000D01*
G03X2175000Y7259980I20020J0D01*
G01X2285000D01*
G03X2305020Y7280000I0J20020D01*
G01Y7500000D01*
G03X2303880Y7506660I-20024J0D01*
G01X2303310Y7508270D01*
Y7519980D01*
X2804780D01*
X2807670Y7514980D01*
G03X2825000Y7504980I17330J10016D01*
G01X2975000D01*
G03X2993870Y7518320I0J20016D01*
G01X2996230Y7524980D01*
X3159780D01*
X3162670Y7519980D01*
G03X3180000Y7509980I17330J10016D01*
G01X3320000D01*
G03X3340020Y7530000I0J20020D01*
G01Y7610000D01*
G03X3337340Y7620000I-20018J-6D01*
G02X3354670Y7649990I17328J9989D01*
G01X3405290D01*
G02X3425140Y7627500I5J-20001D01*
G03X3424980Y7625000I19858J-2526D01*
G01Y7535000D01*
G03X3445000Y7514980I20020J0D01*
G01X3595000D01*
G03X3613220Y7526700I0J20022D01*
G01X3615880Y7532550D01*
X3727430D01*
G03X3764230Y7616450I0J50021D01*
G02X3778950Y7649990I14718J13541D01*
G01X6649990D01*
Y3900740D01*
G02X6615850Y3886600I-19998J0D01*
G01X6562420Y3940020D01*
X5402440D01*
X4900020Y4442440D01*
Y5692430D01*
X4030020Y6562430D01*
Y6829980D01*
X4830000D01*
G03X4850020Y6850000I0J20020D01*
G01Y7030000D01*
G03X4830000Y7050020I-20020J0D01*
G01X4650020D01*
Y7220720D01*
X4620020Y7250720D01*
Y7289980D01*
X4899980D01*
Y7220000D01*
G03X4920000Y7199980I20020J0D01*
G01X4949980D01*
Y7110000D01*
G03X5110020I80020J0D01*
G01Y7199980D01*
X5140000D01*
G03X5160020Y7220000I0J20020D01*
G01Y7520000D01*
G03X5140000Y7540020I-20020J0D01*
G01X4920000D01*
G03X4899980Y7520000I0J-20020D01*
G01Y7450020D01*
X4615220D01*
X4612330Y7455020D01*
G03X4595000Y7465020I-17330J-10016D01*
G01X4505000D01*
G03X4484980Y7445000I0J-20020D01*
G01Y7416740D01*
X4483310Y7414230D01*
G03X4479980Y7331270I66690J-44224D01*
G01Y7250720D01*
X4449980Y7220720D01*
Y7050020D01*
X2950020D01*
Y7314980D01*
X2975000D01*
G03X2995020Y7335000I0J20020D01*
G01Y7425000D01*
G03X2975000Y7445020I-20020J0D01*
G01X2825000D01*
G03X2804980Y7425000I0J-20020D01*
G01Y7335000D01*
G03X2825000Y7314980I20020J0D01*
G01X2849980D01*
Y7050020D01*
X2670000D01*
G03X2649980Y7030000I0J-20020D01*
G01Y6850000D01*
G03X2670000Y6829980I20020J0D01*
G01X3569980D01*
Y6787560D01*
X4739980Y5617560D01*
Y4337570D01*
X5140310Y3937240D01*
X5140060Y3932780D01*
G03X5142720Y3913660I49942J-2797D01*
G01X5144770Y3907750D01*
X5133270Y3896250D01*
X3964510Y5065020D01*
X2415490D01*
X2365490Y5015020D01*
X2350220D01*
X2347330Y5020020D01*
G03X2344930Y5023340I-17339J-10007D01*
G02Y5036660I7457J6660D01*
G03X2350020Y5050000I-14936J13340D01*
G01Y5110000D01*
G03X2344930Y5123340I-20026J0D01*
G02Y5136660I7457J6660D01*
G03X2350020Y5150000I-14936J13340D01*
G01Y5210000D01*
G03X2344930Y5223340I-20026J0D01*
G02Y5236660I7457J6660D01*
G03X2350020Y5250000I-14936J13340D01*
G01Y5310000D01*
G03X2344930Y5323340I-20026J0D01*
G02Y5336660I7457J6660D01*
G03X2347330Y5339980I-14939J13327D01*
G01X2350220Y5344980D01*
X4454280D01*
G03Y5415020I35720J35020D01*
G01X2350220D01*
X2347330Y5420020D01*
G03X2344930Y5423340I-17339J-10007D01*
G02Y5436660I7457J6660D01*
G03X2350020Y5450000I-14936J13340D01*
G01Y5510000D01*
G03X2344930Y5523340I-20026J0D01*
G02Y5536660I7457J6660D01*
G03X2350020Y5550000I-14936J13340D01*
G01Y5610000D01*
G03X2344930Y5623340I-20026J0D01*
G02Y5636660I7457J6660D01*
G03X2350020Y5650000I-14936J13340D01*
G01Y5710000D01*
G03X2344930Y5723340I-20026J0D01*
G02Y5736660I7457J6660D01*
G03X2350020Y5750000I-14936J13340D01*
G01Y5810000D01*
G03X2344930Y5823340I-20026J0D01*
G02Y5836660I7457J6660D01*
G03X2350020Y5850000I-14936J13340D01*
G01Y5910000D01*
G03X2344930Y5923340I-20026J0D01*
G02Y5936660I7457J6660D01*
G03X2350020Y5950000I-14936J13340D01*
G01Y6010000D01*
G03X2344930Y6023340I-20026J0D01*
G02Y6036660I7457J6660D01*
G03X2350020Y6050000I-14936J13340D01*
G01Y6110000D01*
G03X2344930Y6123340I-20026J0D01*
G02Y6136660I7457J6660D01*
G03X2350020Y6150000I-14936J13340D01*
G01Y6210000D01*
G03X2344930Y6223340I-20026J0D01*
G02Y6236660I7457J6660D01*
G03X2350020Y6250000I-14936J13340D01*
G01Y6310000D01*
G03X2344930Y6323340I-20026J0D01*
G02Y6336660I7457J6660D01*
G03X2350020Y6350000I-14936J13340D01*
G01Y6410000D01*
G03X2330000Y6430020I-20020J0D01*
G01X2150000D01*
G03X2129980Y6410000I0J-20020D01*
G01Y6350000D01*
G03X2135070Y6336660I20026J0D01*
G02Y6323340I-7457J-6660D01*
G03X2129980Y6310000I14936J-13340D01*
G01Y6250000D01*
G03X2135070Y6236660I20026J0D01*
G02Y6223340I-7457J-6660D01*
G03X2132670Y6220020I14939J-13327D01*
G01X2129780Y6215020D01*
X1845030D01*
X1845020Y6225010D01*
G03X1825000Y6245020I-20020J-10D01*
G01X1675000D01*
G03X1654980Y6225000I0J-20020D01*
G01Y6135000D01*
G03X1675000Y6114980I20020J0D01*
G01X1825000D01*
G03X1845020Y6134990I0J20020D01*
G01X1845030Y6144980D01*
X2129780D01*
X2132670Y6139980D01*
G03X2135070Y6136660I17339J10007D01*
G02Y6123340I-7457J-6660D01*
G03X2129980Y6110000I14936J-13340D01*
G01Y6050000D01*
G03X2135070Y6036660I20026J0D01*
G02Y6023340I-7457J-6660D01*
G03X2129980Y6010000I14936J-13340D01*
G01Y5950000D01*
G03X2135070Y5936660I20026J0D01*
G02Y5923340I-7457J-6660D01*
G03X2129980Y5910000I14936J-13340D01*
G01Y5850000D01*
G03X2135070Y5836660I20026J0D01*
G02Y5823340I-7457J-6660D01*
G03X2129980Y5810000I14936J-13340D01*
G01Y5750000D01*
G03X2135070Y5736660I20026J0D01*
G02Y5723340I-7457J-6660D01*
G03X2129980Y5710000I14936J-13340D01*
G01Y5650000D01*
G03X2135070Y5636660I20026J0D01*
G02Y5623340I-7457J-6660D01*
G03X2129980Y5610000I14936J-13340D01*
G01Y5550000D01*
G03X2135070Y5536660I20026J0D01*
G02Y5523340I-7457J-6660D01*
G03X2129980Y5510000I14936J-13340D01*
G01Y5450000D01*
G03X2135070Y5436660I20026J0D01*
G02Y5423340I-7457J-6660D01*
G03X2129980Y5410000I14936J-13340D01*
G01Y5350000D01*
G03X2135070Y5336660I20026J0D01*
G02Y5323340I-7457J-6660D01*
G03X2131130Y5316680I14935J-13331D01*
G01X2128770Y5310020D01*
X1792430D01*
X1315020Y5787430D01*
Y5915000D01*
G03X1295000Y5935020I-20020J0D01*
G01X1205000D01*
G03X1184980Y5915000I0J-20020D01*
G01Y5765000D01*
G03X1189370Y5752490I20020J0D01*
G02Y5727510I-15620J-12490D01*
G03X1184980Y5715000I15630J-12510D01*
G01Y5565000D01*
G03X1205000Y5544980I20020J0D01*
G01X1295000D01*
G03X1315020Y5565000I0J20020D01*
G01Y5609980D01*
X1347570D01*
X1747570Y5209980D01*
X2047570D01*
X2107570Y5149980D01*
X2128770D01*
X2131130Y5143320D01*
G03X2135070Y5136660I18875J6671D01*
G02Y5123340I-7457J-6660D01*
G03X2129980Y5110000I14936J-13340D01*
G01Y5050000D01*
G03X2135070Y5036660I20026J0D01*
G02Y5023340I-7457J-6660D01*
G03X2132670Y5020020I14939J-13327D01*
G01X2129780Y5015020D01*
X1865030D01*
X1865020Y5025010D01*
G03X1845000Y5045020I-20020J-10D01*
G01X1695000D01*
G03X1674980Y5025000I0J-20020D01*
G01Y4935000D01*
G03X1695000Y4914980I20020J0D01*
G01X1845000D01*
G03X1865020Y4934990I0J20020D01*
G01X1865030Y4944980D01*
X2129780D01*
X2132670Y4939980D01*
G03X2135070Y4936660I17339J10007D01*
G02Y4923340I-7457J-6660D01*
G03X2129980Y4910000I14936J-13340D01*
G01Y4850000D01*
G03X2135070Y4836660I20026J0D01*
G02Y4823340I-7457J-6660D01*
G03X2129980Y4810000I14936J-13340D01*
G01Y4750000D01*
G03X2135070Y4736660I20026J0D01*
G02Y4723340I-7457J-6660D01*
G03X2129980Y4710000I14936J-13340D01*
G01Y4650000D01*
G03X2135070Y4636660I20026J0D01*
G02Y4623340I-7457J-6660D01*
G03X2129980Y4610000I14936J-13340D01*
G01Y4550000D01*
G03X2135070Y4536660I20026J0D01*
G02Y4523340I-7457J-6660D01*
G03X2129980Y4510000I14936J-13340D01*
G01Y4450000D01*
G03X2135070Y4436660I20026J0D01*
G02Y4423340I-7457J-6660D01*
G03X2129980Y4410000I14936J-13340D01*
G01Y4350000D01*
G03X2150000Y4329980I20020J0D01*
G01X2330000D01*
G03X2350020Y4350000I0J20020D01*
G01Y4410000D01*
G03X2344930Y4423340I-20026J0D01*
G02Y4436660I7457J6660D01*
G03X2347330Y4439980I-14939J13327D01*
G01X2350220Y4444980D01*
X2364090D01*
X2366920Y4442480D01*
G03X2381060Y4433700I33089J37513D01*
G02X2390350Y4404430I-7568J-18511D01*
G03X2435280Y4327560I42151J-26929D01*
G01X2439740Y4327810D01*
X2489980Y4277570D01*
Y4270760D01*
G02X2455840Y4256620I-19998J0D01*
G01X2406430Y4306020D01*
X2130010D01*
G03Y4245980I-40010J-30020D01*
G01X2313710D01*
G02X2331500Y4216850I-2J-19998D01*
G03X2370580Y4144270I44498J-22852D01*
G02X2388410Y4124390I-2168J-19880D01*
G01Y3692330D01*
G02X2354270Y3678190I-19998J0D01*
G01X2120020Y3912430D01*
Y4108990D01*
G03X2059980I-30020J40010D01*
G01Y3887570D01*
X2469980Y3477570D01*
Y3385020D01*
X1880020D01*
Y3982430D01*
X1706430Y4156020D01*
X1380010D01*
G03Y4095980I-40010J-30020D01*
G01X1681570D01*
X1819980Y3957570D01*
Y3690760D01*
G02X1785840Y3676620I-19998J0D01*
G01X1765020Y3697430D01*
Y3765000D01*
G03X1745000Y3785020I-20020J0D01*
G01X1595000D01*
G03X1574980Y3765000I0J-20020D01*
G01Y3675000D01*
G03X1595000Y3654980I20020J0D01*
G01X1722570D01*
X1769980Y3607570D01*
Y3500760D01*
G02X1735840Y3486620I-19998J0D01*
G01X1632430Y3590020D01*
X1552430D01*
X1029690Y4112760D01*
X1029940Y4117220D01*
G03X982780Y4070060I-49940J2780D01*
G01X987240Y4070310D01*
X1527570Y3529980D01*
X1607570D01*
X1719980Y3417570D01*
Y3385020D01*
X1485000D01*
G03X1464980Y3365000I0J-20020D01*
G01Y3337520D01*
X1225020D01*
Y3375000D01*
G03X1221690Y3386060I-20032J0D01*
G01X1220020Y3388580D01*
Y3433940D01*
G03X1099980I-60020J36060D01*
G01Y3388580D01*
X1098310Y3386060D01*
G03X1094980Y3375000I16702J-11060D01*
G01Y3225000D01*
G03X1115000Y3204980I20020J0D01*
G01X1205000D01*
G03X1225020Y3225000I0J20020D01*
G01Y3272480D01*
X1464980D01*
Y3245000D01*
G03X1485000Y3224980I20020J0D01*
G01X2019980D01*
Y3149980D01*
X2649240D01*
G02X2663380Y3115840I0J-19998D01*
G01X2057570Y2510020D01*
X1405020D01*
Y2545000D01*
G03X1402340Y2555000I-20018J-6D01*
G03X1405020Y2565000I-17338J10006D01*
G01Y2595000D01*
G03X1402340Y2605000I-20018J-6D01*
G03X1405020Y2615000I-17338J10006D01*
G01Y2645000D01*
G03X1402340Y2655000I-20018J-6D01*
G03X1405020Y2665000I-17338J10006D01*
G01Y2695000D01*
G03X1402340Y2705000I-20018J-6D01*
G03X1405020Y2715000I-17338J10006D01*
G01Y2745000D01*
G03X1402340Y2755000I-20018J-6D01*
G03X1405020Y2765000I-17338J10006D01*
G01Y2795000D01*
G03X1402340Y2805000I-20018J-6D01*
G03X1405020Y2815000I-17338J10006D01*
G01Y2845000D01*
G03X1402340Y2855000I-20018J-6D01*
G03X1405020Y2865000I-17338J10006D01*
G01Y2895000D01*
G03X1402340Y2905000I-20018J-6D01*
G03X1405020Y2915000I-17338J10006D01*
G01Y2945000D01*
G03X1402340Y2955000I-20018J-6D01*
G03X1405020Y2965000I-17338J10006D01*
G01Y2995000D01*
G03X1402340Y3005000I-20018J-6D01*
G03X1405020Y3015000I-17338J10006D01*
G01Y3045000D01*
G03X1402340Y3055000I-20018J-6D01*
G03X1405020Y3065000I-17338J10006D01*
G01Y3095000D01*
G03X1402340Y3105000I-20018J-6D01*
G03X1405020Y3115000I-17338J10006D01*
G01Y3145000D01*
G03X1385000Y3165020I-20020J0D01*
G01X1265000D01*
G03X1253940Y3161690I0J-20032D01*
G01X1251420Y3160020D01*
X795020D01*
Y3205000D01*
G03X790630Y3217510I-20020J0D01*
G02Y3242490I15620J12490D01*
G03X795020Y3255000I-15630J12510D01*
G01Y3405000D01*
G03X775010Y3425020I-20020J0D01*
G02X765020Y3435020I10J10000D01*
G01Y3445490D01*
X969510Y3649980D01*
X1000000D01*
G03X1020020Y3670000I0J20020D01*
G01Y3820000D01*
G03X1000000Y3840020I-20020J0D01*
G01X940000D01*
G03X919980Y3820000I0J-20020D01*
G01Y3699510D01*
X694980Y3474510D01*
Y3435020D01*
G02X684990Y3425020I-10000J0D01*
G03X664980Y3405000I10J-20020D01*
G01Y3255000D01*
G03X669370Y3242490I20020J0D01*
G02Y3217510I-15620J-12490D01*
G03X664980Y3205000I15630J-12510D01*
G01Y3055000D01*
G03X669370Y3042490I20020J0D01*
G02Y3017510I-15620J-12490D01*
G03X664980Y3005000I15630J-12510D01*
G01Y2999840D01*
G02X646410Y2979890I-20000J-1D01*
G03X632150Y2976730I3576J-49893D01*
G02X605020Y2995410I-7131J18684D01*
G01Y3005000D01*
G03X600630Y3017510I-20020J0D01*
G02Y3042490I15620J12490D01*
G03X605020Y3055000I-15630J12510D01*
G01Y3205000D01*
G03X600630Y3217510I-20020J0D01*
G02Y3242490I15620J12490D01*
G03X605020Y3255000I-15630J12510D01*
G01Y3405000D01*
G03X585000Y3425020I-20020J0D01*
G01X495000D01*
G03X474980Y3405000I0J-20020D01*
G01Y3365020D01*
X375720D01*
G03Y3294980I-35720J-35020D01*
G01X474980D01*
Y3255000D01*
G03X479370Y3242490I20020J0D01*
G02Y3217510I-15620J-12490D01*
G03X474980Y3205000I15630J-12510D01*
G01Y3055000D01*
G03X479370Y3042490I20020J0D01*
G02Y3017510I-15620J-12490D01*
G03X474980Y3005000I15630J-12510D01*
G01Y2855000D01*
G03X495000Y2834980I20020J0D01*
G01X496240D01*
G02X515610Y2809990I4J-19999D01*
G03X514980Y2805000I19391J-4983D01*
G01Y2655000D01*
G03X519370Y2642490I20020J0D01*
G02Y2617510I-15620J-12490D01*
G03X514980Y2605000I15630J-12510D01*
G01Y2455000D01*
G03X519370Y2442490I20020J0D01*
G02Y2417510I-15620J-12490D01*
G03X514980Y2405000I15630J-12510D01*
G01Y2255000D01*
G03X521750Y2239990I20025J0D01*
G02Y2210010I-13237J-14990D01*
G03X514980Y2195000I13255J-15010D01*
G01Y2045000D01*
G03X535000Y2024980I20020J0D01*
G01X590320D01*
G02X607650Y1995000I2J-19998D01*
G03X604980Y1985000I17353J-9990D01*
G01Y1835000D01*
G03X625000Y1814980I20020J0D01*
G01X715000D01*
G03X735020Y1835000I0J20020D01*
G01Y1985000D01*
G03X715000Y2005020I-20020J0D01*
G01X659680D01*
G02X642350Y2035000I-2J19998D01*
G03X645020Y2045000I-17353J9990D01*
G01Y2054590D01*
G02X672150Y2073270I19999J-4D01*
G03X686410Y2070110I17836J46733D01*
G02X704980Y2050160I-1430J-19949D01*
G01Y2045000D01*
G03X725000Y2024980I20020J0D01*
G01X780320D01*
G02X797650Y1995000I2J-19998D01*
G03X794980Y1985000I17353J-9990D01*
G01Y1835000D01*
G03X814990Y1814980I20020J0D01*
G02X824980Y1804980I-10J-10000D01*
G01Y1791150D01*
X816650Y1789740D01*
G03X799980Y1770000I3353J-19740D01*
G01Y1630000D01*
G03X820000Y1609980I20020J0D01*
G01X900000D01*
G03X920020Y1630000I0J20020D01*
G01Y1770000D01*
G03X903350Y1789740I-20023J0D01*
G01X895020Y1791150D01*
Y1804980D01*
G02X905010Y1814980I10000J0D01*
G03X925020Y1835000I-10J20020D01*
G01Y1959030D01*
X1063470Y2097480D01*
X1133200D01*
G02X1147340Y2063340I-4J-20000D01*
G01X967480Y1883480D01*
Y1585020D01*
X955000D01*
G03X934980Y1565000I0J-20020D01*
G01Y1415000D01*
G03X954990Y1394980I20020J0D01*
G02X964980Y1384980I-10J-10000D01*
G01Y1371150D01*
X956650Y1369740D01*
G03X939980Y1350000I3353J-19740D01*
G01Y1210000D01*
G03X960000Y1189980I20020J0D01*
G01X1040000D01*
G03X1060020Y1210000I0J20020D01*
G01Y1350000D01*
G03X1043350Y1369740I-20023J0D01*
G01X1035020Y1371150D01*
Y1384980D01*
G02X1045010Y1394980I10000J0D01*
G03X1065020Y1415000I-10J20020D01*
G01Y1565000D01*
G03X1045000Y1585020I-20020J0D01*
G01X1032520D01*
Y1856540D01*
X1223460Y2047480D01*
X1244980D01*
Y2010020D01*
X1217580D01*
X1169980Y1962420D01*
Y903180D01*
G02X1135840Y889040I-20000J4D01*
G01X880020Y1144860D01*
Y1350000D01*
G03X860000Y1370020I-20020J0D01*
G01X780000D01*
G03X770000Y1367350I-10J-20023D01*
G02X740020Y1384680I-9982J17328D01*
G01Y1398980D01*
X752690D01*
X755010Y1397650D01*
G03X765000Y1394980I9990J17354D01*
G01X855000D01*
G03X875020Y1415000I0J20020D01*
G01Y1565000D01*
G03X855000Y1585020I-20020J0D01*
G01X765000D01*
G03X762510Y1584860I36J-20018D01*
G02X740020Y1604710I-2489J19846D01*
G01Y1770000D01*
G03X720000Y1790020I-20020J0D01*
G01X640000D01*
G03X619980Y1770010I0J-20020D01*
G01X619970Y1760020D01*
X586150D01*
X583890Y1761270D01*
G03Y1638730I-33890J-61270D01*
G01X586150Y1639980D01*
X619980D01*
Y1311710D01*
X711710Y1219980D01*
X759980D01*
Y1095140D01*
X1039980Y815140D01*
Y160020D01*
X919020D01*
Y269980D01*
X964000D01*
G03X984020Y290000I0J20020D01*
G01Y350000D01*
G03X964000Y370020I-20020J0D01*
G01X784000D01*
G03X763980Y350000I0J-20020D01*
G01Y290000D01*
G03X784000Y269980I20020J0D01*
G01X828980D01*
Y160020D01*
X654860D01*
X595020Y219860D01*
Y305000D01*
G03X575000Y325020I-20020J0D01*
G01X485000D01*
G03X464980Y305000I0J-20020D01*
G01Y155000D01*
G03X485000Y134980I20020J0D01*
G01X510140D01*
X560970Y84150D01*
G02X546830Y50010I-14144J-14140D01*
G01X50010D01*
G37*
G36*
G01X672150Y2166730D02*
G02X645020Y2185410I-7131J18684D01*
G01Y2195000D01*
G03X638250Y2210010I-20025J0D01*
G02Y2239990I13237J14990D01*
G03X645020Y2255000I-13255J15010D01*
G01Y2405000D01*
G03X640630Y2417510I-20020J0D01*
G02Y2442490I15620J12490D01*
G03X645020Y2455000I-15630J12510D01*
G01Y2605000D01*
G03X640630Y2617510I-20020J0D01*
G02Y2642490I15620J12490D01*
G03X645020Y2655000I-15630J12510D01*
G01Y2664590D01*
G02X672150Y2683270I19999J-4D01*
G03X686410Y2680110I17836J46733D01*
G02X704980Y2660160I-1430J-19949D01*
G01Y2655000D01*
G03X709370Y2642490I20020J0D01*
G02Y2617510I-15620J-12490D01*
G03X704980Y2605000I15630J-12510D01*
G01Y2455000D01*
G03X709370Y2442490I20020J0D01*
G02Y2417510I-15620J-12490D01*
G03X704980Y2405000I15630J-12510D01*
G01Y2255000D01*
G03X711750Y2239990I20025J0D01*
G02Y2210010I-13237J-14990D01*
G03X704980Y2195000I13255J-15010D01*
G01Y2189840D01*
G02X686410Y2169890I-20000J-1D01*
G03X672150Y2166730I3576J-49893D01*
G37*
G36*
G01X832350Y2035000D02*
G03X835020Y2045000I-17353J9990D01*
G01Y2169030D01*
X863470Y2197480D01*
X1244980D01*
Y2162520D01*
X1036530D01*
X879030Y2005020D01*
X849680D01*
G02X832350Y2035000I-2J19998D01*
G37*
G36*
G01X853470Y2662520D02*
X835020Y2680970D01*
Y2805000D01*
G03X815000Y2825020I-20020J0D01*
G01X787410D01*
Y2838830D01*
X789940Y2841680D01*
G03X791260Y2843320I-14913J13354D01*
G01X794250Y2847480D01*
X1244980D01*
Y2815000D01*
G03X1247660Y2805000I20018J6D01*
G03X1244980Y2795000I17338J-10006D01*
G01Y2765000D01*
G03X1247660Y2755000I20018J6D01*
G03X1244980Y2745000I17338J-10006D01*
G01Y2715000D01*
G03X1247660Y2705000I20018J6D01*
G03X1244980Y2695000I17338J-10006D01*
G01Y2662520D01*
X853470D01*
G37*
G36*
G01X3205020Y160020D02*
Y1238650D01*
X2988650Y1455020D01*
X2936230D01*
X2933870Y1461680D01*
G03X2915000Y1475020I-18870J-6676D01*
G01X2855020D01*
Y1524280D01*
G03X2784980I-35020J35720D01*
G01Y1505150D01*
G02X2767910Y1498080I-10000J2D01*
G01X2732520Y1533470D01*
Y1685090D01*
X2733350Y1687000D01*
G03X2735020Y1695000I-18349J8005D01*
G01Y1815000D01*
G03X2715000Y1835020I-20020J0D01*
G01X1485000D01*
G03X1464980Y1815000I0J-20020D01*
G01Y1695000D01*
G03X1468310Y1683940I20032J0D01*
G01X1469980Y1681420D01*
Y807560D01*
X1516620Y760920D01*
X1506270Y750570D01*
X1501650Y750950D01*
G03X1500000Y751020I-1673J-19949D01*
G01X1440020D01*
Y773430D01*
X1355020Y858430D01*
Y1894980D01*
X1385000D01*
G03X1405020Y1915000I0J20020D01*
G01Y1945000D01*
G03X1402340Y1955000I-20018J-6D01*
G03X1405020Y1965000I-17338J10006D01*
G01Y1995000D01*
G03X1402340Y2005000I-20018J-6D01*
G03X1405020Y2015000I-17338J10006D01*
G01Y2045000D01*
G03X1402340Y2055000I-20018J-6D01*
G03X1405020Y2065000I-17338J10006D01*
G01Y2095000D01*
G03X1402340Y2105000I-20018J-6D01*
G03X1405020Y2115000I-17338J10006D01*
G01Y2145000D01*
G03X1402340Y2155000I-20018J-6D01*
G03X1405020Y2165000I-17338J10006D01*
G01Y2195000D01*
G03X1402340Y2205000I-20018J-6D01*
G03X1405020Y2215000I-17338J10006D01*
G01Y2245000D01*
G03X1402340Y2255000I-20018J-6D01*
G03X1405020Y2265000I-17338J10006D01*
G01Y2295000D01*
G03X1402340Y2305000I-20018J-6D01*
G03X1405020Y2315000I-17338J10006D01*
G01Y2345000D01*
G03X1402340Y2355000I-20018J-6D01*
G03X1405020Y2365000I-17338J10006D01*
G01Y2395000D01*
G03X1402340Y2405000I-20018J-6D01*
G03X1405020Y2415000I-17338J10006D01*
G01Y2449980D01*
X2082430D01*
X2777910Y3145450D01*
G02X2794980Y3138380I7070J-7072D01*
G01Y3115000D01*
G03X2797660Y3105000I20018J6D01*
G03X2794980Y3095000I17338J-10006D01*
G01Y3065000D01*
G03X2797660Y3055000I20018J6D01*
G03X2794980Y3045000I17338J-10006D01*
G01Y3010020D01*
X2780260D01*
X2777280Y3013350D01*
G03Y2946650I-37280J-33350D01*
G01X2780260Y2949980D01*
X2794980D01*
Y2915000D01*
G03X2797660Y2905000I20018J6D01*
G03X2794980Y2895000I17338J-10006D01*
G01Y2865000D01*
G03X2797660Y2855000I20018J6D01*
G03X2794980Y2845000I17338J-10006D01*
G01Y2815000D01*
G03X2797660Y2805000I20018J6D01*
G03X2794980Y2795000I17338J-10006D01*
G01Y2765000D01*
G03X2797660Y2755000I20018J6D01*
G03X2794980Y2745000I17338J-10006D01*
G01Y2715000D01*
G03X2797660Y2705000I20018J6D01*
G03X2794980Y2695000I17338J-10006D01*
G01Y2665000D01*
G03X2797660Y2655000I20018J6D01*
G03X2794980Y2645000I17338J-10006D01*
G01Y2615000D01*
G03X2797660Y2605000I20018J6D01*
G03X2794980Y2595000I17338J-10006D01*
G01Y2565000D01*
G03X2797660Y2555000I20018J6D01*
G03X2794980Y2545000I17338J-10006D01*
G01Y2515000D01*
G03X2797660Y2505000I20018J6D01*
G03X2794980Y2495000I17338J-10006D01*
G01Y2465000D01*
G03X2797660Y2455000I20018J6D01*
G03X2794980Y2445000I17338J-10006D01*
G01Y2415000D01*
G03X2797660Y2405000I20018J6D01*
G03X2794980Y2395000I17338J-10006D01*
G01Y2365000D01*
G03X2797660Y2355000I20018J6D01*
G03X2794980Y2345000I17338J-10006D01*
G01Y2315000D01*
G03X2797660Y2305000I20018J6D01*
G03X2794980Y2295000I17338J-10006D01*
G01Y2265000D01*
G03X2797660Y2255000I20018J6D01*
G03X2794980Y2245000I17338J-10006D01*
G01Y2215000D01*
G03X2797660Y2205000I20018J6D01*
G03X2794980Y2195000I17338J-10006D01*
G01Y2165000D01*
G03X2797660Y2155000I20018J6D01*
G03X2794980Y2145000I17338J-10006D01*
G01Y2115000D01*
G03X2797660Y2105000I20018J6D01*
G03X2794980Y2095000I17338J-10006D01*
G01Y2065000D01*
G03X2797660Y2055000I20018J6D01*
G03X2794980Y2045000I17338J-10006D01*
G01Y2015000D01*
G03X2797660Y2005000I20018J6D01*
G03X2794980Y1995000I17338J-10006D01*
G01Y1965000D01*
G03X2797660Y1955000I20018J6D01*
G03X2794980Y1945000I17338J-10006D01*
G01Y1915000D01*
G03X2815000Y1894980I20020J0D01*
G01X2935000D01*
G03X2955020Y1915000I0J20020D01*
G01Y1945000D01*
G03X2952340Y1955000I-20018J-6D01*
G03X2955020Y1965000I-17338J10006D01*
G01Y1995000D01*
G03X2952340Y2005000I-20018J-6D01*
G03X2955020Y2015000I-17338J10006D01*
G01Y2045000D01*
G03X2952340Y2055000I-20018J-6D01*
G03X2955020Y2065000I-17338J10006D01*
G01Y2073380D01*
G02X2972090Y2080450I9999J1D01*
G01X2989980Y2062570D01*
Y1552570D01*
X3192570Y1349980D01*
X3214980D01*
Y1335000D01*
G03X3235000Y1314980I20020J0D01*
G01X3279980D01*
Y537570D01*
X3495140Y322410D01*
X3492390Y316150D01*
G03X3523950Y196010I91609J-40150D01*
G02X3511940Y160020I-12010J-15991D01*
G01X3205020D01*
G37*
G36*
G01X1656240D02*
Y1227920D01*
X1659160Y1230850D01*
G03X1665020Y1245000I-14154J14150D01*
G01Y1395000D01*
G03X1645000Y1415020I-20020J0D01*
G01X1632520D01*
Y1674980D01*
X2017480D01*
Y1175020D01*
X2005000D01*
G03X1984980Y1155000I0J-20020D01*
G01Y1005000D01*
G03X2005000Y984980I20020J0D01*
G01X2095000D01*
G03X2097490Y985140I-36J20018D01*
G02X2119980Y965290I2489J-19846D01*
G01Y952430D01*
X1779980Y612430D01*
Y387570D01*
X1845140Y322410D01*
X1842390Y316150D01*
G03X1873950Y196010I91609J-40150D01*
G02X1861940Y160020I-12010J-15991D01*
G01X1656240D01*
G37*
G36*
G01X1530020Y1434710D02*
Y1674980D01*
X1567480D01*
Y1415020D01*
X1555000D01*
G03X1552510Y1414860I36J-20018D01*
G02X1530020Y1434710I-2489J19846D01*
G37*
G36*
G01X2756050Y196010D02*
G03X2655850Y367610I-60045J79993D01*
G01X2649590Y364860D01*
X2600020Y414430D01*
Y437090D01*
G02X2632680Y452570I19998J1D01*
G03X2655850Y621610I63318J77429D01*
G01X2649590Y618860D01*
X2530020Y738430D01*
Y1674980D01*
X2617480D01*
Y1085020D01*
X2605000D01*
G03X2584980Y1065000I0J-20020D01*
G01Y915000D01*
G03X2605000Y894980I20020J0D01*
G01X2695000D01*
G03X2715020Y915000I0J20020D01*
G01Y1065000D01*
G03X2695000Y1085020I-20020J0D01*
G01X2682520D01*
Y1443210D01*
G02X2716660Y1457350I20000J-4D01*
G01X2744980Y1429030D01*
Y1365000D01*
G03X2765000Y1344980I20020J0D01*
G01X2915000D01*
G03X2933870Y1358320I0J20016D01*
G01X2936230Y1364980D01*
X2951350D01*
X3114980Y1201350D01*
Y160020D01*
X3022060D01*
G02X3010050Y196010I0J19999D01*
G03X2889950I-60050J79990D01*
G02X2877940Y160020I-12010J-15991D01*
G01X2768060D01*
G02X2756050Y196010I0J19999D01*
G37*
G36*
G01X3946040Y2740020D02*
G02X3930040Y2772010I3J19998D01*
G03X3927760Y2894900I-80040J59981D01*
G02X3943310Y2927480I15551J12579D01*
G01X3991470D01*
X4059950Y2995960D01*
X4066100Y2993440D01*
G03X4011440Y3048100I37900J92560D01*
G01X4013960Y3041950D01*
X3964530Y2992520D01*
X3944900D01*
G02X3929080Y3024760I-3J20000D01*
G03X3934620Y3139320I-79081J61238D01*
G02X3951540Y3169980I16923J10660D01*
G01X3976430D01*
X4057590Y3251140D01*
X4063850Y3248390D01*
G03X4012390Y3299850I40150J91610D01*
G01X4015140Y3293590D01*
X3958740Y3237200D01*
X3947440Y3248500D01*
X3949170Y3254220D01*
G03X3950020Y3260000I-19171J5772D01*
G01Y3420000D01*
G03X3930000Y3440020I-20020J0D01*
G01X3792430D01*
X3742430Y3490020D01*
X2977570D01*
X2769160Y3281620D01*
G02X2735020Y3295760I-14142J14140D01*
G01Y3365000D01*
G03X2734650Y3368820I-20019J-11D01*
G02X2742890Y3380610I9817J1913D01*
G03X2710010Y3473330I-7887J49393D01*
G02X2680020Y3490660I-9990J17326D01*
G01Y3582440D01*
X2550020Y3712440D01*
Y4302430D01*
X2482190Y4370260D01*
X2482440Y4374720D01*
G03X2451440Y4423800I-49943J2785D01*
G02X2442150Y4453070I7568J18511D01*
G03X2401820Y4529990I-42151J26933D01*
G01X2392180Y4530340D01*
Y4549980D01*
X2422430D01*
X2502450Y4630000D01*
Y4899990D01*
G03X2515760Y4964990I-30020J40010D01*
G02X2533090Y4994980I17326J9990D01*
G01X3935490D01*
X5050440Y3880030D01*
G02X5043070Y3847070I-14139J-14142D01*
G03X5010060Y3797220I16932J-47067D01*
G01X5010310Y3792760D01*
X4919980Y3702430D01*
Y3012430D01*
X4647570Y2740020D01*
X4200040D01*
G02X4184040Y2772010I3J19998D01*
G03X4023960I-80040J59990D01*
G02X4007960Y2740020I-16003J-11992D01*
G01X3946040D01*
G37*
G36*
G01X4272440Y2430020D02*
X4192440Y2510020D01*
X2955020D01*
Y2545000D01*
G03X2952340Y2555000I-20018J-6D01*
G03X2955020Y2565000I-17338J10006D01*
G01Y2595000D01*
G03X2952340Y2605000I-20018J-6D01*
G03X2955020Y2615000I-17338J10006D01*
G01Y2645000D01*
G03X2952340Y2655000I-20018J-6D01*
G03X2955020Y2665000I-17338J10006D01*
G01Y2699980D01*
X3107570D01*
X3120310Y2687240D01*
X3120060Y2682780D01*
G03X3205030Y2715700I49940J-2783D01*
G02X3219040Y2749980I14005J14279D01*
G01X3298290D01*
X3468290Y2579980D01*
X4397890D01*
G02X4416440Y2552490I3J-20002D01*
G03X4414980Y2545000I18557J-7505D01*
G01Y2455000D01*
G03X4415140Y2452510I20018J36D01*
G02X4395290Y2430020I-19846J-2489D01*
G01X4272440D01*
G37*
G36*
G01X3562430Y2740020D02*
X3489690Y2812760D01*
X3489940Y2817220D01*
G03X3396120Y2844010I-49942J2778D01*
G02X3364430Y2839460I-17549J9595D01*
G01X3343870Y2860020D01*
X2955020D01*
Y2895000D01*
G03X2952340Y2905000I-20018J-6D01*
G03X2955020Y2915000I-17338J10006D01*
G01Y2945000D01*
G03X2952340Y2955000I-20018J-6D01*
G03X2955020Y2965000I-17338J10006D01*
G01Y2997480D01*
X3194980D01*
Y2955000D01*
G03X3215000Y2934980I20020J0D01*
G01X3305000D01*
G03X3325020Y2955000I0J20020D01*
G01Y3105000D01*
G03X3320630Y3117510I-20020J0D01*
G02Y3142490I15620J12490D01*
G03X3325020Y3155000I-15630J12510D01*
G01Y3279030D01*
X3373470Y3327480D01*
X3387700D01*
Y3315300D01*
X3386790Y3313320D01*
G03X3384980Y3305000I18217J-8320D01*
G01Y3155000D01*
G03X3389370Y3142490I20020J0D01*
G02Y3117510I-15620J-12490D01*
G03X3384980Y3105000I15630J-12510D01*
G01Y2955000D01*
G03X3405000Y2934980I20020J0D01*
G01X3495000D01*
G03X3515020Y2955000I0J20020D01*
G01Y3105000D01*
G03X3510630Y3117510I-20020J0D01*
G02Y3142490I15620J12490D01*
G03X3515020Y3155000I-15630J12510D01*
G01Y3270710D01*
G02X3549160Y3284850I20000J-4D01*
G01X3597480Y3236530D01*
Y3076530D01*
X3746530Y2927480D01*
X3756690D01*
G02X3772240Y2894900I-1J-20001D01*
G03X3769960Y2772010I77760J-62909D01*
G02X3753960Y2740020I-16003J-11992D01*
G01X3562430D01*
G37*
G36*
G01X2955020Y3062520D02*
Y3097480D01*
X3063470D01*
X3163470Y3197480D01*
X3194980D01*
Y3155000D01*
G03X3199370Y3142490I20020J0D01*
G02Y3117510I-15620J-12490D01*
G03X3194980Y3105000I15630J-12510D01*
G01Y3062520D01*
X2955020D01*
G37*
G36*
G01X3679980Y622910D02*
G02X3647320Y607430I-19998J-1D01*
G03X3620380Y623170I-63310J-77435D01*
G01X3614020Y625650D01*
Y652430D01*
X3540020Y726430D01*
Y1314980D01*
X3585000D01*
G03X3605020Y1335000I0J20020D01*
G01Y1425000D01*
G03X3585000Y1445020I-20020J0D01*
G01X3457430D01*
X3396150Y1506300D01*
X3401180Y1513220D01*
G03X3401670Y1513920I-16150J11826D01*
G02X3418330I8330J-5539D01*
G03X3435000Y1504980I16670J11072D01*
G01X3585000D01*
G03X3605020Y1525000I0J20020D01*
G01Y1615000D01*
G03X3604130Y1620910I-20021J7D01*
G02X3603830Y1622130I9542J2993D01*
G03X3600150Y1628260I-9845J-1741D01*
G02X3599220Y1629090I6182J7863D01*
G03X3585000Y1635020I-14220J-14085D01*
G01X3435000D01*
G03X3422490Y1630630I0J-20020D01*
G02X3397510I-12490J15620D01*
G03X3385000Y1635020I-12510J-15630D01*
G01X3235000D01*
G03X3214980Y1615000I0J-20020D01*
G01Y1525000D01*
G03X3215260Y1521680I20019J17D01*
G01X3215400Y1520860D01*
Y1510020D01*
X3192430D01*
X3100020Y1602430D01*
Y2069240D01*
G02X3134160Y2083380I19998J0D01*
G01X3557570Y1659980D01*
X3614980D01*
Y1645000D01*
G03X3615870Y1639090I20021J-7D01*
G02X3616170Y1637870I-9542J-2993D01*
G03X3619850Y1631740I9845J1741D01*
G02X3620780Y1630910I-6182J-7863D01*
G03X3635000Y1624980I14220J14085D01*
G01X3679980D01*
Y622910D01*
G37*
G36*
G01X3974160Y766620D02*
G02X3940020Y780760I-14142J14140D01*
G01Y1624980D01*
X3985000D01*
G03X4005020Y1645000I0J20020D01*
G01Y1735000D01*
G03X3985000Y1755020I-20020J0D01*
G01X3857430D01*
X3796150Y1816300D01*
X3801180Y1823220D01*
G03X3801670Y1823920I-16150J11826D01*
G02X3818330I8330J-5539D01*
G03X3835000Y1814980I16670J11072D01*
G01X3985000D01*
G03X4005020Y1835000I0J20020D01*
G01Y1925000D01*
G03X4004130Y1930910I-20021J7D01*
G02X4003830Y1932130I9542J2993D01*
G03X4000150Y1938260I-9845J-1741D01*
G02X3999220Y1939090I6182J7863D01*
G03X3985000Y1945020I-14220J-14085D01*
G01X3835000D01*
G03X3822490Y1940630I0J-20020D01*
G02X3797510I-12490J15620D01*
G03X3785000Y1945020I-12510J-15630D01*
G01X3635000D01*
G03X3614980Y1925000I0J-20020D01*
G01Y1835000D01*
G03X3615260Y1831680I20019J17D01*
G01X3615400Y1830860D01*
Y1820020D01*
X3572430D01*
X3126620Y2265840D01*
G02X3140760Y2299980I14140J14142D01*
G01X3303820D01*
X3633820Y1969980D01*
X4014980D01*
Y1955000D01*
G03X4015870Y1949090I20021J-7D01*
G02X4016170Y1947870I-9542J-2993D01*
G03X4019850Y1941740I9845J1741D01*
G02X4020780Y1940910I-6182J-7863D01*
G03X4035000Y1934980I14220J14085D01*
G01X4079980D01*
Y872430D01*
X3974160Y766620D01*
G37*
G36*
G01X4374160Y776620D02*
G02X4340020Y790760I-14142J14140D01*
G01Y1934980D01*
X4385000D01*
G03X4405020Y1955000I0J20020D01*
G01Y2045000D01*
G03X4385000Y2065020I-20020J0D01*
G01X4257430D01*
X4196150Y2126300D01*
X4201180Y2133220D01*
G03X4201670Y2133920I-16150J11826D01*
G02X4218330I8330J-5539D01*
G03X4235000Y2124980I16670J11072D01*
G01X4385000D01*
G03X4405020Y2145000I0J20020D01*
G01Y2235000D01*
G03X4404130Y2240910I-20021J7D01*
G02X4403830Y2242130I9542J2993D01*
G03X4400150Y2248260I-9845J-1741D01*
G02X4399220Y2249090I6182J7863D01*
G03X4385000Y2255020I-14220J-14085D01*
G01X4235000D01*
G03X4222490Y2250630I0J-20020D01*
G02X4197510I-12490J15620D01*
G03X4185000Y2255020I-12510J-15630D01*
G01X4035000D01*
G03X4014980Y2235000I0J-20020D01*
G01Y2145000D01*
G03X4015140Y2142510I20018J36D01*
G02X3995290Y2120020I-19846J-2489D01*
G01X3652430D01*
X3406620Y2365840D01*
G02X3420760Y2399980I14140J14142D01*
G01X4137570D01*
X4257570Y2279980D01*
X4414980D01*
Y2265000D01*
G03X4415870Y2259090I20021J-7D01*
G02X4416170Y2257870I-9542J-2993D01*
G03X4419850Y2251740I9845J1741D01*
G02X4420780Y2250910I-6182J-7863D01*
G03X4435000Y2244980I14220J14085D01*
G01X4479980D01*
Y882430D01*
X4374160Y776620D01*
G37*
G36*
G01X3773010Y606030D02*
G02X3740020Y621230I-12991J15206D01*
G01Y1624980D01*
X3785000D01*
G03X3797510Y1629370I0J20020D01*
G02X3822490I12490J-15620D01*
G03X3835000Y1624980I12510J15630D01*
G01X3879980D01*
Y724430D01*
X3807980Y652430D01*
Y625650D01*
X3801620Y623170D01*
G03X3773010Y606030I36378J-93171D01*
G37*
G36*
G01X4040350Y615650D02*
G02X4010020Y632780I-10330J17126D01*
G01Y717570D01*
X4140020Y847570D01*
Y1934980D01*
X4185000D01*
G03X4197510Y1939370I0J20020D01*
G02X4222490I12490J-15620D01*
G03X4235000Y1934980I12510J15630D01*
G01X4279980D01*
Y760430D01*
X4138410Y618860D01*
X4132150Y621610D01*
G03X4040350Y615650I-40146J-91610D01*
G37*
G36*
G01X4418060Y160020D02*
G02X4406050Y196010I0J19999D01*
G03X4305850Y367610I-60045J79993D01*
G01X4299590Y364860D01*
X4260020Y404430D01*
Y429740D01*
G02X4291010Y446450I19999J2D01*
G03X4437610Y570150I54992J83548D01*
G01X4434860Y576410D01*
X4491250Y632790D01*
X4502550Y621490D01*
X4500830Y615770D01*
G03X4499980Y610020I19170J-5772D01*
G01Y450000D01*
G03X4520000Y429980I20020J0D01*
G01X4680000D01*
G03X4700020Y450000I0J20020D01*
G01Y506850D01*
X4943150Y749980D01*
X5070000D01*
G03X5090020Y770000I0J20020D01*
G01Y1070000D01*
G03X5070000Y1090020I-20020J0D01*
G01X5040020D01*
Y1619770D01*
X5046680Y1622130D01*
G03X5060020Y1641000I-6676J18870D01*
G01Y1761000D01*
G03X5040000Y1781020I-20020J0D01*
G01X4880000D01*
G03X4859980Y1761000I0J-20020D01*
G01Y1641000D01*
G03X4873320Y1622130I20016J0D01*
G01X4879980Y1619770D01*
Y1090020D01*
X4850000D01*
G03X4829980Y1070000I0J-20020D01*
G01Y863150D01*
X4596850Y630020D01*
X4519980D01*
G03X4509140Y626820I18J-20021D01*
G01X4497210Y638750D01*
X4740020Y881570D01*
Y2244980D01*
X4785000D01*
G03X4805020Y2265000I0J20020D01*
G01Y2355000D01*
G03X4785000Y2375020I-20020J0D01*
G01X4740020D01*
Y2397430D01*
X4736620Y2400840D01*
G02X4750760Y2434980I14140J14142D01*
G01X4785000D01*
G03X4805020Y2455000I0J20020D01*
G01Y2545000D01*
G03X4803560Y2552490I-20017J-15D01*
G02X4822100Y2579980I18547J7488D01*
G01X5790970D01*
G02X5804970Y2545700I-5J-20001D01*
G03X5804980Y2474280I35030J-35705D01*
G01Y2204510D01*
X5770240Y2169770D01*
X5680240D01*
X5640490Y2130020D01*
X5490000D01*
G03X5469980Y2110000I0J-20020D01*
G01Y2010020D01*
X4880000D01*
G03X4859980Y1990000I0J-20020D01*
G01Y1870000D01*
G03X4880000Y1849980I20020J0D01*
G01X5469980D01*
Y1750000D01*
G03X5490000Y1729980I20020J0D01*
G01X5670000D01*
G03X5690020Y1750000I0J20020D01*
G01Y1849980D01*
X6009980D01*
Y1820000D01*
G03X6030000Y1799980I20020J0D01*
G01X6099980D01*
Y1600000D01*
G03X6119980Y1547080I80013J0D01*
G01Y1358580D01*
X6118310Y1356060D01*
G03X6114980Y1345000I16702J-11060D01*
G01Y1195000D01*
G03X6118310Y1183940I20032J0D01*
G01X6119980Y1181420D01*
Y1065140D01*
X6469980Y715140D01*
Y274860D01*
X6355140Y160020D01*
X4672060D01*
G02X4660050Y196010I0J19999D01*
G03X4539950I-60050J79990D01*
G02X4527940Y160020I-12010J-15991D01*
G01X4418060D01*
G37*
G36*
G01X4392410Y618860D02*
X4386150Y621610D01*
G03X4357620Y629340I-40134J-91614D01*
G02X4345800Y663350I2323J19866D01*
G01X4540020Y857570D01*
Y2244980D01*
X4585000D01*
G03X4597510Y2249370I0J20020D01*
G02X4622490I12490J-15620D01*
G03X4635000Y2244980I12510J15630D01*
G01X4679980D01*
Y906430D01*
X4392410Y618860D01*
G37*
G36*
G01X4720760Y2680020D02*
G02X4706620Y2714160I0J19998D01*
G01X4980020Y2987570D01*
Y3677570D01*
X5052760Y3750310D01*
X5057220Y3750060D01*
G03X5107070Y3783070I2783J49942D01*
G02X5140030Y3790440I18818J-6769D01*
G01X5334980Y3595490D01*
Y3532110D01*
G02X5307490Y3513560I-20002J-3D01*
G03X5300000Y3515020I-7505J-18557D01*
G01X5200000D01*
G03X5179980Y3495000I0J-20020D01*
G01Y3435000D01*
G03X5200000Y3414980I20020J0D01*
G01X5219980D01*
Y3347570D01*
X5499980Y3067570D01*
Y2975020D01*
X5485000D01*
G03X5464980Y2955000I0J-20020D01*
G01Y2827430D01*
X5317570Y2680020D01*
X4720760D01*
G37*
G36*
G01X5894980Y3248690D02*
G02X5877910Y3241620I-9999J-1D01*
G01X5855260Y3264270D01*
G03X5854270Y3265260I-25260J-24270D01*
G01X5844510Y3275020D01*
X5830840D01*
G03X5830010Y3275030I-837J-35020D01*
G01X5803310D01*
Y3286730D01*
X5803880Y3288340D01*
G03X5805020Y3295000I-18884J6660D01*
G01Y3445000D01*
G03X5785000Y3465020I-20020J0D01*
G01X5770020D01*
Y3644980D01*
X5790000D01*
G03X5810020Y3665000I0J20020D01*
G01Y3725000D01*
G03X5790000Y3745020I-20020J0D01*
G01X5690000D01*
G03X5669980Y3725000I0J-20020D01*
G01Y3665000D01*
G03X5690000Y3644980I20020J0D01*
G01X5709980D01*
Y3465020D01*
X5695000D01*
G03X5674980Y3445000I0J-20020D01*
G01Y3400020D01*
X5561230D01*
X5558870Y3406680D01*
G03X5540000Y3420020I-18870J-6676D01*
G01X5440000D01*
G03X5432510Y3418560I15J-20017D01*
G02X5405020Y3437100I-7488J18547D01*
G01Y3492900D01*
G02X5432510Y3511440I20002J-7D01*
G03X5440000Y3509980I7505J18557D01*
G01X5540000D01*
G03X5560020Y3530000I0J20020D01*
G01Y3590000D01*
G03X5540000Y3610020I-20020J0D01*
G01X5440000D01*
G03X5432510Y3608560I15J-20017D01*
G02X5405220Y3624310I-7486J18547D01*
G01X5183290Y3846230D01*
G02X5195310Y3880260I14142J14143D01*
G03X5238280Y3916910I-5309J49739D01*
G02X5271720Y3925810I19299J-5239D01*
G01X5357560Y3839980D01*
X5911690D01*
Y3828270D01*
X5911120Y3826660D01*
G03X5909980Y3820000I18884J-6660D01*
G01Y3760000D01*
G03X5930000Y3739980I20020J0D01*
G01X6030000D01*
G03X6050020Y3760000I0J20020D01*
G01Y3820000D01*
G03X6048880Y3826660I-20024J0D01*
G01X6048310Y3828270D01*
Y3839980D01*
X6347570D01*
X6374980Y3812570D01*
Y3745000D01*
G03X6395000Y3724980I20020J0D01*
G01X6545000D01*
G03X6547490Y3725140I-36J20018D01*
G02X6569980Y3705300I2489J-19846D01*
G01Y3684700D01*
G02X6547490Y3664860I-20001J6D01*
G03X6545000Y3665020I-2526J-19858D01*
G01X6395000D01*
G03X6374980Y3645000I0J-20020D01*
G01Y3630020D01*
X6345020D01*
Y3645000D01*
G03X6325000Y3665020I-20020J0D01*
G01X6280020D01*
Y3757300D01*
G03X6219980I-30020J0D01*
G01Y3665020D01*
X6175000D01*
G03X6154980Y3645000I0J-20020D01*
G01Y3630020D01*
X6051230D01*
X6048870Y3636680D01*
G03X6030000Y3650020I-18870J-6676D01*
G01X5930000D01*
G03X5909980Y3630000I0J-20020D01*
G01Y3570000D01*
G03X5930000Y3549980I20020J0D01*
G01X6030000D01*
G03X6048870Y3563320I0J20016D01*
G01X6051230Y3569980D01*
X6154980D01*
Y3555000D01*
G03X6175000Y3534980I20020J0D01*
G01X6325000D01*
G03X6345020Y3555000I0J20020D01*
G01Y3569980D01*
X6374980D01*
Y3555000D01*
G03X6395000Y3534980I20020J0D01*
G01X6545000D01*
G03X6547490Y3535140I-36J20018D01*
G02X6569980Y3515300I2489J-19846D01*
G01Y3292430D01*
X6512570Y3235020D01*
X6385000D01*
G03X6372490Y3230630I0J-20020D01*
G02X6347510I-12490J15620D01*
G03X6335000Y3235020I-12510J-15630D01*
G01X6185000D01*
G03X6164980Y3215000I0J-20020D01*
G01Y3125000D01*
G03X6185000Y3104980I20020J0D01*
G01X6335000D01*
G03X6347510Y3109370I0J20020D01*
G02X6372490I12490J-15620D01*
G03X6385000Y3104980I12510J15630D01*
G01X6535000D01*
G03X6555020Y3125000I0J20020D01*
G01Y3192570D01*
X6615850Y3253390D01*
G02X6649990Y3239250I14142J-14140D01*
G01Y50010D01*
X6463170D01*
G02X6449030Y84150I4J20000D01*
G01X6590020Y225140D01*
Y764860D01*
X6240020Y1114860D01*
Y1181420D01*
X6241690Y1183940D01*
G03X6245020Y1195000I-16702J11060D01*
G01Y1345000D01*
G03X6241690Y1356060I-20032J0D01*
G01X6240020Y1358580D01*
Y1547080D01*
G03X6260020Y1600000I-60013J52920D01*
G01Y1799980D01*
X6330000D01*
G03X6350020Y1820000I0J20020D01*
G01Y2040000D01*
G03X6330000Y2060020I-20020J0D01*
G01X6030000D01*
G03X6009980Y2040000I0J-20020D01*
G01Y2010020D01*
X5690020D01*
Y2080490D01*
X5709260Y2099730D01*
X5799260D01*
X5875020Y2175490D01*
Y2474280D01*
G03X5841820Y2559990I-35018J35721D01*
G01X5832180Y2560340D01*
Y2579980D01*
X5872430D01*
X6000200Y2707740D01*
X6010710Y2697230D01*
X6010120Y2692400D01*
G03X6009980Y2690000I19882J-2364D01*
G01Y2470000D01*
G03X6030000Y2449980I20020J0D01*
G01X6330000D01*
G03X6350020Y2470000I0J20020D01*
G01Y2690000D01*
G03X6330000Y2710020I-20020J0D01*
G01X6030000D01*
G03X6027600Y2709880I-36J-20022D01*
G01X6022770Y2709290D01*
X6012260Y2719800D01*
X6207430Y2914980D01*
X6335000D01*
G03X6347510Y2919370I0J20020D01*
G02X6372490I12490J-15620D01*
G03X6385000Y2914980I12510J15630D01*
G01X6535000D01*
G03X6555020Y2935000I0J20020D01*
G01Y3025000D01*
G03X6535000Y3045020I-20020J0D01*
G01X6385000D01*
G03X6372490Y3040630I0J-20020D01*
G02X6347510I-12490J15620D01*
G03X6335000Y3045020I-12510J-15630D01*
G01X6185000D01*
G03X6164980Y3025000I0J-20020D01*
G01Y2957430D01*
X5847570Y2640020D01*
X5410760D01*
G02X5396620Y2674160I0J19998D01*
G01X5507430Y2784980D01*
X5575000D01*
G03X5595020Y2805000I0J20020D01*
G01Y2955000D01*
G03X5575000Y2975020I-20020J0D01*
G01X5560020D01*
Y3092430D01*
X5481620Y3170840D01*
G02X5495130Y3204970I14141J14142D01*
G01X5676690D01*
Y3193270D01*
X5676120Y3191660D01*
G03X5674980Y3185000I18884J-6660D01*
G01Y3035000D01*
G03X5695000Y3014980I20020J0D01*
G01X5785000D01*
G03X5805020Y3035000I0J20020D01*
G01Y3185010D01*
G03X5804440Y3189790I-20021J-4D01*
G01X5803090Y3195270D01*
X5812790Y3204970D01*
X5815510D01*
X5864980Y3155490D01*
Y3035000D01*
G03X5885000Y3014980I20020J0D01*
G01X5975000D01*
G03X5995020Y3035000I0J20020D01*
G01Y3185000D01*
G03X5975010Y3205020I-20020J0D01*
G01X5965020Y3215020D01*
Y3264980D01*
X5975010Y3274980D01*
G03X5995020Y3295000I-10J20020D01*
G01Y3334980D01*
X6024510D01*
X6064510Y3374980D01*
X6154970D01*
X6154980Y3364990D01*
G03X6175000Y3344980I20020J10D01*
G01X6325000D01*
G03X6345020Y3365000I0J20020D01*
G01Y3455000D01*
G03X6325000Y3475020I-20020J0D01*
G01X6175000D01*
G03X6154980Y3455010I0J-20020D01*
G01X6154970Y3445020D01*
X6035490D01*
X6012090Y3421620D01*
G02X5995020Y3428690I-7071J7069D01*
G01Y3445000D01*
G03X5975000Y3465020I-20020J0D01*
G01X5885000D01*
G03X5864980Y3445000I0J-20020D01*
G01Y3295000D01*
G03X5884990Y3274980I20020J0D01*
G01X5894980Y3264980D01*
Y3248690D01*
G37*
%LPC*%
G75*
G36*
G01X6169980Y5260000D02*
Y5320000D01*
G02X6190000Y5340020I20020J0D01*
G01X6290000D01*
G02X6310020Y5320000I0J-20020D01*
G01Y5260000D01*
G02X6290000Y5239980I-20020J0D01*
G01X6190000D01*
G02X6169980Y5260000I0J20020D01*
G37*
G36*
G01X6039980Y4525000D02*
Y4635000D01*
G02X6060000Y4655020I20020J0D01*
G01X6280000D01*
G02X6300020Y4635000I0J-20020D01*
G01Y4525000D01*
G02X6280000Y4504980I-20020J0D01*
G01X6060000D01*
G02X6039980Y4525000I0J20020D01*
G37*
G36*
G01Y4125000D02*
Y4235000D01*
G02X6060000Y4255020I20020J0D01*
G01X6280000D01*
G02X6300020Y4235000I0J-20020D01*
G01Y4125000D01*
G02X6280000Y4104980I-20020J0D01*
G01X6060000D01*
G02X6039980Y4125000I0J20020D01*
G37*
G36*
G01X5909980Y6425000D02*
Y6535000D01*
G02X5930000Y6555020I20020J0D01*
G01X6150000D01*
G02X6170020Y6535000I0J-20020D01*
G01Y6425000D01*
G02X6150000Y6404980I-20020J0D01*
G01X5930000D01*
G02X5909980Y6425000I0J20020D01*
G37*
G36*
G01Y6025000D02*
Y6135000D01*
G02X5930000Y6155020I20020J0D01*
G01X6150000D01*
G02X6170020Y6135000I0J-20020D01*
G01Y6025000D01*
G02X6150000Y6004980I-20020J0D01*
G01X5930000D01*
G02X5909980Y6025000I0J20020D01*
G37*
G36*
G01X5549980Y7220000D02*
Y7520000D01*
G02X5570000Y7540020I20020J0D01*
G01X5790000D01*
G02X5810020Y7520000I0J-20020D01*
G01Y7220000D01*
G02X5790000Y7199980I-20020J0D01*
G01X5570000D01*
G02X5549980Y7220000I0J20020D01*
G37*
G36*
G01X4294980Y7295000D02*
Y7445000D01*
G02X4315000Y7465020I20020J0D01*
G01X4405000D01*
G02X4425020Y7445000I0J-20020D01*
G01Y7295000D01*
G02X4405000Y7274980I-20020J0D01*
G01X4315000D01*
G02X4294980Y7295000I0J20020D01*
G37*
G36*
G01X1754980Y7280000D02*
Y7500000D01*
G02X1775000Y7520020I20020J0D01*
G01X1885000D01*
G02X1905020Y7500000I0J-20020D01*
G01Y7280000D01*
G02X1885000Y7259980I-20020J0D01*
G01X1775000D01*
G02X1754980Y7280000I0J20020D01*
G37*
G36*
G01X1654980Y6325000D02*
Y6415000D01*
G02X1675000Y6435020I20020J0D01*
G01X1825000D01*
G02X1845020Y6415000I0J-20020D01*
G01Y6325000D01*
G02X1825000Y6304980I-20020J0D01*
G01X1675000D01*
G02X1654980Y6325000I0J20020D01*
G37*
G36*
G01X1674980Y4745000D02*
Y4835000D01*
G02X1695000Y4855020I20020J0D01*
G01X1845000D01*
G02X1865020Y4835000I0J-20020D01*
G01Y4745000D01*
G02X1845000Y4724980I-20020J0D01*
G01X1695000D01*
G02X1674980Y4745000I0J20020D01*
G37*
G36*
G01X1574980Y3865000D02*
Y3955000D01*
G02X1595000Y3975020I20020J0D01*
G01X1745000D01*
G02X1765020Y3955000I0J-20020D01*
G01Y3865000D01*
G02X1745000Y3844980I-20020J0D01*
G01X1595000D01*
G02X1574980Y3865000I0J20020D01*
G37*
G36*
G01X1339980Y6110000D02*
Y6190000D01*
G02X1360000Y6210020I20020J0D01*
G01X1440000D01*
G02X1460020Y6190000I0J-20020D01*
G01Y6110000D01*
G02X1440000Y6089980I-20020J0D01*
G01X1360000D01*
G02X1339980Y6110000I0J20020D01*
G37*
G36*
G01X1279980Y5260000D02*
Y5340000D01*
G02X1300000Y5360020I20020J0D01*
G01X1380000D01*
G02X1400020Y5340000I0J-20020D01*
G01Y5260000D01*
G02X1380000Y5239980I-20020J0D01*
G01X1300000D01*
G02X1279980Y5260000I0J20020D01*
G37*
G36*
G01X665980Y3670000D02*
Y3820000D01*
G02X686000Y3840020I20020J0D01*
G01X746000D01*
G02X766020Y3820000I0J-20020D01*
G01Y3670000D01*
G02X746000Y3649980I-20020J0D01*
G01X686000D01*
G02X665980Y3670000I0J20020D01*
G37*
G36*
G01X904980Y3225000D02*
Y3375000D01*
G02X925000Y3395020I20020J0D01*
G01X1015000D01*
G02X1035020Y3375000I0J-20020D01*
G01Y3225000D01*
G02X1015000Y3204980I-20020J0D01*
G01X925000D01*
G02X904980Y3225000I0J20020D01*
G37*
G36*
G01X763980Y671000D02*
Y731000D01*
G02X784000Y751020I20020J0D01*
G01X964000D01*
G02X984020Y731000I0J-20020D01*
G01Y671000D01*
G02X964000Y650980I-20020J0D01*
G01X784000D01*
G02X763980Y671000I0J20020D01*
G37*
G36*
G01X629980Y6690000D02*
Y6890000D01*
G02X650000Y6910020I20020J0D01*
G01X850000D01*
G02X870020Y6890000I0J-20020D01*
G01Y6690000D01*
G02X850000Y6669980I-20020J0D01*
G01X650000D01*
G02X629980Y6690000I0J20020D01*
G37*
G36*
G01X599980Y945000D02*
Y1005000D01*
G02X620000Y1025020I20020J0D01*
G01X720000D01*
G02X740020Y1005000I0J-20020D01*
G01Y945000D01*
G02X720000Y924980I-20020J0D01*
G01X620000D01*
G02X599980Y945000I0J20020D01*
G37*
G36*
G01X204980Y6190000D02*
Y6370000D01*
G02X225000Y6390020I20020J0D01*
G01X345000D01*
G02X365020Y6370000I0J-20020D01*
G01Y6190000D01*
G02X345000Y6169980I-20020J0D01*
G01X225000D01*
G02X204980Y6190000I0J20020D01*
G37*
G36*
G01Y5390000D02*
Y5570000D01*
G02X225000Y5590020I20020J0D01*
G01X345000D01*
G02X365020Y5570000I0J-20020D01*
G01Y5390000D01*
G02X345000Y5369980I-20020J0D01*
G01X225000D01*
G02X204980Y5390000I0J20020D01*
G37*
G36*
G01X224980Y4045000D02*
Y4135000D01*
G02X245000Y4155020I20020J0D01*
G01X395000D01*
G02X415020Y4135000I0J-20020D01*
G01Y4045000D01*
G02X395000Y4024980I-20020J0D01*
G01X245000D01*
G02X224980Y4045000I0J20020D01*
G37*
G36*
G01X179980Y2460000D02*
Y2620000D01*
G02X200000Y2640020I20020J0D01*
G01X360000D01*
G02X380020Y2620000I0J-20020D01*
G01Y2460000D01*
G02X360000Y2439980I-20020J0D01*
G01X200000D01*
G02X179980Y2460000I0J20020D01*
G37*
G36*
G01X274980Y155000D02*
Y305000D01*
G02X295000Y325020I20020J0D01*
G01X385000D01*
G02X405020Y305000I0J-20020D01*
G01Y155000D01*
G02X385000Y134980I-20020J0D01*
G01X295000D01*
G02X274980Y155000I0J20020D01*
G37*
G36*
G01X3615020Y7345000D02*
G02X3595000Y7324980I-20020J0D01*
G01X3445000D01*
G02X3426130Y7338320I0J20016D01*
G01X3423770Y7344980D01*
X3340220D01*
X3337330Y7339980D01*
G02X3320000Y7329980I-17330J10016D01*
G01X3180000D01*
G02X3159980Y7350000I0J20020D01*
G01Y7430000D01*
G02X3180000Y7450020I20020J0D01*
G01X3320000D01*
G02X3337330Y7440020I0J-20016D01*
G01X3340220Y7435020D01*
X3423770D01*
X3426130Y7441680D01*
G02X3445000Y7455020I18870J-6676D01*
G01X3595000D01*
G02X3615020Y7435000I0J-20020D01*
G01Y7345000D01*
G37*
G36*
G01X6065020Y5405000D02*
G02X6045000Y5384980I-20020J0D01*
G01X5955000D01*
G02X5934980Y5405000I0J20020D01*
G01Y5555000D01*
G02X5955000Y5575020I20020J0D01*
G01X6045000D01*
G02X6065020Y5555000I0J-20020D01*
G01Y5515020D01*
X6169780D01*
X6172670Y5520020D01*
G02X6190000Y5530020I17330J-10016D01*
G01X6290000D01*
G02X6310020Y5510000I0J-20020D01*
G01Y5450000D01*
G02X6290000Y5429980I-20020J0D01*
G01X6190000D01*
G02X6172670Y5439980I0J20016D01*
G01X6169780Y5444980D01*
X6065020D01*
Y5405000D01*
G37*
G36*
G01X6540020Y4975000D02*
G02X6520000Y4954980I-20020J0D01*
G01X6440000D01*
G02X6419980Y4975000I0J20020D01*
G01Y5125000D01*
G02X6436650Y5144740I20023J0D01*
G01X6444980Y5146150D01*
Y5334980D01*
X6430000D01*
G02X6409980Y5355000I0J20020D01*
G01Y5415000D01*
G02X6430000Y5435020I20020J0D01*
G01X6530000D01*
G02X6550020Y5415000I0J-20020D01*
G01Y5355000D01*
G02X6530000Y5334980I-20020J0D01*
G01X6515020D01*
Y5146150D01*
X6523350Y5144740D01*
G02X6540020Y5125000I-3353J-19740D01*
G01Y4975000D01*
G37*
G36*
G01X6125020D02*
G02X6105000Y4954980I-20020J0D01*
G01X6015000D01*
G02X5994980Y4975000I0J20020D01*
G01Y5125000D01*
G02X6015000Y5145020I20020J0D01*
G01X6105000D01*
G02X6125020Y5125000I0J-20020D01*
G01Y5085020D01*
X6199980D01*
Y5125000D01*
G02X6220000Y5145020I20020J0D01*
G01X6300000D01*
G02X6320020Y5125000I0J-20020D01*
G01Y4975000D01*
G02X6300000Y4954980I-20020J0D01*
G01X6220000D01*
G02X6199980Y4975000I0J20020D01*
G01Y5014980D01*
X6125020D01*
Y4975000D01*
G37*
G36*
G01X5935020D02*
G02X5915000Y4954980I-20020J0D01*
G01X5825000D01*
G02X5804980Y4975000I0J20020D01*
G01Y5014980D01*
X5765720D01*
G02Y5085020I-35720J35020D01*
G01X5804980D01*
Y5125000D01*
G02X5825000Y5145020I20020J0D01*
G01X5915000D01*
G02X5935020Y5125000I0J-20020D01*
G01Y4975000D01*
G37*
G36*
G01X1270000Y4799980D02*
X1090000D01*
G02X1069980Y4820000I0J20020D01*
G01Y4986960D01*
X964460Y5092480D01*
X894460D01*
X302480Y5684460D01*
Y5945540D01*
X404460Y6047520D01*
X430780D01*
G03X450460Y6071070I-3J20000D01*
G02X549540I49540J8930D01*
G03X569220Y6047520I19683J-3550D01*
G01X675000D01*
G02X695020Y6027500I0J-20020D01*
G01Y5975020D01*
X997640D01*
G03X1029980Y5990760I12340J15738D01*
G01Y6079980D01*
G03X1019990Y6089980I-10000J0D01*
G02X999980Y6110000I10J20020D01*
G01Y6190000D01*
G02X1020000Y6210020I20020J0D01*
G01X1100000D01*
G02X1120020Y6190000I0J-20020D01*
G01Y6110000D01*
G02X1100010Y6089980I-20020J0D01*
G03X1090020Y6079980I10J-10000D01*
G01Y5935020D01*
X1105000D01*
G02X1125020Y5915000I0J-20020D01*
G01Y5765000D01*
G02X1120630Y5752490I-20020J0D01*
G03Y5727510I15620J-12490D01*
G02X1125020Y5715000I-15630J-12510D01*
G01Y5565000D01*
G02X1105000Y5544980I-20020J0D01*
G01X1037430D01*
X1030020Y5537570D01*
Y5370020D01*
G03X1040010Y5360020I10000J0D01*
G02X1060020Y5340000I-10J-20020D01*
G01Y5260000D01*
G02X1040000Y5239980I-20020J0D01*
G01X960000D01*
G02X939980Y5260000I0J20020D01*
G01Y5340000D01*
G02X959990Y5360020I20020J0D01*
G03X969980Y5370020I-10J10000D01*
G01Y5562430D01*
X994980Y5587430D01*
Y5692570D01*
X837570Y5849980D01*
X695020D01*
Y5732500D01*
G02X675000Y5712480I-20020J0D01*
G01X569220D01*
G03X549540Y5688930I3J-20000D01*
G02X507760Y5630260I-49541J-8932D01*
G03X496700Y5596360I3084J-19760D01*
G01X925540Y5167520D01*
X995540D01*
X1123040Y5040020D01*
X1270000D01*
G02X1290020Y5020000I0J-20020D01*
G01Y4820000D01*
G02X1270000Y4799980I-20020J0D01*
G37*
G36*
G01X920020Y4820000D02*
G02X900000Y4799980I-20020J0D01*
G01X720000D01*
G02X699980Y4820000I0J20020D01*
G01Y4853980D01*
X341420D01*
G02Y4994020I-71420J70020D01*
G01X699980D01*
Y5020000D01*
G02X720000Y5040020I20020J0D01*
G01X900000D01*
G02X920020Y5020000I0J-20020D01*
G01Y4820000D01*
G37*
G36*
G01X6090020Y4325000D02*
G02X6070000Y4304980I-20020J0D01*
G01X5960000D01*
G02X5940260Y4321650I0J20023D01*
G01X5938850Y4329980D01*
X5170000D01*
G02X5149980Y4350000I0J20020D01*
G01Y4410000D01*
G02X5155070Y4423340I20026J0D01*
G03Y4436660I-7457J6660D01*
G02X5149980Y4450000I14936J13340D01*
G01Y4510000D01*
G02X5155070Y4523340I20026J0D01*
G03Y4536660I-7457J6660D01*
G02X5149980Y4550000I14936J13340D01*
G01Y4610000D01*
G02X5155070Y4623340I20026J0D01*
G03Y4636660I-7457J6660D01*
G02X5149980Y4650000I14936J13340D01*
G01Y4710000D01*
G02X5155070Y4723340I20026J0D01*
G03Y4736660I-7457J6660D01*
G02X5149980Y4750000I14936J13340D01*
G01Y4810000D01*
G02X5155070Y4823340I20026J0D01*
G03Y4836660I-7457J6660D01*
G02X5149980Y4850000I14936J13340D01*
G01Y4910000D01*
G02X5155070Y4923340I20026J0D01*
G03Y4936660I-7457J6660D01*
G02X5149980Y4950000I14936J13340D01*
G01Y5010000D01*
G02X5155070Y5023340I20026J0D01*
G03Y5036660I-7457J6660D01*
G02X5149980Y5050000I14936J13340D01*
G01Y5110000D01*
G02X5155070Y5123340I20026J0D01*
G03Y5136660I-7457J6660D01*
G02X5149980Y5150000I14936J13340D01*
G01Y5210000D01*
G02X5155070Y5223340I20026J0D01*
G03Y5236660I-7457J6660D01*
G02X5149980Y5250000I14936J13340D01*
G01Y5310000D01*
G02X5155070Y5323340I20026J0D01*
G03Y5336660I-7457J6660D01*
G02X5149980Y5350000I14936J13340D01*
G01Y5410000D01*
G02X5155070Y5423340I20026J0D01*
G03Y5436660I-7457J6660D01*
G02X5149980Y5450000I14936J13340D01*
G01Y5510000D01*
G02X5155070Y5523340I20026J0D01*
G03Y5536660I-7457J6660D01*
G02X5149980Y5550000I14936J13340D01*
G01Y5610000D01*
G02X5155070Y5623340I20026J0D01*
G03Y5636660I-7457J6660D01*
G02X5149980Y5650000I14936J13340D01*
G01Y5710000D01*
G02X5155070Y5723340I20026J0D01*
G03Y5736660I-7457J6660D01*
G02X5149980Y5750000I14936J13340D01*
G01Y5810000D01*
G02X5155070Y5823340I20026J0D01*
G03Y5836660I-7457J6660D01*
G02X5149980Y5850000I14936J13340D01*
G01Y5910000D01*
G02X5155070Y5923340I20026J0D01*
G03Y5936660I-7457J6660D01*
G02X5149980Y5950000I14936J13340D01*
G01Y6010000D01*
G02X5155070Y6023340I20026J0D01*
G03Y6036660I-7457J6660D01*
G02X5149980Y6050000I14936J13340D01*
G01Y6110000D01*
G02X5155070Y6123340I20026J0D01*
G03Y6136660I-7457J6660D01*
G02X5149980Y6150000I14936J13340D01*
G01Y6210000D01*
G02X5155070Y6223340I20026J0D01*
G03Y6236660I-7457J6660D01*
G02X5149980Y6250000I14936J13340D01*
G01Y6310000D01*
G02X5155070Y6323340I20026J0D01*
G03Y6336660I-7457J6660D01*
G02X5149980Y6350000I14936J13340D01*
G01Y6410000D01*
G02X5155070Y6423340I20026J0D01*
G03Y6436660I-7457J6660D01*
G02X5149980Y6450000I14936J13340D01*
G01Y6510000D01*
G02X5170000Y6530020I20020J0D01*
G01X5350000D01*
G02X5370020Y6510000I0J-20020D01*
G01Y6450000D01*
G02X5364930Y6436660I-20026J0D01*
G03Y6423340I7457J-6660D01*
G02X5370020Y6410000I-14936J-13340D01*
G01Y6350000D01*
G02X5368880Y6343340I-20024J0D01*
G01X5368310Y6341730D01*
Y6330020D01*
X5808850D01*
X5810260Y6338350D01*
G02X5830000Y6355020I19740J-3353D01*
G01X5940000D01*
G02X5960020Y6335000I0J-20020D01*
G01Y6225000D01*
G02X5940000Y6204980I-20020J0D01*
G01X5830000D01*
G02X5810260Y6221650I0J20023D01*
G01X5808850Y6229980D01*
X5368310D01*
Y6218270D01*
X5368880Y6216660D01*
G02X5370020Y6210000I-18884J-6660D01*
G01Y6150000D01*
G02X5364930Y6136660I-20026J0D01*
G03Y6123340I7457J-6660D01*
G02X5370020Y6110000I-14936J-13340D01*
G01Y6050000D01*
G02X5364930Y6036660I-20026J0D01*
G03Y6023340I7457J-6660D01*
G02X5370020Y6010000I-14936J-13340D01*
G01Y5950000D01*
G02X5364930Y5936660I-20026J0D01*
G03Y5923340I7457J-6660D01*
G02X5370020Y5910000I-14936J-13340D01*
G01Y5850000D01*
G02X5364930Y5836660I-20026J0D01*
G03Y5823340I7457J-6660D01*
G02X5370020Y5810000I-14936J-13340D01*
G01Y5750000D01*
G02X5364930Y5736660I-20026J0D01*
G03Y5723340I7457J-6660D01*
G02X5370020Y5710000I-14936J-13340D01*
G01Y5650000D01*
G02X5364930Y5636660I-20026J0D01*
G03Y5623340I7457J-6660D01*
G02X5370020Y5610000I-14936J-13340D01*
G01Y5550000D01*
G02X5364930Y5536660I-20026J0D01*
G03Y5523340I7457J-6660D01*
G02X5367330Y5520020I-14939J-13327D01*
G01X5370220Y5515020D01*
X5744980D01*
Y5555000D01*
G02X5765000Y5575020I20020J0D01*
G01X5855000D01*
G02X5875020Y5555000I0J-20020D01*
G01Y5405000D01*
G02X5855000Y5384980I-20020J0D01*
G01X5765000D01*
G02X5744980Y5405000I0J20020D01*
G01Y5444980D01*
X5370220D01*
X5367330Y5439980D01*
G02X5364930Y5436660I-17339J10007D01*
G03Y5423340I7457J-6660D01*
G02X5370020Y5410000I-14936J-13340D01*
G01Y5350000D01*
G02X5364930Y5336660I-20026J0D01*
G03Y5323340I7457J-6660D01*
G02X5370020Y5310000I-14936J-13340D01*
G01Y5250000D01*
G02X5364930Y5236660I-20026J0D01*
G03Y5223340I7457J-6660D01*
G02X5370020Y5210000I-14936J-13340D01*
G01Y5150000D01*
G02X5364930Y5136660I-20026J0D01*
G03Y5123340I7457J-6660D01*
G02X5370020Y5110000I-14936J-13340D01*
G01Y5050000D01*
G02X5364930Y5036660I-20026J0D01*
G03Y5023340I7457J-6660D01*
G02X5370020Y5010000I-14936J-13340D01*
G01Y4950000D01*
G02X5364930Y4936660I-20026J0D01*
G03Y4923340I7457J-6660D01*
G02X5370020Y4910000I-14936J-13340D01*
G01Y4850000D01*
G02X5364930Y4836660I-20026J0D01*
G03Y4823340I7457J-6660D01*
G02X5370020Y4810000I-14936J-13340D01*
G01Y4750000D01*
G02X5364930Y4736660I-20026J0D01*
G03Y4723340I7457J-6660D01*
G02X5370020Y4710000I-14936J-13340D01*
G01Y4650000D01*
G02X5364930Y4636660I-20026J0D01*
G03Y4623340I7457J-6660D01*
G02X5370020Y4610000I-14936J-13340D01*
G01Y4550000D01*
G02X5364930Y4536660I-20026J0D01*
G03Y4523340I7457J-6660D01*
G02X5370020Y4510000I-14936J-13340D01*
G01Y4450000D01*
G02X5368880Y4443340I-20024J0D01*
G01X5368310Y4441730D01*
Y4430020D01*
X5938850D01*
X5940260Y4438350D01*
G02X5960000Y4455020I19740J-3353D01*
G01X6070000D01*
G02X6090020Y4435000I0J-20020D01*
G01Y4325000D01*
G37*
G36*
G01X1020020Y4305000D02*
G02X1000000Y4284980I-20020J0D01*
G01X940000D01*
G02X919980Y4305000I0J20020D01*
G01Y4425490D01*
X710490Y4634980D01*
X370020D01*
Y4590000D01*
G02X350000Y4569980I-20020J0D01*
G01X190000D01*
G02X169980Y4590000I0J20020D01*
G01Y4750000D01*
G02X190000Y4770020I20020J0D01*
G01X350000D01*
G02X370020Y4750000I0J-20020D01*
G01Y4705020D01*
X739510D01*
X969510Y4475020D01*
X1000000D01*
G02X1020020Y4455000I0J-20020D01*
G01Y4305000D01*
G37*
G36*
G01X415020Y4235000D02*
G02X395000Y4214980I-20020J0D01*
G01X245000D01*
G02X224980Y4235000I0J20020D01*
G01Y4325000D01*
G02X245000Y4345020I20020J0D01*
G01X365490D01*
X435490Y4415020D01*
X665980D01*
Y4455000D01*
G02X686000Y4475020I20020J0D01*
G01X746000D01*
G02X766020Y4455000I0J-20020D01*
G01Y4305000D01*
G02X746000Y4284980I-20020J0D01*
G01X686000D01*
G02X665980Y4305000I0J20020D01*
G01Y4344980D01*
X464510D01*
X415020Y4295490D01*
Y4235000D01*
G37*
G36*
G01X385000Y354980D02*
X295000D01*
G02X274980Y375000I0J20020D01*
G01Y525000D01*
G02X279370Y537510I20020J0D01*
G03Y562490I-15620J12490D01*
G02X274980Y575000I15630J12510D01*
G01Y725000D01*
G02X295000Y745020I20020J0D01*
G01X309980D01*
Y1012430D01*
X359980Y1062430D01*
Y1077570D01*
X229980Y1207570D01*
Y1260350D01*
X223620Y1262830D01*
G02X296380I36380J93170D01*
G01X290020Y1260350D01*
Y1232430D01*
X402430Y1120020D01*
X489980D01*
Y1337570D01*
X317570Y1509980D01*
X180000D01*
G02X159980Y1530000I0J20020D01*
G01Y1690000D01*
G02X180000Y1710020I20020J0D01*
G01X340000D01*
G02X360020Y1690000I0J-20020D01*
G01Y1552430D01*
X550020Y1362430D01*
Y937570D01*
X500020Y887570D01*
Y850000D01*
G02X480000Y829980I-20020J0D01*
G01X460020D01*
Y764710D01*
G03X482510Y744860I20001J-4D01*
G02X485000Y745020I2526J-19858D01*
G01X575000D01*
G02X595020Y725000I0J-20020D01*
G01Y680020D01*
X617430D01*
X693430Y604020D01*
X762770D01*
X765130Y610680D01*
G02X784000Y624020I18870J-6676D01*
G01X964000D01*
G02X984020Y604000I0J-20020D01*
G01Y544000D01*
G02X964000Y523980I-20020J0D01*
G01X784000D01*
G02X765130Y537320I0J20016D01*
G01X762770Y543980D01*
X668570D01*
X612090Y600450D01*
G03X595020Y593380I-7071J-7069D01*
G01Y575000D01*
G02X590630Y562490I-20020J0D01*
G03Y537510I15620J-12490D01*
G02X595020Y525000I-15630J-12510D01*
G01Y477020D01*
X762770D01*
X765130Y483680D01*
G02X784000Y497020I18870J-6676D01*
G01X964000D01*
G02X984020Y477000I0J-20020D01*
G01Y417000D01*
G02X964000Y396980I-20020J0D01*
G01X784000D01*
G02X765130Y410320I0J20016D01*
G01X762770Y416980D01*
X595020D01*
Y375000D01*
G02X575000Y354980I-20020J0D01*
G01X485000D01*
G02X464980Y375000I0J20020D01*
G01Y525000D01*
G02X473920Y541670I20012J0D01*
G03Y558330I-5539J8330D01*
G02X473220Y558820I11125J16638D01*
G01X466300Y563850D01*
X405020Y502570D01*
Y375000D01*
G02X385000Y354980I-20020J0D01*
G37*
G36*
G01X1724980Y1245000D02*
Y1395000D01*
G02X1745000Y1415020I20020J0D01*
G01X1835000D01*
G02X1855020Y1395000I0J-20020D01*
G01Y1245000D01*
G02X1835000Y1224980I-20020J0D01*
G01X1745000D01*
G02X1724980Y1245000I0J20020D01*
G37*
G36*
G01X1794980Y1005000D02*
Y1155000D01*
G02X1815000Y1175020I20020J0D01*
G01X1905000D01*
G02X1925020Y1155000I0J-20020D01*
G01Y1005000D01*
G02X1905000Y984980I-20020J0D01*
G01X1815000D01*
G02X1794980Y1005000I0J20020D01*
G37*
G36*
G01X2849980Y450000D02*
Y610000D01*
G02X2870000Y630020I20020J0D01*
G01X3030000D01*
G02X3050020Y610000I0J-20020D01*
G01Y450000D01*
G02X3030000Y429980I-20020J0D01*
G01X2870000D01*
G02X2849980Y450000I0J20020D01*
G37*
G36*
G01X2744980Y1175000D02*
Y1265000D01*
G02X2765000Y1285020I20020J0D01*
G01X2915000D01*
G02X2935020Y1265000I0J-20020D01*
G01Y1175000D01*
G02X2915000Y1154980I-20020J0D01*
G01X2765000D01*
G02X2744980Y1175000I0J20020D01*
G37*
G36*
G01X2774980Y915000D02*
Y1065000D01*
G02X2795000Y1085020I20020J0D01*
G01X2885000D01*
G02X2905020Y1065000I0J-20020D01*
G01Y915000D01*
G02X2885000Y894980I-20020J0D01*
G01X2795000D01*
G02X2774980Y915000I0J20020D01*
G37*
G36*
G01X4684980Y3395000D02*
Y3545000D01*
G02X4705000Y3565020I20020J0D01*
G01X4795000D01*
G02X4815020Y3545000I0J-20020D01*
G01Y3395000D01*
G02X4795000Y3374980I-20020J0D01*
G01X4705000D01*
G02X4684980Y3395000I0J20020D01*
G37*
G36*
G01X4690020Y2880000D02*
G02X4670000Y2859980I-20020J0D01*
G01X4450000D01*
G02X4429980Y2880000I0J20020D01*
G01Y2949980D01*
X4380000D01*
G02Y3110020I0J80020D01*
G01X4429980D01*
Y3180000D01*
G02X4450000Y3200020I20020J0D01*
G01X4489980D01*
Y3594280D01*
X4449980Y3634280D01*
Y3809980D01*
X2670000D01*
G02X2649980Y3830000I0J20020D01*
G01Y4010000D01*
G02X2670000Y4030020I20020J0D01*
G01X4830000D01*
G02X4850020Y4010000I0J-20020D01*
G01Y3830000D01*
G02X4830000Y3809980I-20020J0D01*
G01X4650020D01*
Y3614280D01*
X4630020Y3594280D01*
Y3200020D01*
X4670000D01*
G02X4690020Y3180000I0J-20020D01*
G01Y2880000D01*
G37*
G36*
G01X5479980Y770000D02*
Y1070000D01*
G02X5500000Y1090020I20020J0D01*
G01X5720000D01*
G02X5740020Y1070000I0J-20020D01*
G01Y770000D01*
G02X5720000Y749980I-20020J0D01*
G01X5500000D01*
G02X5479980Y770000I0J20020D01*
G37*
G36*
G01X5084980Y1325000D02*
Y1475000D01*
G02X5105000Y1495020I20020J0D01*
G01X5195000D01*
G02X5215020Y1475000I0J-20020D01*
G01Y1325000D01*
G02X5195000Y1304980I-20020J0D01*
G01X5105000D01*
G02X5084980Y1325000I0J20020D01*
G37*
G36*
G01X4859980Y2099000D02*
Y2219000D01*
G02X4880000Y2239020I20020J0D01*
G01X5040000D01*
G02X5060020Y2219000I0J-20020D01*
G01Y2099000D01*
G02X5040000Y2078980I-20020J0D01*
G01X4880000D01*
G02X4859980Y2099000I0J20020D01*
G37*
G36*
G01X6410000Y249980D02*
X6190000D01*
G02X6169980Y270000I0J20020D01*
G01Y490000D01*
G02X6190000Y510020I20020J0D01*
G01X6410000D01*
G02X6430020Y490000I0J-20020D01*
G01Y270000D01*
G02X6427360Y260040I-20017J11D01*
G01X6424670Y255330D01*
X6419960Y252640D01*
G02X6410000Y249980I-9971J17357D01*
G37*
G36*
G01X5079980Y2880000D02*
Y3180000D01*
G02X5100000Y3200020I20020J0D01*
G01X5320000D01*
G02X5340020Y3180000I0J-20020D01*
G01Y2880000D01*
G02X5320000Y2859980I-20020J0D01*
G01X5100000D01*
G02X5079980Y2880000I0J20020D01*
G37*
G36*
G01X6304980Y1195000D02*
Y1345000D01*
G02X6325000Y1365020I20020J0D01*
G01X6415000D01*
G02X6435020Y1345000I0J-20020D01*
G01Y1195000D01*
G02X6415000Y1174980I-20020J0D01*
G01X6325000D01*
G02X6304980Y1195000I0J20020D01*
G37*
G36*
G01X5765000Y2784980D02*
X5675000D01*
G02X5654980Y2805000I0J20020D01*
G01Y2955000D01*
G02X5675000Y2975020I20020J0D01*
G01X5765000D01*
G02X5785020Y2955000I0J-20020D01*
G01Y2915020D01*
X5804090D01*
X5806920Y2917520D01*
G02Y2842480I33080J-37520D01*
G01X5804090Y2844980D01*
X5785020D01*
Y2805000D01*
G02X5765000Y2784980I-20020J0D01*
G37*
G54D48*
X280000Y2286000D03*
G54D49*
X750000Y7290000D03*
G54D50*
X5919000Y380000D03*
%LPD*%
G75*
G36*
G01X450260Y5687760D02*
G02X416360Y5676700I-19760J3084D01*
G01X377520Y5715540D01*
Y5914460D01*
X435540Y5972480D01*
X454980D01*
Y5732500D01*
G03X458810Y5720720I20031J0D01*
G02X458890Y5709060I-8082J-5886D01*
G03X450260Y5687760I41111J-29055D01*
G37*
G54D10*
X340000Y230000D03*
Y650000D03*
Y450000D03*
X530000Y230000D03*
Y650000D03*
Y450000D03*
X670000Y1910000D03*
X580000Y2120000D03*
Y2330000D03*
Y2530000D03*
Y2730000D03*
X540000Y2930000D03*
Y3130000D03*
Y3330000D03*
X810000Y1490000D03*
X860000Y1910000D03*
X770000Y2120000D03*
Y2330000D03*
Y2530000D03*
Y2730000D03*
X730000Y2930000D03*
Y3130000D03*
X970000Y3300000D03*
X730000Y3330000D03*
X1000000Y1490000D03*
X1160000Y3300000D03*
X1060000Y5640000D03*
Y5840000D03*
X1250000Y5640000D03*
Y5840000D03*
X1600000Y1320000D03*
X1860000Y1080000D03*
X1790000Y1320000D03*
X2050000Y1080000D03*
X2650000Y990000D03*
X2840000D03*
X3260000Y3030000D03*
Y3230000D03*
X3450000Y3030000D03*
Y3230000D03*
X4360000Y7370000D03*
X4560000Y3470000D03*
X4550000Y7370000D03*
X4960000Y1400000D03*
X4750000Y3470000D03*
X5150000Y1400000D03*
X5720000Y2880000D03*
X5530000D03*
X5740000Y3110000D03*
Y3370000D03*
X5930000Y3110000D03*
Y3370000D03*
X5870000Y5050000D03*
X6000000Y5480000D03*
X5810000D03*
X6180000Y1270000D03*
X6060000Y5050000D03*
X6370000Y1270000D03*
G54D20*
X750000Y6790000D03*
G54D11*
X430000Y880000D03*
Y1070000D03*
X670000Y975000D03*
X5250000Y3465000D03*
X5490000Y3560000D03*
Y3370000D03*
X5740000Y3695000D03*
X5980000Y3790000D03*
Y3600000D03*
X6240000Y5290000D03*
Y5480000D03*
X6480000Y5385000D03*
G54D21*
X750000Y7290000D03*
G54D12*
G01X2900000Y7570000D02*
X2055000D01*
X2030000Y7545000D01*
G01X2900000Y7380000D02*
Y6940000D01*
G01X3727430Y7582570D02*
X3522570D01*
X3520000Y7580000D01*
G01X4600000Y3920000D02*
Y3635000D01*
X4560000Y3595000D01*
G01D02*
X4500000Y3655000D01*
Y3920000D01*
G01D02*
X4600000D01*
G01Y6940000D02*
Y7200000D01*
X4550000Y7250000D01*
G01X4500000Y6940000D02*
X4600000D01*
G01X4550000Y7250000D02*
X4500000Y7200000D01*
Y6940000D01*
G01X5260000Y4380000D02*
X6015000D01*
G01X5260000Y6280000D02*
X5885000D01*
X240000Y1080000D03*
X410000Y1250000D03*
X370000Y1800000D03*
X270000Y2730000D03*
X340000Y3330000D03*
X400000Y3570000D03*
X180000Y5850000D03*
X330000Y6600000D03*
X300000Y7390000D03*
X690000Y320000D03*
X510000Y1540000D03*
X690000Y2120000D03*
X450000Y2280000D03*
X690000Y2730000D03*
X650000Y2930000D03*
X490000Y3900000D03*
X480000Y4510000D03*
X520000Y4780000D03*
X480000Y5300000D03*
X500000Y5680000D03*
Y6080000D03*
X830000Y870000D03*
X870000Y2330000D03*
X900000Y5690000D03*
X1090000Y1090000D03*
X1160000Y3660000D03*
X1170000Y4350000D03*
X980000Y4120000D03*
X1410000Y1380000D03*
X1340000Y4126000D03*
X1490000Y5060000D03*
X1270000Y6560000D03*
X1430000Y7330000D03*
X1740000Y280000D03*
Y1590000D03*
X1570000Y1990000D03*
Y2330000D03*
X1610000Y2640000D03*
X1590000Y3060000D03*
X1790000Y840000D03*
X1940000Y1320000D03*
X1950000Y5450000D03*
X1960000Y6840000D03*
X2050000Y1970000D03*
X2170000Y2980000D03*
X2070000Y3620000D03*
X2270000Y3990000D03*
X2090000Y4276000D03*
Y4149000D03*
X2550000Y1970000D03*
X2510000Y2670000D03*
X2376000Y4194000D03*
X2400000Y4480000D03*
X2432500Y4377500D03*
X2390000Y4680000D03*
Y4780000D03*
X2472430Y4940000D03*
X2530000Y5220000D03*
X2670000Y800000D03*
X2820000Y1560000D03*
X2610000Y2320000D03*
X2740000Y2980000D03*
X2735000Y3430000D03*
X2610000Y5620000D03*
X2710000Y6510000D03*
X2570000Y7350000D03*
X3010000Y860000D03*
X2870000Y3660000D03*
X3060000Y4240000D03*
X3050000Y4650000D03*
X3330000Y300000D03*
X3170000Y1930000D03*
X3300000Y2190000D03*
X3170000Y2680000D03*
X3350000Y2580000D03*
X3340000Y5720000D03*
X3610000Y1070000D03*
X3520000Y1980000D03*
X3440000Y2820000D03*
X3620000Y2850000D03*
X3510000Y6390000D03*
X3810000Y1060000D03*
Y1430000D03*
Y2180000D03*
X3710000Y3670000D03*
X3890000Y5710000D03*
X3727430Y7582570D03*
X4010000Y970000D03*
Y1520000D03*
X3900000Y4710000D03*
X4150000Y5160000D03*
X3910000Y7320000D03*
X4210000Y940000D03*
X4410000Y950000D03*
X4210000Y1550000D03*
X4410000D03*
X4260000Y4260000D03*
X4350000Y6610000D03*
X4610000Y950000D03*
Y1550000D03*
X4530000Y4840000D03*
X4490000Y5380000D03*
X4500000Y5650000D03*
X4800000Y3190000D03*
X4790000Y6220000D03*
X5100000Y3320000D03*
X5060000Y3800000D03*
X5120000Y3610000D03*
X5190000Y3930000D03*
X5240000Y700000D03*
X5360000Y1250000D03*
X5230000Y1780000D03*
X5330000Y4210000D03*
X5500000Y300000D03*
X5600000Y3150000D03*
X5500000Y3740000D03*
X5690000Y4130000D03*
X5660000Y4560000D03*
X5610000Y4860000D03*
X5730000Y5050000D03*
X5620000Y5260000D03*
Y5660000D03*
X5630000Y6070000D03*
X5570000Y6760000D03*
X5850000Y1260000D03*
X5990000Y2250000D03*
X5840000Y2510000D03*
Y2880000D03*
X5990000Y2920000D03*
X6070000Y790000D03*
X6270000Y5800000D03*
X6280000Y7350000D03*
X6530000Y1120000D03*
X6520000Y1930000D03*
X6540000Y2680000D03*
X6460000Y3390000D03*
X6490000Y4140000D03*
Y4800000D03*
X6350000Y6720000D03*
G54D30*
X2800000Y3920000D03*
X2700000D03*
Y6940000D03*
X2800000D03*
X3100000Y3920000D03*
X3000000D03*
X2900000D03*
Y6940000D03*
X3000000D03*
X3100000D03*
X3300000Y3920000D03*
X3200000D03*
Y6940000D03*
X3300000D03*
X3600000Y3920000D03*
X3500000D03*
X3400000D03*
Y6940000D03*
X3500000D03*
X3600000D03*
X3900000Y3920000D03*
X3800000D03*
X3700000D03*
Y6940000D03*
X3800000D03*
X3900000D03*
X4100000Y3920000D03*
X4000000D03*
Y6940000D03*
X4100000D03*
X4400000Y3920000D03*
X4300000D03*
X4200000D03*
Y6940000D03*
X4300000D03*
X4400000D03*
X4700000Y3920000D03*
X4600000D03*
X4500000D03*
Y6940000D03*
X4600000D03*
X4700000D03*
X4800000Y3920000D03*
Y6940000D03*
G54D13*
X260000Y1356000D03*
X280000Y2286000D03*
X270000Y4924000D03*
X1934000Y276000D03*
Y530000D03*
X2188000Y276000D03*
Y530000D03*
X2442000Y276000D03*
Y530000D03*
X2696000Y276000D03*
Y530000D03*
X2950000Y276000D03*
X3584000D03*
Y530000D03*
X3838000Y276000D03*
Y530000D03*
X3850000Y2832000D03*
Y3086000D03*
X4092000Y276000D03*
Y530000D03*
X4104000Y2832000D03*
Y3086000D03*
Y3340000D03*
X4346000Y276000D03*
Y530000D03*
X4600000Y276000D03*
G54D22*
X874000Y320000D03*
Y447000D03*
Y574000D03*
Y701000D03*
X1410000Y320000D03*
Y574000D03*
Y447000D03*
Y701000D03*
X2240000Y4380000D03*
Y4480000D03*
Y4580000D03*
Y4680000D03*
Y4780000D03*
Y4880000D03*
Y4980000D03*
Y5080000D03*
Y5180000D03*
Y5280000D03*
Y5380000D03*
Y5480000D03*
Y5580000D03*
Y5680000D03*
Y5780000D03*
Y5880000D03*
Y5980000D03*
Y6080000D03*
Y6180000D03*
Y6280000D03*
Y6380000D03*
X5260000Y4580000D03*
Y4480000D03*
Y4380000D03*
Y4880000D03*
Y4780000D03*
Y4680000D03*
Y5080000D03*
Y4980000D03*
Y5380000D03*
Y5280000D03*
Y5180000D03*
Y5680000D03*
Y5580000D03*
Y5480000D03*
Y5880000D03*
Y5780000D03*
Y6180000D03*
Y6080000D03*
Y5980000D03*
Y6480000D03*
Y6380000D03*
Y6280000D03*
G54D31*
X3250000Y7390000D03*
Y7570000D03*
G54D40*
X6260000Y5050000D03*
X6480000D03*
G54D41*
G01X340000Y124980D02*
Y230000D01*
G01D02*
Y335020D01*
G01X264980Y230000D02*
X340000D01*
G01D02*
X415020D01*
G01X340000Y450000D02*
Y480000D01*
X430000Y570000D01*
Y880000D01*
G01X410000Y1070000D02*
X340000Y1000000D01*
Y650000D01*
G01X260000Y1356000D02*
Y1220000D01*
X410000Y1070000D01*
G01X430000Y880000D02*
X450000D01*
X520000Y950000D01*
Y1350000D01*
X260000Y1610000D01*
G01X320000Y4014980D02*
Y4090000D01*
G01D02*
Y4165020D01*
G01X214980Y4090000D02*
X320000D01*
G01D02*
X425020D01*
G01X530000Y450000D02*
X533000Y447000D01*
X874000D01*
G01X530000Y650000D02*
X605000D01*
X681000Y574000D01*
X874000D01*
G01X670000Y914980D02*
Y975000D01*
G01D02*
Y1035020D01*
G01X589980Y975000D02*
X670000D01*
G01D02*
X750020D01*
G01X430000Y1070000D02*
X410000D01*
G01X670000Y1910000D02*
Y2015020D01*
G01X594980Y1910000D02*
X670000D01*
G01D02*
X745020D01*
G01X504980Y2330000D02*
X580000D01*
G01D02*
X655020D01*
G01X504980Y2530000D02*
X580000D01*
G01D02*
X655020D01*
G01X464980Y3130000D02*
X540000D01*
G01D02*
X615020D01*
G01X655980Y3745000D02*
X716000D01*
G01X575000Y5880000D02*
X850000D01*
X1060000Y5670000D01*
Y5640000D01*
G01Y5870000D02*
X985000Y5945000D01*
X575000D01*
G01X874000Y640980D02*
Y701000D01*
G01D02*
Y761020D01*
G01X753980Y701000D02*
X874000D01*
G01D02*
X994020D01*
G01X810000Y1384980D02*
Y1490000D01*
G01D02*
Y1595020D01*
G01Y1490000D02*
X885020D01*
G01X770000Y2330000D02*
X870000D01*
G01D02*
X1325000D01*
G01X770000Y2530000D02*
X820000Y2480000D01*
X1325000D01*
G01X730000Y3130000D02*
X1325000D01*
G01X894980Y3300000D02*
X970000D01*
G01X716000Y3639980D02*
Y3745000D01*
G01D02*
Y3850020D01*
G01Y3745000D02*
X776020D01*
G01X1410000Y574000D02*
X1350000D01*
X1200000Y724000D01*
Y1949990D01*
X1230010Y1980000D01*
X1325000D01*
G01X970000Y3194980D02*
Y3300000D01*
G01D02*
Y3405020D01*
G01Y3300000D02*
X1045020D01*
G01X980000Y4120000D02*
X1540000Y3560000D01*
X1620000D01*
X1750000Y3430000D01*
Y3305000D01*
G01X1060000Y5640000D02*
Y5610000D01*
X1000000Y5550000D01*
Y5300000D01*
G01X1060000Y6150000D02*
Y5870000D01*
G01Y5840000D02*
Y5870000D01*
G01X1410000Y320000D02*
X1470000D01*
X1550000Y400000D01*
Y769990D01*
X1500000Y819990D01*
Y1755000D01*
G01X1410000Y574000D02*
Y447000D01*
G01X1325000Y1930000D02*
Y846000D01*
X1410000Y761000D01*
Y701000D01*
G01X4104000Y3340000D02*
X3964000Y3200000D01*
X3760000D01*
X3550000Y3410000D01*
X3000000D01*
X2070000Y2480000D01*
X1325000D01*
G01X1340000Y4126000D02*
X1694000D01*
X1850000Y3970000D01*
Y3305000D01*
G01X1340000Y5229980D02*
Y5300000D01*
G01D02*
Y5370020D01*
G01X1269980Y5300000D02*
X1340000D01*
G01D02*
X1410020D01*
G01X2240000Y5280000D02*
X1780000D01*
X1250000Y5810000D01*
Y5840000D01*
G01Y5640000D02*
X1360000D01*
X1760000Y5240000D01*
X2060000D01*
X2120000Y5180000D01*
X2240000D01*
G01X1400000Y6079980D02*
Y6150000D01*
G01D02*
Y6220020D01*
G01X1329980Y6150000D02*
X1400000D01*
G01D02*
X1470020D01*
G01X1714980Y1320000D02*
X1790000D01*
G01X1670000Y3720000D02*
X1700000D01*
X1800000Y3620000D01*
Y3305000D01*
G01X1670000Y3834980D02*
Y3910000D01*
G01D02*
Y3985020D01*
G01X1564980Y3910000D02*
X1670000D01*
G01D02*
X1775020D01*
G01X1664980Y4790000D02*
X1770000D01*
G01X1644980Y6370000D02*
X1750000D01*
G01X1934000Y276000D02*
X1810000Y400000D01*
Y600000D01*
X2150000Y940000D01*
Y1755000D01*
G01X1934000Y530000D02*
Y640000D01*
X2200000Y906000D01*
Y1755000D01*
G01X1860000Y974980D02*
Y1080000D01*
G01D02*
Y1185020D01*
G01X1784980Y1080000D02*
X1860000D01*
G01D02*
X1935020D01*
G01X1790000Y1214980D02*
Y1320000D01*
G01D02*
Y1425020D01*
G01Y1320000D02*
X1865020D01*
G01X1770000Y4714980D02*
Y4790000D01*
G01D02*
Y4865020D01*
G01Y4790000D02*
X1875020D01*
G01X1750000Y6294980D02*
Y6370000D01*
G01D02*
Y6445020D01*
G01X2250000Y1755000D02*
Y840000D01*
X2060000Y650000D01*
Y404000D01*
X2188000Y276000D01*
G01X2300000Y1755000D02*
Y642000D01*
X2188000Y530000D01*
G01X3850000Y3340000D02*
X3730000Y3460000D01*
X2990000D01*
X2710000Y3180000D01*
X2050000D01*
Y3305000D01*
G01X2090000Y4149000D02*
Y3900000D01*
X2500000Y3490000D01*
Y3305000D01*
G01X2600000D02*
Y3550000D01*
X2470000Y3680000D01*
Y4200000D01*
X2394000Y4276000D01*
X2090000D01*
G01X2472430Y4940000D02*
Y4642430D01*
X2410000Y4580000D01*
X2240000D01*
G01X2390000Y4680000D02*
X2240000D01*
G01X2390000Y4780000D02*
X2240000D01*
G01X2442000Y276000D02*
X2320000Y398000D01*
Y600000D01*
X2350000Y630000D01*
Y1755000D01*
G01X2400000D02*
Y682000D01*
X2442000Y640000D01*
Y530000D01*
G01X2450000Y1755000D02*
Y710000D01*
X2570000Y590000D01*
Y402000D01*
X2696000Y276000D01*
G01Y530000D02*
X2500000Y726000D01*
Y1755000D01*
G01X2550000Y3305000D02*
Y3520000D01*
X2418430Y3651570D01*
Y4151570D01*
X2376000Y4194000D01*
G01X2432500Y4377500D02*
X2520000Y4290000D01*
Y3700010D01*
X2650000Y3570010D01*
Y3305000D01*
G01X2764980Y990000D02*
X2840000D01*
G01X2734980Y1220000D02*
X2840000D01*
G01X2875000Y2980000D02*
X2740000D01*
G01X2700000Y3305000D02*
Y3395000D01*
X2735000Y3430000D01*
G01X2840000Y884980D02*
Y990000D01*
G01D02*
Y1095020D01*
G01Y990000D02*
X2915020D01*
G01X2840000Y1144980D02*
Y1220000D01*
G01D02*
Y1295020D01*
G01Y1220000D02*
X2945020D01*
G01X2875000Y2180000D02*
X2990000D01*
X3070000Y2100000D01*
Y1590000D01*
X3180000Y1480000D01*
X3380000D01*
X3480000Y1380000D01*
X3510000D01*
G01X3310000D02*
X3205000D01*
X3020000Y1565000D01*
Y2075000D01*
X2965000Y2130000D01*
X2875000D01*
G01X3710000Y1690000D02*
X3570000D01*
X3030000Y2230000D01*
X2875000D01*
G01X3910000Y1690000D02*
X3880000D01*
X3780000Y1790000D01*
X3560000D01*
X3070000Y2280000D01*
X2875000D01*
G01X4110000Y2000000D02*
X3646250D01*
X3316250Y2330000D01*
X2875000D01*
G01X4310000Y2000000D02*
X4280000D01*
X4190000Y2090000D01*
X3640000D01*
X3350000Y2380000D01*
X2875000D01*
G01X4510000Y2310000D02*
X4270000D01*
X4150000Y2430000D01*
X2875000D01*
G01Y2730000D02*
X3120000D01*
X3170000Y2680000D01*
G01X4710000Y2310000D02*
Y2385000D01*
X4695000Y2400000D01*
X4260010D01*
X4180010Y2480000D01*
X2875000D01*
G01Y2780000D02*
X3310720D01*
X3480720Y2610000D01*
X5860000D01*
X6230000Y2980000D01*
X6260000D01*
G01X2875000Y2830000D02*
X3331440D01*
X3511440Y2650000D01*
X5330000D01*
X5530000Y2850000D01*
Y2880000D01*
G01X3310000Y1380000D02*
Y550000D01*
X3584000Y276000D01*
G01X3510000Y1380000D02*
Y714000D01*
X3584000Y640000D01*
Y530000D01*
G01X5060000Y3800000D02*
X4950000Y3690000D01*
Y3000000D01*
X4660000Y2710000D01*
X3550000D01*
X3440000Y2820000D01*
G01X3450000Y2924980D02*
Y3030000D01*
G01X3374980Y3230000D02*
X3450000D01*
G01D02*
X3525020D01*
G01X3374980Y3030000D02*
X3450000D01*
G01D02*
X3525020D01*
G01X3600000Y6940000D02*
Y6799990D01*
X4770000Y5629990D01*
Y4350000D01*
X5190000Y3930000D01*
G01X3710000Y1690000D02*
Y404000D01*
X3838000Y276000D01*
G01X3910000Y1690000D02*
Y712000D01*
X3838000Y640000D01*
Y530000D01*
G01X6470000Y3790000D02*
X6440000D01*
X6360000Y3870000D01*
X5369990D01*
X4820000Y4419990D01*
Y5660000D01*
X3700000Y6780000D01*
Y6940000D01*
G01X4092000Y276000D02*
X3980000Y388000D01*
Y730000D01*
X4110000Y860000D01*
Y2000000D01*
G01X4310000D02*
Y748000D01*
X4092000Y530000D01*
G01X6460000Y3170000D02*
X6490000D01*
X6600000Y3280000D01*
Y3859990D01*
X6549990Y3910000D01*
X5390010D01*
X4870000Y4430010D01*
Y5680000D01*
X4000000Y6550000D01*
Y6940000D01*
G01X4346000Y276000D02*
X4230000Y392000D01*
Y590000D01*
X4510000Y870000D01*
Y2310000D01*
G01X4710000D02*
Y894000D01*
X4346000Y530000D01*
G01X5150000Y1294980D02*
Y1400000D01*
G01D02*
Y1505020D01*
G01X5074980Y1400000D02*
X5150000D01*
G01D02*
X5225020D01*
G01X5530000Y2880000D02*
Y3080000D01*
X5250000Y3360000D01*
Y3465000D01*
G01X5490000Y3499980D02*
Y3560000D01*
G01X5740000Y3695000D02*
Y3370000D01*
G01X5490000D02*
X5740000D01*
G01X5490000Y3560000D02*
Y3620020D01*
G01Y3560000D02*
X5570020D01*
G01X5980000Y2410000D02*
X5990000Y2400000D01*
G01X5980000Y3600000D02*
X6250000D01*
G01X6460000Y3170000D02*
X6260000D01*
G01X6250000Y3600000D02*
X6470000D01*
G01X6250000D02*
Y3757300D01*
G01X6240000Y5229980D02*
Y5290000D01*
G01D02*
Y5350020D01*
G01X6159980Y5290000D02*
X6240000D01*
G01D02*
X6320020D01*
G01X6370000Y1164980D02*
Y1270000D01*
G01D02*
Y1375020D01*
G01X6294980Y1270000D02*
X6370000D01*
G01D02*
X6445020D01*
G01X6460000Y2980000D02*
Y3055020D01*
G01Y2980000D02*
X6565020D01*
G54D14*
X260000Y1610000D03*
X280000Y2540000D03*
X270000Y4670000D03*
X2950000Y530000D03*
X3850000Y3340000D03*
X4600000Y530000D03*
G54D32*
X4560000Y3030000D03*
X4960000Y920000D03*
X5030000Y7370000D03*
X5210000Y3030000D03*
X5610000Y920000D03*
X5680000Y7370000D03*
G54D23*
X716000Y3745000D03*
Y4380000D03*
X970000Y3745000D03*
Y4380000D03*
G54D42*
G01X280000Y2540000D02*
Y2429980D01*
G01Y2540000D02*
X390020D01*
G01X169980D02*
X280000D01*
G01Y2650020D02*
Y2540000D01*
G01X540000Y3330000D02*
X340000D01*
G01X320000Y4280000D02*
X350000D01*
X450000Y4380000D01*
X716000D01*
G01X270000Y4670000D02*
X725000D01*
X970000Y4425000D01*
Y4380000D01*
G01X770000Y1780000D02*
X670000Y1880000D01*
Y1910000D01*
G01X730000Y2930000D02*
X650000D01*
G01X444980Y5750000D02*
X575000D01*
G01D02*
X705020D01*
G01X575000D02*
Y5702480D01*
G01X619980Y7290000D02*
X750000D01*
G01X810000Y1490000D02*
X770000Y1530000D01*
Y1780000D01*
G01X860000Y1700000D02*
Y1910000D01*
G01X770000Y2120000D02*
X690000D01*
G01X770000Y2730000D02*
X690000D01*
G01X730000Y3330000D02*
Y3130000D01*
G01Y3330000D02*
Y3460000D01*
X970000Y3700000D01*
Y3745000D01*
G01X750000Y7290000D02*
Y7159980D01*
G01Y7290000D02*
X880020D01*
G01X750000Y7420020D02*
Y7290000D01*
G01X1000000Y1280000D02*
Y1450000D01*
G01X1600000Y1320000D02*
X1621220Y1298780D01*
Y101220D01*
X1620000Y100000D01*
G01X1744980Y7390000D02*
X1830000D01*
G01X2240000Y4980000D02*
X1770000D01*
G01X2240000Y6180000D02*
X1750000D01*
G01X1830000Y7390000D02*
Y7249980D01*
G01Y7390000D02*
X1915020D01*
G01X1830000Y7530020D02*
Y7390000D01*
G01X2240000Y4380000D02*
X2360020D01*
G01X2400000Y4480000D02*
X2240000D01*
G01Y4980000D02*
X2380000D01*
X2430000Y5030000D01*
X3950000D01*
X5370000Y3610000D01*
Y3330000D01*
X5460000Y3240000D01*
X5830000D01*
X5930000Y3140000D01*
G01X2240000Y5380000D02*
X4490000D01*
G01X2100000Y5980000D02*
X2119980D01*
G01X2240000Y6380000D02*
Y6440020D01*
G01X2230000Y7390000D02*
Y7249980D01*
G01Y7390000D02*
X2315020D01*
G01X2144980D02*
X2230000D01*
G01X2360020Y6280000D02*
X2370000D01*
G01X2820000Y1560000D02*
Y1430000D01*
X2840000Y1410000D01*
G01X2950000Y276000D02*
X3060020D01*
G01X2839980D02*
X2950000D01*
G01D02*
Y386020D01*
G01X3310000Y1570000D02*
X3204980D01*
G01X3310000D02*
Y1645020D01*
G01X3510000Y1570000D02*
X3615020D01*
G01X3510000D02*
Y1494980D01*
G01Y1645020D02*
Y1570000D01*
G01X3604980Y1880000D02*
X3710000D01*
G01X3910000D02*
X4015020D01*
G01X3910000D02*
Y1804980D01*
G01X4004980Y2190000D02*
X4110000D01*
G01Y2265020D02*
Y2190000D01*
G01X4104000Y2832000D02*
X3993980D01*
G01X4104000D02*
Y2942020D01*
G01Y2832000D02*
X4214020D01*
G01X4310000Y2114980D02*
Y2190000D01*
G01D02*
X4415020D01*
G01X4360000Y7370000D02*
Y7264980D01*
G01Y7370000D02*
X4435020D01*
G01X4284980D02*
X4360000D01*
G01Y7475020D02*
Y7370000D01*
G01X4600000Y276000D02*
Y386020D01*
G01Y276000D02*
X4489980D01*
G01X4600000D02*
X4710020D01*
G01X4674980Y3470000D02*
X4750000D01*
G01X4849980Y2159000D02*
X4960000D01*
G01X4750000Y3470000D02*
X4825020D01*
G01X4750000D02*
Y3364980D01*
G01Y3575020D02*
Y3470000D01*
G01X4960000Y2159000D02*
X5070020D01*
G01X4960000D02*
Y2068980D01*
G01Y2249020D02*
Y2159000D01*
G01X5260000Y5480000D02*
X5810000D01*
G01X5840000Y2510000D02*
Y2190000D01*
X5784750Y2134750D01*
X5694750D01*
X5580000Y2020000D01*
Y1930000D01*
G01X5720000Y2880000D02*
X5840000D01*
G01X5740000Y3110000D02*
Y3004980D01*
G01Y3110000D02*
X5815020D01*
G01X5664980D02*
X5740000D01*
G01X5870000Y5050000D02*
X5730000D01*
G01X5999980Y2580000D02*
X6180000D01*
G01X5930000Y3140000D02*
Y3110000D01*
G01Y3140000D02*
Y3370000D01*
G01X6250000Y3410000D02*
X6050000D01*
X6010000Y3370000D01*
X5930000D01*
G01X5980000Y3790000D02*
X6060020D01*
G01X5899980D02*
X5980000D01*
G01D02*
Y3729980D01*
G01X6000000Y5480000D02*
X6240000D01*
G01X5899980Y6080000D02*
X6040000D01*
G01X5899980Y6480000D02*
X6040000D01*
G01X6180000Y2580000D02*
Y2439980D01*
G01Y2720020D02*
Y2580000D01*
G01X6170000Y4180000D02*
X6310020D01*
G01X6029980D02*
X6170000D01*
G01D02*
Y4094980D01*
G01Y4265020D02*
Y4180000D01*
G01Y4580000D02*
X6310020D01*
G01X6029980D02*
X6170000D01*
G01D02*
Y4494980D01*
G01Y4665020D02*
Y4580000D01*
G01X6060000Y5050000D02*
X6260000D01*
G01X6040000Y6080000D02*
X6180020D01*
G01X6040000Y5990000D02*
Y6080000D01*
G01Y6165020D02*
Y6080000D01*
G01Y6480000D02*
X6180020D01*
G01X6040000D02*
Y6394980D01*
G01Y6565020D02*
Y6480000D01*
G01X6480000Y5385000D02*
Y5050000D01*
G54D24*
X810000Y4920000D03*
X1180000D03*
G54D33*
X4960000Y1701000D03*
Y1930000D03*
Y2159000D03*
G54D15*
X320000Y4090000D03*
Y4280000D03*
X1670000Y3720000D03*
Y3910000D03*
X1770000Y4790000D03*
Y4980000D03*
X1750000Y6180000D03*
Y6370000D03*
X2840000Y1220000D03*
Y1410000D03*
X2900000Y7570000D03*
Y7380000D03*
X3310000Y1380000D03*
Y1570000D03*
X3510000Y1380000D03*
Y1570000D03*
X3520000Y7390000D03*
Y7580000D03*
X3710000Y1690000D03*
X3910000D03*
X3710000Y1880000D03*
X3910000D03*
X4110000Y2000000D03*
Y2190000D03*
X4310000Y2000000D03*
Y2190000D03*
X4510000Y2310000D03*
Y2500000D03*
X4710000Y2310000D03*
Y2500000D03*
X6260000Y2980000D03*
Y3170000D03*
X6250000Y3410000D03*
Y3600000D03*
X6460000Y2980000D03*
Y3170000D03*
X6470000Y3600000D03*
Y3790000D03*
G54D43*
G01X580000Y2000000D02*
X670000Y1910000D01*
G01X580000Y2330000D02*
Y2120000D01*
G01D02*
Y2000000D01*
G01Y2530000D02*
Y2330000D01*
G01X540000Y2930000D02*
Y2770000D01*
X580000Y2730000D01*
G01D02*
Y2530000D01*
G01X540000Y3130000D02*
Y2930000D01*
G01X874000Y320000D02*
Y104000D01*
X870000Y100000D01*
G01X1750000Y6370000D02*
X1800000D01*
X1810000Y6380000D01*
X2240000D01*
G01X2119980Y4380000D02*
X2240000D01*
G01Y5080000D02*
X2360020D01*
G01X2119980D02*
X2240000D01*
G01Y5480000D02*
X2360020D01*
G01X2119980D02*
X2240000D01*
G01X2390000Y5980000D02*
X2240000D01*
G01X2119980D02*
X2240000D01*
G01Y6380000D02*
Y6280000D01*
G01Y6380000D02*
X2360020D01*
G01X2119980Y6280000D02*
X2240000D01*
G01D02*
X2360020D01*
G01X2800000Y6940000D02*
Y6819980D01*
G01Y7060020D02*
Y6940000D01*
G01X2840000Y1410000D02*
X2970000D01*
X3160000Y1220000D01*
Y100000D01*
G01X3000000Y6940000D02*
X3100000D01*
G01X3000000D02*
Y6819980D01*
G01Y7060020D02*
Y6940000D01*
G01X3250000Y7570000D02*
X2900000D01*
G01X3510000Y1570000D02*
X3310000D01*
G01X3100000Y6940000D02*
Y6819980D01*
G01Y7060020D02*
Y6940000D01*
G01X3250000Y7390000D02*
X3520000D01*
G01X3710000Y1880000D02*
X3910000D01*
G01X4110000Y2190000D02*
X4310000D01*
G01X4510000Y2500000D02*
X4380000D01*
G01X4400000Y3920000D02*
Y3799980D01*
G01Y4040020D02*
Y3920000D01*
G01X4300000Y6940000D02*
X4400000D01*
G01X4300000D02*
Y6819980D01*
G01Y7060020D02*
Y6940000D01*
G01X4400000D02*
Y6819980D01*
G01Y7060020D02*
Y6940000D01*
G01X4510000Y2500000D02*
X4710000D01*
G01D02*
X4830000D01*
G01X4700000Y3920000D02*
Y3799980D01*
G01Y4040020D02*
Y3920000D01*
G01Y6940000D02*
Y6819980D01*
G01Y7060020D02*
Y6940000D01*
G01X5210000Y3030000D02*
Y2849980D01*
G01Y3030000D02*
X5350020D01*
G01X5069980D02*
X5210000D01*
G01Y3210020D02*
Y3030000D01*
G01X5139980Y4480000D02*
X5260000D01*
G01X5139980Y4680000D02*
X5260000D01*
G01X5139980Y6180000D02*
X5260000D01*
G01X5139980Y6080000D02*
X5260000D01*
G01X5139980Y6380000D02*
X5260000D01*
G01X5469980Y920000D02*
X5610000D01*
G01X5260000Y4480000D02*
X5380020D01*
G01X5260000Y4680000D02*
X5380020D01*
G01X5260000Y6180000D02*
Y6080000D01*
G01Y6180000D02*
X5380020D01*
G01X5260000Y6080000D02*
X5380020D01*
G01X5260000Y6380000D02*
X5380020D01*
G01X5610000Y920000D02*
Y739980D01*
G01Y920000D02*
X5750020D01*
G01X5610000Y1100020D02*
Y920000D01*
G01X5680000Y7370000D02*
Y7189980D01*
G01Y7370000D02*
X5820020D01*
G01X5539980D02*
X5680000D01*
G01Y7550020D02*
Y7370000D01*
G01X5919000Y380000D02*
Y239980D01*
G01Y380000D02*
X5778980D01*
G01X5919000Y520020D02*
Y380000D01*
G01D02*
X6059020D01*
G01X6180000Y2580000D02*
X6220000D01*
X6460000Y2820000D01*
G01D02*
Y2980000D01*
G54D34*
X5580000Y1930000D03*
G54D16*
X285000Y5480000D03*
Y6280000D03*
G54D25*
X1000000Y5300000D03*
X1060000Y6150000D03*
X1340000Y5300000D03*
X1400000Y6150000D03*
G54D44*
G01X860000Y1910000D02*
Y1940000D01*
X1050000Y2130000D01*
X1325000D01*
G01X770000Y2120000D02*
Y2150000D01*
X850000Y2230000D01*
X1325000D01*
G01Y2630000D02*
X840000D01*
X770000Y2700000D01*
Y2730000D01*
G01X730000Y2930000D02*
Y2907500D01*
X757500Y2880000D01*
X1325000D01*
G01X1000000Y1450000D02*
Y1490000D01*
G01D02*
Y1870010D01*
X1209990Y2080000D01*
X1325000D01*
G01X1500000Y3305000D02*
X1165000D01*
X1160000Y3300000D01*
G01X1325000Y2180000D02*
X1415020D01*
G01X1234980D02*
X1325000D01*
G01Y2680000D02*
X1415020D01*
G01X1234980D02*
X1325000D01*
G01X1600000Y1755000D02*
Y1320000D01*
G01X1550000Y1755000D02*
Y1664980D01*
G01Y1845020D02*
Y1755000D01*
G01Y3214980D02*
Y3305000D01*
G01D02*
Y3395020D01*
G01X2050000Y1080000D02*
Y1755000D01*
G01X2650000D02*
Y990000D01*
G01X2700000Y1755000D02*
Y1520000D01*
X2810000Y1410000D01*
X2840000D01*
G01X2784980Y3080000D02*
X2875000D01*
G01Y3130000D02*
X3050000D01*
X3150000Y3230000D01*
X3260000D01*
G01X2875000Y3080000D02*
X2965020D01*
G01X2875000Y3030000D02*
X3260000D01*
G01Y3230000D02*
Y3260000D01*
X3360000Y3360000D01*
X3520000D01*
X3630000Y3250000D01*
Y3090000D01*
X3760000Y2960000D01*
X3978000D01*
X4104000Y3086000D01*
G54D35*
X5919000Y380000D03*
G54D17*
X680000Y1700000D03*
X820000Y1280000D03*
X860000Y1700000D03*
X1000000Y1280000D03*
G54D26*
X1325000Y1930000D03*
Y1980000D03*
Y2030000D03*
Y2080000D03*
Y2130000D03*
Y2180000D03*
Y2230000D03*
Y2280000D03*
Y2330000D03*
Y2380000D03*
Y2430000D03*
Y2480000D03*
Y2530000D03*
Y2580000D03*
Y2630000D03*
Y2680000D03*
Y2730000D03*
Y2780000D03*
Y2830000D03*
Y2880000D03*
Y2930000D03*
Y2980000D03*
Y3030000D03*
Y3080000D03*
Y3130000D03*
X2875000Y1930000D03*
Y2180000D03*
Y2130000D03*
Y2080000D03*
Y2030000D03*
Y1980000D03*
Y2480000D03*
Y2430000D03*
Y2380000D03*
Y2330000D03*
Y2280000D03*
Y2230000D03*
Y2730000D03*
Y2680000D03*
Y2630000D03*
Y2580000D03*
Y2530000D03*
Y2980000D03*
Y2930000D03*
Y2880000D03*
Y2830000D03*
Y2780000D03*
Y3130000D03*
Y3080000D03*
Y3030000D03*
G54D45*
G01X870000Y100000D02*
X630000D01*
X530000Y200000D01*
Y230000D01*
G01X680000Y1700000D02*
Y1336570D01*
X736570Y1280000D01*
X820000D01*
G01X680000Y1700000D02*
X550000D01*
G01X1100000Y100000D02*
X870000D01*
G01X820000Y1280000D02*
Y1120000D01*
X1100000Y840000D01*
Y100000D01*
G01X1620000D02*
X1100000D01*
G01X1160000Y3470000D02*
Y3300000D01*
G01X3160000Y100000D02*
X1620000D01*
G01X3160000D02*
X6380000D01*
X6530000Y250000D01*
Y740000D01*
X6180000Y1090000D01*
Y1270000D01*
G01Y1600000D02*
Y1270000D01*
G54D18*
G01X810000Y4920000D02*
X740000D01*
X736000Y4924000D01*
X270000D01*
G01X4560000Y3470000D02*
Y3030000D01*
G01Y3595000D02*
Y3470000D01*
G01X4550000Y7250000D02*
Y7370000D01*
X550000Y1700000D03*
X1160000Y3470000D03*
X4380000Y3030000D03*
X5030000Y7110000D03*
G54D36*
X6015000Y4380000D03*
X5885000Y6280000D03*
G54D27*
X1750000Y1755000D03*
X1700000D03*
X1650000D03*
X1600000D03*
X1550000D03*
X1500000D03*
Y3305000D03*
X1550000D03*
X1600000D03*
X1650000D03*
X1700000D03*
X1750000D03*
X2000000Y1755000D03*
X1950000D03*
X1900000D03*
X1850000D03*
X1800000D03*
Y3305000D03*
X1850000D03*
X1900000D03*
X1950000D03*
X2000000D03*
X2250000Y1755000D03*
X2200000D03*
X2150000D03*
X2100000D03*
X2050000D03*
Y3305000D03*
X2100000D03*
X2150000D03*
X2200000D03*
X2250000D03*
X2550000Y1755000D03*
X2500000D03*
X2450000D03*
X2400000D03*
X2350000D03*
X2300000D03*
Y3305000D03*
X2350000D03*
X2400000D03*
X2450000D03*
X2500000D03*
X2550000D03*
X2700000Y1755000D03*
X2650000D03*
X2600000D03*
Y3305000D03*
X2650000D03*
X2700000D03*
G54D46*
G01X1180000Y4920000D02*
Y4930000D01*
X980000Y5130000D01*
X910000D01*
X340000Y5700000D01*
Y5930000D01*
X420000Y6010000D01*
X575000D01*
G54D37*
X6040000Y6080000D03*
Y6480000D03*
X6170000Y4180000D03*
Y4580000D03*
G54D28*
X2030000Y7545000D03*
G54D19*
X575000Y5750000D03*
Y5815000D03*
Y5880000D03*
Y5945000D03*
Y6010000D03*
G54D47*
G01X4560000Y3030000D02*
X4380000D01*
G01X4960000Y920000D02*
Y880000D01*
X4610000Y530000D01*
X4600000D01*
G01X4550000Y7370000D02*
X5030000D01*
G01X4960000Y1400000D02*
Y920000D01*
G01Y1701000D02*
Y1400000D01*
G01Y1930000D02*
X5580000D01*
G01X5030000Y7110000D02*
Y7370000D01*
G01X5580000Y1930000D02*
X6180000D01*
G01D02*
Y1600000D01*
G54D38*
X6300000Y380000D03*
G54D29*
X1830000Y7390000D03*
X2230000D03*
G54D39*
X6180000Y1930000D03*
Y2580000D03*
M02*
